<svg width="2382" height="1090" viewBox="0 0 2382 1090" fill="none" xmlns="http://www.w3.org/2000/svg">
<path fill-rule="evenodd" clip-rule="evenodd" d="M183.04 147.024C173.538 148.954 135.514 157.541 99.54 165.881C68.341 173.113 3.20401 189.947 2.07101 191.071C0.129005 192.995 0.991005 495.243 2.975 508.015C3.186 509.378 3.655 517.018 4.017 524.993C6.77 585.66 14.633 647.805 25.149 691.993C35.82 736.836 53.254 781.145 75.333 819.536C130.258 915.042 227.809 1003.91 351.749 1071.34C372.262 1082.5 387.072 1089.99 388.61 1089.99C392.135 1089.99 441.722 1063.4 466.54 1048.19C582.669 977.057 667.091 891.697 714.979 796.993C740.6 746.325 756.701 690.971 765.01 624.993C765.876 618.118 766.806 610.973 767.077 609.115C767.832 603.94 771.327 566.153 772.452 550.993C774.285 526.305 775.817 492.325 777.117 447.493C778.519 399.165 777.355 192.536 775.671 190.761C774.899 189.948 696.994 170.01 675.04 165.008C667.34 163.254 653.615 160.08 644.54 157.957C628.727 154.256 622.208 152.784 600.04 147.908C594.54 146.698 588.915 145.742 587.54 145.784C584.121 145.886 573.316 148.14 545.04 154.649C531.84 157.688 518.34 160.76 515.04 161.476C511.74 162.191 499.917 164.851 488.766 167.385C477.616 169.919 468.279 171.993 468.016 171.993C467.754 171.993 467.54 172.419 467.54 172.941C467.54 174.368 478.593 202.36 479.553 203.367C480.012 203.847 494.259 207.081 511.214 210.554C585.137 225.693 696.568 250.687 698.427 252.546C699.657 253.777 699.079 455.685 697.766 482.993C696.485 509.668 693.922 552.21 693.039 561.493C689.232 601.488 688.153 610.455 683.895 637.493C669.799 726.994 631.438 802.738 565.421 871.413C541.678 896.114 509.65 923.478 478.04 946.071C460.966 958.274 432.736 976.522 432.027 975.813C431.393 975.18 430.773 968.72 428.026 934.17C423.334 875.156 421.586 850.477 420.902 833.594L420.218 816.696L434.629 817.397C465.085 818.88 497.05 823.382 526.79 830.378L532.54 831.73V786.794C532.54 744.466 532.438 741.888 530.79 742.379C524.221 744.334 494.448 750.365 483.54 751.951C466.678 754.402 450.226 756.035 436.153 756.655L421.265 757.311L421.906 752.902C422.258 750.477 424.113 729.818 426.028 706.993C427.943 684.168 429.724 663.468 429.987 660.993C430.249 658.518 430.713 653.343 431.019 649.493C431.324 645.643 432.695 629.668 434.066 613.993C435.437 598.318 437.668 572.218 439.025 555.993C440.382 539.768 441.739 523.568 442.041 519.993C442.344 516.418 442.816 510.568 443.091 506.993C443.366 503.418 443.789 498.693 444.03 496.493C444.271 494.293 444.721 488.893 445.031 484.493C445.34 480.093 445.801 474.693 446.054 472.493C446.307 470.293 447.204 459.493 448.048 448.493C448.892 437.493 449.802 426.243 450.07 423.493C450.338 420.743 451.431 408.593 452.499 396.493C455.238 365.449 457.627 338.846 458.515 329.493L459.275 321.493L451.53 307.993C447.271 300.568 439.851 287.518 435.041 278.993C430.231 270.468 424.364 260.118 422.002 255.993C415.834 245.219 404.403 224.557 396.278 209.493C392.421 202.343 389.163 196.367 389.039 196.213C388.915 196.059 385.299 202.359 381.005 210.213C376.71 218.067 367.369 234.843 360.246 247.493C316.409 325.351 318.387 321.631 318.947 325.163C319.236 326.995 319.733 332.093 320.05 336.493C320.367 340.893 321.053 349.218 321.575 354.993C322.097 360.768 322.769 368.418 323.068 371.993C323.368 375.568 324.043 382.993 324.568 388.493C325.093 393.993 326.663 412.218 328.056 428.993C329.449 445.768 333.054 489.193 336.066 525.493C339.079 561.793 341.766 593.743 342.038 596.493C342.31 599.243 343.438 612.068 344.546 624.993C345.654 637.918 346.788 650.968 347.066 653.993C347.659 660.457 350.973 698.247 353.072 722.493C353.881 731.843 354.84 743.502 355.203 748.401L355.862 757.309L342.951 756.666C317.041 755.376 297.478 752.822 268.54 746.952C257.815 744.776 248.038 742.721 246.813 742.384L244.586 741.772L244.949 785.935C245.148 810.225 245.559 830.346 245.862 830.648C246.165 830.951 251.954 830.046 258.726 828.638C280.143 824.185 298.116 821.337 316.54 819.477C319.565 819.172 323.39 818.728 325.04 818.492C326.69 818.256 334.714 817.757 342.871 817.382L357.702 816.701L357.071 828.597C355.996 848.839 353.549 887.26 353.032 891.993C352.762 894.468 352.078 903.243 351.512 911.493C350.945 919.743 350.263 928.968 349.995 931.993C349.727 935.018 348.85 945.995 348.047 956.387C347.243 966.778 346.396 975.471 346.163 975.704C345.93 975.936 338.157 971.28 328.89 965.356C231.009 902.787 161.085 826.375 124.494 741.993C112.334 713.951 102.649 682.277 96.516 650.493C92.079 627.495 86.409 580.958 84.089 548.493C82.365 524.356 81.555 509.506 81.007 491.993C80.672 481.268 80.165 471.143 79.881 469.493C79.258 465.877 78.705 284.045 79.26 265.275L79.65 252.057L83.345 251.025C89.39 249.337 163.662 232.347 182.04 228.448C191.39 226.464 204.215 223.727 210.54 222.364C224.687 219.316 255.13 212.936 274.54 208.951C282.515 207.314 291.251 205.416 293.953 204.734L298.866 203.493L303.977 189.493C306.788 181.793 309.442 174.93 309.874 174.241C310.873 172.65 308.011 171.542 296.148 168.926C291.139 167.821 272.64 163.573 255.04 159.487C237.44 155.4 216.74 150.678 209.04 148.995C201.34 147.311 194.365 145.767 193.54 145.564C192.715 145.361 187.99 146.018 183.04 147.024ZM382.191 319.977C377.066 333.077 376.413 335.516 376.912 339.709C377.226 342.34 377.741 355.293 378.059 368.493C378.376 381.693 378.82 395.418 379.045 398.993C379.27 402.568 379.709 416.293 380.019 429.493C380.33 442.693 380.789 458.893 381.038 465.493C381.287 472.093 381.739 488.293 382.041 501.493C382.343 514.693 382.794 529.768 383.043 534.993C383.292 540.218 383.742 556.193 384.043 570.493C384.345 584.793 384.796 599.418 385.047 602.993C385.298 606.568 385.789 623.218 386.137 639.993C386.486 656.768 386.927 670.76 387.117 671.085C387.307 671.411 387.544 679.511 387.644 689.085C387.878 711.719 389.275 716.407 389.553 695.493C389.67 686.693 389.885 677.918 390.03 675.993C390.175 674.068 390.585 661.018 390.941 646.993C391.297 632.968 391.793 616.993 392.043 611.493C392.292 605.993 392.744 591.143 393.046 578.493C393.348 565.843 393.796 551.668 394.041 546.993C394.287 542.318 394.733 527.918 395.032 514.993C395.332 502.068 395.786 486.768 396.041 480.993C396.296 475.218 396.754 459.918 397.058 446.993C397.362 434.068 397.799 420.793 398.029 417.493C398.672 408.274 400.005 359.139 400.024 343.993L400.04 330.493L394.655 317.743C391.693 310.731 388.993 305.001 388.655 305.011C388.317 305.022 385.408 311.756 382.191 319.977Z" fill="#055A81"/>
<path fill-rule="evenodd" clip-rule="evenodd" d="M399.124 16.75C396.97 25.958 393.971 39.118 392.459 45.993C388.634 63.388 383.836 83.031 383.276 83.591C383.018 83.849 378.134 81.418 372.423 78.189C366.713 74.961 357.765 70.026 352.54 67.222C347.315 64.419 339.013 59.86 334.09 57.092C329.168 54.324 324.964 52.235 324.75 52.45C324.535 52.665 329.309 61.987 335.359 73.167C348.688 97.795 355.129 110.737 354.414 111.452C354.12 111.746 342.891 114.45 329.46 117.462C286.282 127.143 262.122 132.964 262.778 133.528C262.922 133.651 280.815 138.161 302.54 143.548C324.265 148.935 342.399 153.646 342.838 154.016C343.657 154.707 335.121 179.474 324.581 206.993C321.315 215.518 316.87 227.493 314.701 233.604C312.533 239.716 310.244 245.678 309.614 246.854C307.223 251.323 310.425 248.593 321.475 236.743C327.757 230.005 338.527 218.502 345.407 211.179C352.287 203.857 358.619 197.06 359.478 196.075C360.959 194.377 376.73 177.204 384.779 168.525L388.518 164.493L395.245 171.493C408.62 185.412 421.244 198.809 431.54 210.015C445.976 225.725 468.809 249.993 469.154 249.993C469.31 249.993 468.725 248.306 467.854 246.243C466.982 244.181 462.905 233.268 458.793 221.993C441.227 173.829 434.487 154.713 434.919 154.281C435.429 153.771 447.033 150.844 467.54 146.052C474.965 144.317 488.915 140.943 498.54 138.554C508.165 136.165 517.331 133.914 518.908 133.553C520.485 133.191 521.591 132.71 521.364 132.484C520.839 131.959 489.877 123.395 469.04 118.012C460.24 115.738 452.748 113.567 452.39 113.186C452.033 112.805 455.101 106.193 459.208 98.493C478.476 62.37 482.542 54.499 482.3 53.784C482.083 53.142 452.499 68.878 431.377 80.87C428.263 82.638 425.516 83.727 425.273 83.289C425.031 82.851 420.211 63.931 414.564 41.243C408.916 18.556 404.013 -0.00399935 403.668 6.46431e-07C403.322 0.00300065 401.278 7.541 399.124 16.75ZM0.925003 215.993C0.925003 222.868 1.085 225.681 1.28 222.243C1.476 218.806 1.476 213.181 1.28 209.743C1.085 206.306 0.925003 209.118 0.925003 215.993ZM776.91 231.993C776.91 237.768 777.075 240.13 777.277 237.243C777.479 234.356 777.479 229.63 777.277 226.743C777.075 223.856 776.91 226.218 776.91 231.993ZM78.951 302.993C78.951 312.618 79.101 316.556 79.285 311.743C79.468 306.931 79.468 299.056 79.285 294.243C79.101 289.431 78.951 293.368 78.951 302.993ZM698.937 304.993C698.937 312.968 699.093 316.231 699.283 312.243C699.472 308.255 699.472 301.731 699.283 297.743C699.093 293.755 698.937 297.018 698.937 304.993ZM777.957 311.493C777.958 321.943 778.106 326.082 778.286 320.691C778.466 315.3 778.465 306.75 778.284 301.691C778.103 296.632 777.956 301.043 777.957 311.493ZM0 352.993C0 377.468 0.130001 387.481 0.289001 375.243C0.448001 363.006 0.448001 342.981 0.289001 330.743C0.130001 318.506 0 328.518 0 352.993ZM399.876 346.993C399.876 351.118 400.053 352.806 400.268 350.743C400.484 348.681 400.484 345.306 400.268 343.243C400.053 341.181 399.876 342.868 399.876 346.993ZM377.86 359.993C377.86 363.568 378.042 365.031 378.263 363.243C378.485 361.455 378.485 358.531 378.263 356.743C378.042 354.955 377.86 356.418 377.86 359.993ZM777.953 398.493C777.954 408.393 778.104 412.308 778.286 407.192C778.468 402.077 778.467 393.977 778.284 389.192C778.101 384.408 777.952 388.593 777.953 398.493ZM378.85 391.493C378.855 394.793 379.042 396.022 379.265 394.225C379.487 392.428 379.483 389.728 379.255 388.225C379.026 386.722 378.844 388.193 378.85 391.493ZM78.942 415.993C78.942 424.518 79.096 428.005 79.283 423.743C79.471 419.481 79.471 412.505 79.283 408.243C79.096 403.981 78.942 407.468 78.942 415.993ZM397.86 409.993C397.86 413.568 398.042 415.031 398.263 413.243C398.485 411.455 398.485 408.531 398.263 406.743C398.042 404.955 397.86 406.418 397.86 409.993ZM698.922 421.493C698.924 428.093 699.086 430.663 699.281 427.204C699.477 423.745 699.476 418.345 699.278 415.204C699.08 412.063 698.92 414.893 698.922 421.493ZM379.868 421.493C379.873 425.343 380.053 426.795 380.27 424.721C380.486 422.646 380.483 419.496 380.262 417.721C380.041 415.945 379.864 417.643 379.868 421.493ZM396.86 439.993C396.86 443.568 397.042 445.031 397.263 443.243C397.485 441.455 397.485 438.531 397.263 436.743C397.042 434.955 396.86 436.418 396.86 439.993ZM0.900002 454.993C0.900002 460.218 1.069 462.355 1.275 459.743C1.481 457.131 1.481 452.856 1.275 450.243C1.069 447.63 0.900002 449.768 0.900002 454.993ZM380.876 455.993C380.876 460.118 381.053 461.806 381.268 459.743C381.484 457.681 381.484 454.306 381.268 452.243C381.053 450.181 380.876 451.868 380.876 455.993ZM79.895 459.493C79.892 464.443 80.061 466.594 80.271 464.273C80.48 461.952 80.483 457.902 80.276 455.273C80.07 452.644 79.898 454.543 79.895 459.493ZM776.85 456.493C776.855 459.793 777.042 461.022 777.265 459.225C777.487 457.428 777.483 454.728 777.255 453.225C777.026 451.722 776.844 453.193 776.85 456.493ZM697.868 464.493C697.873 468.343 698.053 469.795 698.27 467.721C698.486 465.646 698.483 462.496 698.262 460.721C698.041 458.945 697.864 460.643 697.868 464.493ZM395.85 474.493C395.855 477.793 396.042 479.022 396.265 477.225C396.487 475.428 396.483 472.728 396.255 471.225C396.026 469.722 395.844 471.193 395.85 474.493ZM775.84 487.993C775.84 491.018 776.027 492.256 776.256 490.743C776.485 489.23 776.485 486.756 776.256 485.243C776.027 483.73 775.84 484.968 775.84 487.993ZM1.84 489.993C1.84 493.018 2.027 494.256 2.256 492.743C2.485 491.23 2.485 488.756 2.256 487.243C2.027 485.73 1.84 486.968 1.84 489.993ZM80.85 490.493C80.855 493.793 81.042 495.022 81.265 493.225C81.487 491.428 81.483 488.728 81.255 487.225C81.026 485.722 80.844 487.193 80.85 490.493ZM381.876 491.993C381.876 496.118 382.053 497.806 382.268 495.743C382.484 493.681 382.484 490.306 382.268 488.243C382.053 486.181 381.876 487.868 381.876 491.993ZM696.85 491.493C696.855 494.793 697.042 496.022 697.265 494.225C697.487 492.428 697.483 489.728 697.255 488.225C697.026 486.722 696.844 488.193 696.85 491.493ZM394.876 506.993C394.876 511.118 395.053 512.806 395.268 510.743C395.484 508.681 395.484 505.306 395.268 503.243C395.053 501.181 394.876 502.868 394.876 506.993ZM774.84 511.993C774.84 515.018 775.027 516.256 775.256 514.743C775.485 513.23 775.485 510.756 775.256 509.243C775.027 507.73 774.84 508.968 774.84 511.993ZM2.84 513.993C2.84 517.018 3.027 518.256 3.256 516.743C3.485 515.23 3.485 512.756 3.256 511.243C3.027 509.73 2.84 510.968 2.84 513.993ZM382.868 527.493C382.873 531.343 383.053 532.795 383.27 530.721C383.486 528.646 383.483 525.496 383.262 523.721C383.041 521.945 382.864 523.643 382.868 527.493ZM393.86 539.993C393.86 543.568 394.042 545.031 394.263 543.243C394.485 541.455 394.485 538.531 394.263 536.743C394.042 534.955 393.86 536.418 393.86 539.993ZM383.86 561.993C383.86 565.568 384.042 567.031 384.263 565.243C384.485 563.455 384.485 560.531 384.263 558.743C384.042 556.955 383.86 558.418 383.86 561.993ZM392.868 571.493C392.873 575.343 393.053 576.795 393.27 574.721C393.486 572.646 393.483 569.496 393.262 567.721C393.041 565.945 392.864 567.643 392.868 571.493ZM384.86 596.993C384.86 600.568 385.042 602.031 385.263 600.243C385.485 598.455 385.485 595.531 385.263 593.743C385.042 591.955 384.86 593.418 384.86 596.993ZM391.85 604.493C391.855 607.793 392.042 609.022 392.265 607.225C392.487 605.428 392.483 602.728 392.255 601.225C392.026 599.722 391.844 601.193 391.85 604.493ZM385.876 628.993C385.876 633.118 386.053 634.806 386.268 632.743C386.484 630.681 386.484 627.306 386.268 625.243C386.053 623.181 385.876 624.868 385.876 628.993ZM390.883 637.493C390.886 641.893 391.062 643.569 391.273 641.217C391.485 638.865 391.482 635.265 391.267 633.217C391.052 631.169 390.879 633.093 390.883 637.493ZM386.889 662.993C386.889 667.668 387.062 669.58 387.272 667.243C387.483 664.906 387.483 661.08 387.272 658.743C387.062 656.406 386.889 658.318 386.889 662.993ZM389.84 668.993C389.84 672.018 390.027 673.256 390.256 671.743C390.485 670.23 390.485 667.756 390.256 666.243C390.027 664.73 389.84 665.968 389.84 668.993ZM387.878 703.992C388.69 712.3 389.662 713.035 389.426 705.162C389.323 701.732 388.794 698.65 388.251 698.314C387.617 697.923 387.484 699.956 387.878 703.992ZM342.308 756.718C344.105 756.94 346.805 756.936 348.308 756.708C349.811 756.479 348.34 756.297 345.04 756.303C341.74 756.308 340.511 756.495 342.308 756.718ZM356.84 821.993C356.84 825.018 357.027 826.256 357.256 824.743C357.485 823.23 357.485 820.756 357.256 819.243C357.027 817.73 356.84 818.968 356.84 821.993ZM244.72 826.243C244.567 831.126 244.804 831.991 246.29 831.978C247.46 831.967 247.647 831.713 246.854 831.208C246.202 830.794 245.496 828.213 245.284 825.474L244.9 820.493L244.72 826.243ZM420.883 830.493C420.886 834.893 421.062 836.569 421.273 834.217C421.485 831.865 421.482 828.265 421.267 826.217C421.052 824.169 420.879 826.093 420.883 830.493ZM212.54 871.493C216.083 875.068 219.207 877.993 219.482 877.993C219.757 877.993 217.083 875.068 213.54 871.493C209.997 867.918 206.873 864.993 206.598 864.993C206.323 864.993 208.997 867.918 212.54 871.493ZM548.506 887.743L543.04 893.493L548.79 888.027C554.132 882.949 554.998 881.993 554.256 881.993C554.1 881.993 551.512 884.58 548.506 887.743ZM230.54 889.493C233.527 892.518 236.197 894.993 236.472 894.993C236.747 894.993 234.527 892.518 231.54 889.493C228.553 886.468 225.883 883.993 225.608 883.993C225.333 883.993 227.553 886.468 230.54 889.493ZM177.04 946.993C180.306 950.293 183.202 952.993 183.477 952.993C183.752 952.993 181.306 950.293 178.04 946.993C174.774 943.693 171.878 940.993 171.603 940.993C171.328 940.993 173.774 943.693 177.04 946.993Z" fill="#B98F47"/>
<path d="M978.966 413.182C956.941 413.182 940.074 406.909 928.364 394.363C916.934 381.817 911.219 364.114 911.219 341.253V184.012C911.219 161.151 916.934 143.448 928.364 130.902C940.074 118.356 956.941 112.083 978.966 112.083C1000.99 112.083 1017.72 118.356 1029.15 130.902C1040.86 143.448 1046.71 161.151 1046.71 184.012V214.959H1003.22V181.085C1003.22 162.963 995.554 153.903 980.22 153.903C964.887 153.903 957.22 162.963 957.22 181.085V344.598C957.22 362.441 964.887 371.363 980.22 371.363C995.554 371.363 1003.22 362.441 1003.22 344.598V299.852H1046.71V341.253C1046.71 364.114 1040.86 381.817 1029.15 394.363C1017.72 406.909 1000.99 413.182 978.966 413.182ZM1074.24 116.265H1120.24V235.45H1169.58V116.265H1215.58V409H1169.58V277.269H1120.24V409H1074.24V116.265ZM1285.39 116.265H1347.7L1395.37 409H1349.37L1341.01 350.871V351.708H1288.74L1280.37 409H1237.72L1285.39 116.265ZM1335.57 311.979L1315.08 167.285H1314.25L1294.17 311.979H1335.57ZM1417.69 116.265H1483.35L1512.62 325.78H1513.46L1542.73 116.265H1608.39V409H1564.9V187.358H1564.06L1530.6 409H1492.13L1458.68 187.358H1457.84V409H1417.69V116.265ZM1642.72 116.265H1710.46C1733.32 116.265 1750.47 122.399 1761.9 134.666C1773.33 146.933 1779.05 164.915 1779.05 188.613V217.468C1779.05 241.165 1773.33 259.148 1761.9 271.415C1750.47 283.682 1733.32 289.815 1710.46 289.815H1688.72V409H1642.72V116.265ZM1710.46 247.996C1717.99 247.996 1723.57 245.905 1727.19 241.723C1731.09 237.541 1733.05 230.432 1733.05 220.395V185.685C1733.05 175.649 1731.09 168.539 1727.19 164.357C1723.57 160.175 1717.99 158.084 1710.46 158.084H1688.72V247.996H1710.46ZM1804.03 116.265H1850.03V409H1804.03V116.265ZM1950.98 413.182C1928.39 413.182 1911.11 406.77 1899.12 393.945C1887.13 381.12 1881.14 362.999 1881.14 339.58V185.685C1881.14 162.266 1887.13 144.145 1899.12 131.32C1911.11 118.496 1928.39 112.083 1950.98 112.083C1973.56 112.083 1990.84 118.496 2002.83 131.32C2014.82 144.145 2020.81 162.266 2020.81 185.685V339.58C2020.81 362.999 2014.82 381.12 2002.83 393.945C1990.84 406.77 1973.56 413.182 1950.98 413.182ZM1950.98 371.363C1966.87 371.363 1974.81 361.744 1974.81 342.507V182.758C1974.81 163.521 1966.87 153.903 1950.98 153.903C1935.08 153.903 1927.14 163.521 1927.14 182.758V342.507C1927.14 361.744 1935.08 371.363 1950.98 371.363ZM2051.92 116.265H2109.63L2154.38 291.488H2155.22V116.265H2196.2V409H2148.94L2093.74 195.304H2092.91V409H2051.92V116.265ZM2290.19 413.182C2267.89 413.182 2251.02 406.909 2239.59 394.363C2228.16 381.539 2222.44 363.278 2222.44 339.58V322.852H2265.94V342.926C2265.94 361.884 2273.88 371.363 2289.77 371.363C2297.58 371.363 2303.43 369.132 2307.34 364.672C2311.52 359.932 2313.61 352.405 2313.61 342.089C2313.61 329.822 2310.82 319.089 2305.25 309.888C2299.67 300.409 2289.36 289.118 2274.3 276.015C2255.34 259.287 2242.1 244.232 2234.57 230.85C2227.04 217.189 2223.28 201.855 2223.28 184.849C2223.28 161.709 2229.14 143.866 2240.85 131.32C2252.55 118.496 2269.56 112.083 2291.86 112.083C2313.89 112.083 2330.48 118.496 2341.63 131.32C2353.06 143.866 2358.78 161.988 2358.78 185.685V197.813H2315.28V182.758C2315.28 172.721 2313.33 165.473 2309.43 161.012C2305.53 156.272 2299.81 153.903 2292.28 153.903C2276.95 153.903 2269.28 163.242 2269.28 181.921C2269.28 192.516 2272.07 202.413 2277.65 211.613C2283.5 220.813 2293.96 231.965 2309.01 245.069C2328.25 261.796 2341.49 276.991 2348.74 290.652C2355.99 304.312 2359.61 320.343 2359.61 338.744C2359.61 362.72 2353.62 381.12 2341.63 393.945C2329.92 406.77 2312.77 413.182 2290.19 413.182Z" fill="#BB8C3A"/>
<path d="M914.146 450.265H971.856L1016.6 625.488H1017.44V450.265H1058.42V743H1011.17L955.965 529.304H955.129V743H914.146V450.265ZM1092.61 450.265H1218.07V492.084H1138.61V569.45H1201.76V611.269H1138.61V701.181H1218.07V743H1092.61V450.265ZM1280.5 492.084H1232.41V450.265H1374.59V492.084H1326.5V743H1280.5V492.084ZM1387.62 450.265H1431.95L1452.44 675.253H1453.28L1475.03 450.265H1525.21L1546.96 675.253H1547.79L1568.28 450.265H1608.01L1578.32 743H1521.03L1500.12 545.613H1499.28L1478.37 743H1417.32L1387.62 450.265ZM1697.77 747.182C1675.19 747.182 1657.91 740.77 1645.92 727.945C1633.93 715.12 1627.94 696.999 1627.94 673.58V519.685C1627.94 496.266 1633.93 478.145 1645.92 465.32C1657.91 452.496 1675.19 446.083 1697.77 446.083C1720.36 446.083 1737.64 452.496 1749.63 465.32C1761.62 478.145 1767.61 496.266 1767.61 519.685V673.58C1767.61 696.999 1761.62 715.12 1749.63 727.945C1737.64 740.77 1720.36 747.182 1697.77 747.182ZM1697.77 705.363C1713.66 705.363 1721.61 695.744 1721.61 676.507V516.758C1721.61 497.521 1713.66 487.903 1697.77 487.903C1681.88 487.903 1673.94 497.521 1673.94 516.758V676.507C1673.94 695.744 1681.88 705.363 1697.77 705.363ZM1798.72 450.265H1866.89C1890.58 450.265 1907.87 455.841 1918.74 466.993C1929.62 477.866 1935.05 494.733 1935.05 517.594V535.576C1935.05 565.965 1925.02 585.202 1904.94 593.287V594.123C1916.09 597.469 1923.9 604.299 1928.36 614.615C1933.1 624.93 1935.47 638.731 1935.47 656.016V707.454C1935.47 715.817 1935.75 722.648 1936.31 727.945C1936.86 732.963 1938.26 737.982 1940.49 743H1893.65C1891.98 738.26 1890.86 733.8 1890.31 729.618C1889.75 725.436 1889.47 717.908 1889.47 707.035V653.507C1889.47 640.125 1887.24 630.785 1882.78 625.488C1878.6 620.191 1871.21 617.542 1860.61 617.542H1844.72V743H1798.72V450.265ZM1861.45 575.723C1870.65 575.723 1877.48 573.353 1881.94 568.614C1886.68 563.874 1889.05 555.929 1889.05 544.777V522.194C1889.05 511.6 1887.1 503.933 1883.2 499.194C1879.57 494.454 1873.72 492.084 1865.63 492.084H1844.72V575.723H1861.45ZM1967.39 450.265H2013.39V573.632L2071.93 450.265H2117.94L2063.15 557.741L2118.77 743H2070.68L2031.79 612.524L2013.39 649.743V743H1967.39V450.265Z" fill="#BB8C3A"/>
<path d="M910.153 794.878H960.921V812.324H929.344V846.343H954.117V863.79H929.344V917H910.153V794.878ZM997.863 918.745C988.442 918.745 981.231 916.07 976.23 910.719C971.229 905.369 968.728 897.809 968.728 888.04V823.838C968.728 814.068 971.229 806.508 976.23 801.158C981.231 795.808 988.442 793.133 997.863 793.133C1007.28 793.133 1014.49 795.808 1019.5 801.158C1024.5 806.508 1027 814.068 1027 823.838V888.04C1027 897.809 1024.5 905.369 1019.5 910.719C1014.49 916.07 1007.28 918.745 997.863 918.745ZM997.863 901.299C1004.49 901.299 1007.81 897.286 1007.81 889.261V822.617C1007.81 814.592 1004.49 810.579 997.863 810.579C991.233 810.579 987.919 814.592 987.919 822.617V889.261C987.919 897.286 991.233 901.299 997.863 901.299ZM1039.98 794.878H1068.41C1078.3 794.878 1085.51 797.204 1090.05 801.856C1094.58 806.392 1096.85 813.429 1096.85 822.966V830.468C1096.85 843.145 1092.66 851.17 1084.29 854.543V854.892C1088.94 856.288 1092.2 859.137 1094.06 863.441C1096.04 867.744 1097.02 873.501 1097.02 880.712V902.171C1097.02 905.66 1097.14 908.51 1097.37 910.719C1097.61 912.813 1098.19 914.906 1099.12 917H1079.58C1078.88 915.023 1078.42 913.162 1078.18 911.417C1077.95 909.673 1077.83 906.532 1077.83 901.996V879.665C1077.83 874.083 1076.9 870.186 1075.04 867.977C1073.3 865.767 1070.22 864.662 1065.8 864.662H1059.17V917H1039.98V794.878ZM1066.15 847.216C1069.98 847.216 1072.83 846.227 1074.69 844.25C1076.67 842.273 1077.66 838.958 1077.66 834.306V824.885C1077.66 820.465 1076.85 817.267 1075.22 815.289C1073.71 813.312 1071.26 812.324 1067.89 812.324H1059.17V847.216H1066.15ZM1138.28 794.878H1166.72C1176.6 794.878 1183.81 797.204 1188.35 801.856C1192.89 806.392 1195.15 813.429 1195.15 822.966V830.468C1195.15 843.145 1190.97 851.17 1182.59 854.543V854.892C1187.25 856.288 1190.5 859.137 1192.36 863.441C1194.34 867.744 1195.33 873.501 1195.33 880.712V902.171C1195.33 905.66 1195.45 908.51 1195.68 910.719C1195.91 912.813 1196.49 914.906 1197.42 917H1177.88C1177.19 915.023 1176.72 913.162 1176.49 911.417C1176.25 909.673 1176.14 906.532 1176.14 901.996V879.665C1176.14 874.083 1175.21 870.186 1173.35 867.977C1171.6 865.767 1168.52 864.662 1164.1 864.662H1157.47V917H1138.28V794.878ZM1164.45 847.216C1168.29 847.216 1171.14 846.227 1173 844.25C1174.98 842.273 1175.96 838.958 1175.96 834.306V824.885C1175.96 820.465 1175.15 817.267 1173.52 815.289C1172.01 813.312 1169.57 812.324 1166.19 812.324H1157.47V847.216H1164.45ZM1208.64 794.878H1260.98V812.324H1227.83V844.599H1254.18V862.045H1227.83V899.554H1260.98V917H1208.64V794.878ZM1272.02 794.878H1291.21V899.554H1322.79V917H1272.02V794.878ZM1331.99 794.878H1351.18V917H1331.99V794.878ZM1392.77 918.745C1383.47 918.745 1376.37 916.128 1371.49 910.894C1366.6 905.544 1364.16 897.926 1364.16 888.04V823.838C1364.16 813.952 1366.6 806.392 1371.49 801.158C1376.37 795.808 1383.47 793.133 1392.77 793.133C1402.08 793.133 1409.17 795.808 1414.06 801.158C1418.94 806.392 1421.38 813.952 1421.38 823.838V834.306H1403.24V822.617C1403.24 814.592 1399.93 810.579 1393.3 810.579C1386.67 810.579 1383.35 814.592 1383.35 822.617V889.435C1383.35 897.344 1386.67 901.299 1393.3 901.299C1399.93 901.299 1403.24 897.344 1403.24 889.435V865.534H1393.64V848.088H1421.38V888.04C1421.38 897.926 1418.94 905.544 1414.06 910.894C1409.17 916.128 1402.08 918.745 1392.77 918.745ZM1433.71 794.878H1452.9V917H1433.71V794.878ZM1495.01 918.745C1485.59 918.745 1478.38 916.07 1473.37 910.719C1468.37 905.369 1465.87 897.809 1465.87 888.04V823.838C1465.87 814.068 1468.37 806.508 1473.37 801.158C1478.38 795.808 1485.59 793.133 1495.01 793.133C1504.43 793.133 1511.64 795.808 1516.64 801.158C1521.64 806.508 1524.14 814.068 1524.14 823.838V888.04C1524.14 897.809 1521.64 905.369 1516.64 910.719C1511.64 916.07 1504.43 918.745 1495.01 918.745ZM1495.01 901.299C1501.64 901.299 1504.95 897.286 1504.95 889.261V822.617C1504.95 814.592 1501.64 810.579 1495.01 810.579C1488.38 810.579 1485.06 814.592 1485.06 822.617V889.261C1485.06 897.286 1488.38 901.299 1495.01 901.299ZM1565.03 918.745C1555.73 918.745 1548.64 916.128 1543.75 910.894C1538.87 905.544 1536.42 897.926 1536.42 888.04V794.878H1555.61V889.435C1555.61 893.622 1556.43 896.646 1558.06 898.507C1559.8 900.368 1562.24 901.299 1565.38 901.299C1568.52 901.299 1570.91 900.368 1572.54 898.507C1574.28 896.646 1575.15 893.622 1575.15 889.435V794.878H1593.65V888.04C1593.65 897.926 1591.2 905.544 1586.32 910.894C1581.43 916.128 1574.34 918.745 1565.03 918.745ZM1632.26 918.745C1622.96 918.745 1615.92 916.128 1611.15 910.894C1606.38 905.544 1604 897.926 1604 888.04V881.061H1622.14V889.435C1622.14 897.344 1625.46 901.299 1632.09 901.299C1635.34 901.299 1637.79 900.368 1639.41 898.507C1641.16 896.53 1642.03 893.39 1642.03 889.086C1642.03 883.969 1640.87 879.491 1638.54 875.653C1636.22 871.698 1631.91 866.988 1625.63 861.522C1617.72 854.543 1612.2 848.263 1609.06 842.68C1605.92 836.981 1604.35 830.584 1604.35 823.489C1604.35 813.836 1606.79 806.392 1611.68 801.158C1616.56 795.808 1623.65 793.133 1632.96 793.133C1642.15 793.133 1649.07 795.808 1653.72 801.158C1658.49 806.392 1660.87 813.952 1660.87 823.838V828.897H1642.73V822.617C1642.73 818.43 1641.92 815.406 1640.29 813.545C1638.66 811.568 1636.27 810.579 1633.13 810.579C1626.74 810.579 1623.54 814.475 1623.54 822.268C1623.54 826.688 1624.7 830.816 1627.03 834.655C1629.47 838.493 1633.83 843.145 1640.11 848.611C1648.14 855.59 1653.66 861.929 1656.69 867.628C1659.71 873.327 1661.22 880.014 1661.22 887.691C1661.22 897.693 1658.72 905.369 1653.72 910.719C1648.84 916.07 1641.68 918.745 1632.26 918.745ZM1700.17 794.878H1719.36V899.554H1750.93V917H1700.17V794.878ZM1760.14 794.878H1779.33V917H1760.14V794.878ZM1793.7 794.878H1822.66C1832.55 794.878 1839.76 797.204 1844.29 801.856C1848.83 806.392 1851.1 813.429 1851.1 822.966V827.851C1851.1 834.131 1850.05 839.249 1847.96 843.203C1845.98 847.158 1842.9 850.007 1838.71 851.752V852.101C1848.25 855.357 1853.02 863.848 1853.02 877.572V888.04C1853.02 897.46 1850.52 904.671 1845.52 909.673C1840.63 914.558 1833.42 917 1823.88 917H1793.7V794.878ZM1820.39 844.599C1824.23 844.599 1827.08 843.61 1828.94 841.633C1830.92 839.656 1831.91 836.341 1831.91 831.689V824.885C1831.91 820.465 1831.09 817.267 1829.46 815.289C1827.95 813.312 1825.51 812.324 1822.14 812.324H1812.89V844.599H1820.39ZM1823.88 899.554C1827.26 899.554 1829.76 898.682 1831.38 896.937C1833.01 895.076 1833.83 891.936 1833.83 887.516V876.874C1833.83 871.291 1832.84 867.453 1830.86 865.36C1829 863.15 1825.86 862.045 1821.44 862.045H1812.89V899.554H1823.88ZM1864.23 794.878H1916.57V812.324H1883.43V844.599H1909.77V862.045H1883.43V899.554H1916.57V917H1864.23V794.878ZM1927.61 794.878H1956.05C1965.94 794.878 1973.15 797.204 1977.68 801.856C1982.22 806.392 1984.49 813.429 1984.49 822.966V830.468C1984.49 843.145 1980.3 851.17 1971.93 854.543V854.892C1976.58 856.288 1979.83 859.137 1981.7 863.441C1983.67 867.744 1984.66 873.501 1984.66 880.712V902.171C1984.66 905.66 1984.78 908.51 1985.01 910.719C1985.24 912.813 1985.82 914.906 1986.75 917H1967.22C1966.52 915.023 1966.05 913.162 1965.82 911.417C1965.59 909.673 1965.47 906.532 1965.47 901.996V879.665C1965.47 874.083 1964.54 870.186 1962.68 867.977C1960.93 865.767 1957.85 864.662 1953.43 864.662H1946.8V917H1927.61V794.878ZM1953.78 847.216C1957.62 847.216 1960.47 846.227 1962.33 844.25C1964.31 842.273 1965.3 838.958 1965.3 834.306V824.885C1965.3 820.465 1964.48 817.267 1962.85 815.289C1961.34 813.312 1958.9 812.324 1955.53 812.324H1946.8V847.216H1953.78ZM2012.64 812.324H1992.58V794.878H2051.89V812.324H2031.83V917H2012.64V812.324ZM2079.49 865.011L2056.28 794.878H2076.69L2089.78 839.714H2090.13L2103.21 794.878H2121.88L2098.68 865.011V917H2079.49V865.011Z" fill="#BB8C3A"/>
<path d="M916.29 1048.08V1043.14H932.489V1048.08H916.29ZM926.478 1012.39L915.594 1057H909.898L920.782 1012.39H926.478ZM926.604 1012.39L937.488 1057H931.856L920.909 1012.39H926.604ZM967.076 1048.77C967.076 1047.72 966.696 1046.85 965.937 1046.18C965.177 1045.46 964.186 1044.83 962.963 1044.28C961.781 1043.69 960.516 1043.1 959.166 1042.51C957.858 1041.92 956.592 1041.24 955.369 1040.48C954.188 1039.68 953.218 1038.69 952.458 1037.51C951.699 1036.29 951.319 1034.81 951.319 1033.08C951.319 1033.08 951.488 1033.08 951.825 1033.08C952.205 1033.08 952.669 1033.08 953.218 1033.08C953.808 1033.08 954.378 1033.08 954.926 1033.08C955.475 1033.08 955.939 1033.08 956.318 1033.08C956.698 1033.08 956.888 1033.08 956.888 1033.08C956.888 1034.14 957.267 1035.02 958.027 1035.74C958.786 1036.41 959.756 1037.02 960.938 1037.57C962.161 1038.12 963.448 1038.71 964.798 1039.35C966.148 1039.94 967.413 1040.63 968.594 1041.43C969.776 1042.23 970.746 1043.23 971.505 1044.41C972.307 1045.55 972.708 1047 972.708 1048.77C972.708 1048.77 972.518 1048.77 972.138 1048.77C971.758 1048.77 971.273 1048.77 970.683 1048.77C970.134 1048.77 969.586 1048.77 969.037 1048.77C968.489 1048.77 968.025 1048.77 967.645 1048.77C967.266 1048.77 967.076 1048.77 967.076 1048.77ZM961.697 1057.95V1052.95C963.258 1052.95 964.545 1052.57 965.557 1051.81C966.57 1051.01 967.076 1050 967.076 1048.77H972.708C972.708 1050.55 972.222 1052.13 971.252 1053.52C970.324 1054.91 969.037 1056.01 967.392 1056.81C965.747 1057.57 963.849 1057.95 961.697 1057.95ZM951.319 1033.08C951.319 1031.35 951.741 1029.81 952.585 1028.46C953.471 1027.07 954.694 1025.99 956.255 1025.23C957.816 1024.43 959.546 1024.03 961.444 1024.03V1029.03C960.136 1029.03 959.039 1029.41 958.153 1030.17C957.31 1030.93 956.888 1031.9 956.888 1033.08H951.319ZM955.685 1047.44C955.896 1049.3 956.571 1050.69 957.71 1051.62C958.849 1052.51 960.178 1052.95 961.697 1052.95V1057.95C959.756 1057.95 957.964 1057.55 956.318 1056.75C954.673 1055.95 953.323 1054.83 952.268 1053.39C951.256 1051.96 950.623 1050.33 950.37 1048.52L955.685 1047.44ZM967.392 1034.54C967.181 1032.64 966.506 1031.25 965.367 1030.36C964.27 1029.47 962.963 1029.03 961.444 1029.03V1024.03C963.427 1024.03 965.22 1024.43 966.823 1025.23C968.426 1026.04 969.755 1027.15 970.809 1028.59C971.864 1029.98 972.518 1031.6 972.771 1033.46L967.392 1034.54ZM977.004 1056.94H982.763V1069.66H977.004V1056.94ZM982.763 1025.04V1057H977.004V1025.04H982.763ZM1000.54 1035.23V1046.81H994.786V1035.23H1000.54ZM994.786 1046.81H1000.54C1000.54 1048.92 1000.1 1050.82 999.215 1052.51C998.329 1054.19 997.106 1055.52 995.545 1056.49C994.026 1057.46 992.297 1057.95 990.356 1057.95L988.901 1052.82C990.63 1052.82 992.044 1052.28 993.14 1051.18C994.237 1050.04 994.786 1048.58 994.786 1046.81ZM980.231 1046.62H982.763C982.763 1048.48 983.332 1049.98 984.471 1051.12C985.61 1052.25 987.087 1052.82 988.901 1052.82L990.356 1057.95C988.416 1057.95 986.686 1057.46 985.167 1056.49C983.649 1055.48 982.446 1054.13 981.56 1052.44C980.674 1050.71 980.231 1048.77 980.231 1046.62ZM994.786 1035.23C994.786 1033.46 994.237 1032.03 993.14 1030.93C992.044 1029.79 990.63 1029.22 988.901 1029.22L990.356 1024.09C992.297 1024.09 994.026 1024.58 995.545 1025.55C997.106 1026.52 998.329 1027.85 999.215 1029.54C1000.1 1031.22 1000.54 1033.12 1000.54 1035.23H994.786ZM980.231 1035.36C980.231 1033.21 980.674 1031.29 981.56 1029.6C982.446 1027.87 983.649 1026.52 985.167 1025.55C986.686 1024.58 988.416 1024.09 990.356 1024.09L988.901 1029.22C987.087 1029.22 985.61 1029.79 984.471 1030.93C983.332 1032.07 982.763 1033.54 982.763 1035.36H980.231ZM1005.65 1042.76V1038.65H1027.22V1042.76H1005.65ZM1015.45 1058.01V1053.01H1015.77V1058.01H1015.45ZM1003.81 1045.67V1036.37H1009.57V1045.67H1003.81ZM1021.47 1038.65V1035.36H1027.22V1038.65H1021.47ZM1027.22 1035.36H1021.47C1021.47 1033.5 1020.9 1031.98 1019.76 1030.8C1018.66 1029.62 1017.23 1029.03 1015.45 1029.03V1024.09C1017.73 1024.09 1019.74 1024.58 1021.47 1025.55C1023.24 1026.52 1024.63 1027.87 1025.64 1029.6C1026.7 1031.29 1027.22 1033.21 1027.22 1035.36ZM1021.72 1047.51L1027.1 1048.58C1026.85 1050.4 1026.19 1052.02 1025.14 1053.46C1024.08 1054.89 1022.75 1056.01 1021.15 1056.81C1019.55 1057.61 1017.75 1058.01 1015.77 1058.01V1053.01C1017.29 1053.01 1018.6 1052.57 1019.69 1051.68C1020.83 1050.76 1021.51 1049.36 1021.72 1047.51ZM1003.81 1036.43C1003.81 1034.03 1004.32 1031.92 1005.33 1030.11C1006.38 1028.25 1007.78 1026.79 1009.51 1025.74C1011.28 1024.64 1013.28 1024.09 1015.52 1024.09V1029.03C1013.66 1029.03 1012.21 1029.68 1011.15 1030.99C1010.1 1032.26 1009.57 1034.07 1009.57 1036.43H1003.81ZM1003.81 1045.67H1009.57C1009.57 1047.99 1010.1 1049.81 1011.15 1051.12C1012.21 1052.38 1013.66 1053.01 1015.52 1053.01V1058.01C1013.28 1058.01 1011.28 1057.49 1009.51 1056.43C1007.78 1055.33 1006.38 1053.86 1005.33 1052C1004.32 1050.14 1003.81 1048.04 1003.81 1045.67ZM1030.55 1045.74V1036.31H1036.31V1045.74H1030.55ZM1030.55 1036.37C1030.55 1034.01 1031.05 1031.9 1032.07 1030.04C1033.12 1028.19 1034.51 1026.73 1036.24 1025.68C1038.01 1024.58 1040.02 1024.03 1042.25 1024.03V1029.03C1040.4 1029.03 1038.94 1029.66 1037.89 1030.93C1036.83 1032.19 1036.31 1034.01 1036.31 1036.37H1030.55ZM1048.14 1034.54C1047.93 1032.64 1047.25 1031.25 1046.11 1030.36C1045.02 1029.47 1043.71 1029.03 1042.19 1029.03V1024.03C1044.17 1024.03 1045.97 1024.43 1047.57 1025.23C1049.17 1026.04 1050.5 1027.15 1051.56 1028.59C1052.61 1029.98 1053.26 1031.6 1053.52 1033.46L1048.14 1034.54ZM1030.55 1045.67H1036.31C1036.31 1047.99 1036.83 1049.81 1037.89 1051.12C1038.94 1052.38 1040.4 1053.01 1042.25 1053.01V1058.01C1040.02 1058.01 1038.01 1057.49 1036.24 1056.43C1034.51 1055.33 1033.12 1053.86 1032.07 1052C1031.05 1050.14 1030.55 1048.04 1030.55 1045.67ZM1048.14 1047.51L1053.52 1048.58C1053.26 1050.4 1052.61 1052.02 1051.56 1053.46C1050.5 1054.89 1049.17 1056.01 1047.57 1056.81C1045.97 1057.61 1044.17 1058.01 1042.19 1058.01V1053.01C1043.71 1053.01 1045.02 1052.57 1046.11 1051.68C1047.25 1050.76 1047.93 1049.36 1048.14 1047.51ZM1057.61 1057V1025.04H1063.37V1057H1057.61ZM1060.46 1020.8C1059.41 1020.8 1058.52 1020.45 1057.8 1019.73C1057.09 1019.01 1056.73 1018.13 1056.73 1017.07C1056.73 1016.02 1057.09 1015.13 1057.8 1014.41C1058.52 1013.65 1059.41 1013.27 1060.46 1013.27C1061.52 1013.27 1062.4 1013.65 1063.12 1014.41C1063.88 1015.13 1064.26 1016.02 1064.26 1017.07C1064.26 1018.13 1063.88 1019.01 1063.12 1019.73C1062.4 1020.45 1061.52 1020.8 1060.46 1020.8ZM1086.94 1057V1035.23H1092.7V1057H1086.94ZM1079.22 1057.95L1079.67 1053.2C1081.19 1053.2 1082.47 1052.82 1083.53 1052.06C1084.62 1051.3 1085.47 1050.19 1086.06 1048.71C1086.65 1047.23 1086.94 1045.48 1086.94 1043.46L1089.79 1043.33C1089.79 1046.2 1089.33 1048.73 1088.4 1050.93C1087.47 1053.12 1086.21 1054.85 1084.6 1056.11C1083.04 1057.34 1081.25 1057.95 1079.22 1057.95ZM1079.22 1057.95C1077.33 1057.95 1075.6 1057.51 1074.04 1056.62C1072.47 1055.73 1071.23 1054.53 1070.3 1053.01C1069.37 1051.45 1068.91 1049.72 1068.91 1047.82L1074.35 1047.63C1074.35 1049.24 1074.88 1050.57 1075.93 1051.62C1077.03 1052.68 1078.28 1053.2 1079.67 1053.2L1079.22 1057.95ZM1068.91 1047.82C1068.91 1045.84 1069.4 1044.11 1070.37 1042.64C1071.38 1041.12 1072.73 1039.91 1074.42 1039.03C1076.1 1038.14 1078.02 1037.7 1080.17 1037.7L1080.49 1042.13C1078.72 1042.13 1077.24 1042.66 1076.06 1043.71C1074.92 1044.72 1074.35 1046.03 1074.35 1047.63L1068.91 1047.82ZM1080.49 1042.13L1080.17 1037.7H1089.92V1042.13H1080.49ZM1086.94 1043.46V1035.3H1089.79V1043.33L1086.94 1043.46ZM1092.7 1035.36H1086.94C1086.94 1033.5 1086.38 1031.98 1085.24 1030.8C1084.14 1029.62 1082.7 1029.03 1080.93 1029.03V1024.09C1083.21 1024.09 1085.22 1024.58 1086.94 1025.55C1088.72 1026.52 1090.11 1027.87 1091.12 1029.6C1092.18 1031.29 1092.7 1033.21 1092.7 1035.36ZM1074.98 1034.6L1069.67 1033.52C1069.92 1031.62 1070.56 1029.98 1071.57 1028.59C1072.62 1027.2 1073.95 1026.1 1075.55 1025.3C1077.2 1024.5 1079.01 1024.09 1081 1024.09V1029.03C1079.44 1029.03 1078.09 1029.49 1076.95 1030.42C1075.85 1031.31 1075.2 1032.7 1074.98 1034.6ZM1098.2 1057V1011.44H1103.96V1057H1098.2ZM1111.27 1057V1025.04H1117.02V1057H1111.27ZM1114.11 1020.8C1113.06 1020.8 1112.17 1020.45 1111.46 1019.73C1110.74 1019.01 1110.38 1018.13 1110.38 1017.07C1110.38 1016.02 1110.74 1015.13 1111.46 1014.41C1112.17 1013.65 1113.06 1013.27 1114.11 1013.27C1115.17 1013.27 1116.05 1013.65 1116.77 1014.41C1117.53 1015.13 1117.91 1016.02 1117.91 1017.07C1117.91 1018.13 1117.53 1019.01 1116.77 1019.73C1116.05 1020.45 1115.17 1020.8 1114.11 1020.8ZM1123.19 1051.87L1137.43 1030.11H1143.76L1129.59 1051.87H1123.19ZM1123.19 1057V1051.87H1143.76V1057H1123.19ZM1123.19 1030.11V1025.04H1143.76V1030.11H1123.19ZM1149.5 1042.76V1038.65H1171.07V1042.76H1149.5ZM1159.3 1058.01V1053.01H1159.62V1058.01H1159.3ZM1147.66 1045.67V1036.37H1153.42V1045.67H1147.66ZM1165.32 1038.65V1035.36H1171.07V1038.65H1165.32ZM1171.07 1035.36H1165.32C1165.32 1033.5 1164.75 1031.98 1163.61 1030.8C1162.51 1029.62 1161.08 1029.03 1159.3 1029.03V1024.09C1161.58 1024.09 1163.59 1024.58 1165.32 1025.55C1167.09 1026.52 1168.48 1027.87 1169.49 1029.6C1170.55 1031.29 1171.07 1033.21 1171.07 1035.36ZM1165.57 1047.51L1170.95 1048.58C1170.69 1050.4 1170.04 1052.02 1168.99 1053.46C1167.93 1054.89 1166.6 1056.01 1165 1056.81C1163.4 1057.61 1161.6 1058.01 1159.62 1058.01V1053.01C1161.14 1053.01 1162.45 1052.57 1163.54 1051.68C1164.68 1050.76 1165.36 1049.36 1165.57 1047.51ZM1147.66 1036.43C1147.66 1034.03 1148.17 1031.92 1149.18 1030.11C1150.23 1028.25 1151.63 1026.79 1153.36 1025.74C1155.13 1024.64 1157.13 1024.09 1159.37 1024.09V1029.03C1157.51 1029.03 1156.06 1029.68 1155 1030.99C1153.95 1032.26 1153.42 1034.07 1153.42 1036.43H1147.66ZM1147.66 1045.67H1153.42C1153.42 1047.99 1153.95 1049.81 1155 1051.12C1156.06 1052.38 1157.51 1053.01 1159.37 1053.01V1058.01C1157.13 1058.01 1155.13 1057.49 1153.36 1056.43C1151.63 1055.33 1150.23 1053.86 1149.18 1052C1148.17 1050.14 1147.66 1048.04 1147.66 1045.67ZM1197.94 1025.11H1192.18V1012.39H1197.94V1025.11ZM1192.18 1057V1025.04H1197.94V1057H1192.18ZM1174.4 1046.81V1035.23H1180.15V1046.81H1174.4ZM1180.15 1035.23H1174.4C1174.4 1033.12 1174.84 1031.22 1175.73 1029.54C1176.61 1027.85 1177.81 1026.52 1179.33 1025.55C1180.89 1024.58 1182.66 1024.09 1184.65 1024.09L1186.1 1029.22C1184.37 1029.22 1182.94 1029.79 1181.8 1030.93C1180.7 1032.03 1180.15 1033.46 1180.15 1035.23ZM1194.71 1035.36H1192.18C1192.18 1033.54 1191.61 1032.07 1190.47 1030.93C1189.33 1029.79 1187.87 1029.22 1186.1 1029.22L1184.65 1024.09C1186.55 1024.09 1188.25 1024.58 1189.77 1025.55C1191.33 1026.52 1192.54 1027.87 1193.38 1029.6C1194.27 1031.29 1194.71 1033.21 1194.71 1035.36ZM1180.15 1046.81C1180.15 1048.58 1180.7 1050.04 1181.8 1051.18C1182.94 1052.28 1184.37 1052.82 1186.1 1052.82L1184.65 1057.95C1182.66 1057.95 1180.89 1057.46 1179.33 1056.49C1177.81 1055.52 1176.61 1054.19 1175.73 1052.51C1174.84 1050.82 1174.4 1048.92 1174.4 1046.81H1180.15ZM1194.71 1046.62C1194.71 1048.77 1194.27 1050.71 1193.38 1052.44C1192.54 1054.13 1191.33 1055.48 1189.77 1056.49C1188.25 1057.46 1186.55 1057.95 1184.65 1057.95L1186.1 1052.82C1187.87 1052.82 1189.33 1052.25 1190.47 1051.12C1191.61 1049.98 1192.18 1048.48 1192.18 1046.62H1194.71ZM1214.9 1057V1025.04H1220.66V1057H1214.9ZM1217.75 1020.8C1216.69 1020.8 1215.8 1020.45 1215.09 1019.73C1214.37 1019.01 1214.01 1018.13 1214.01 1017.07C1214.01 1016.02 1214.37 1015.13 1215.09 1014.41C1215.8 1013.65 1216.69 1013.27 1217.75 1013.27C1218.8 1013.27 1219.69 1013.65 1220.4 1014.41C1221.16 1015.13 1221.54 1016.02 1221.54 1017.07C1221.54 1018.13 1221.16 1019.01 1220.4 1019.73C1219.69 1020.45 1218.8 1020.8 1217.75 1020.8ZM1227.33 1057V1025.04H1233.09V1057H1227.33ZM1245.11 1057V1035.23H1250.87V1057H1245.11ZM1245.11 1035.23C1245.11 1033.46 1244.56 1032.03 1243.46 1030.93C1242.37 1029.79 1240.95 1029.22 1239.23 1029.22L1240.68 1024.09C1242.62 1024.09 1244.35 1024.58 1245.87 1025.55C1247.43 1026.52 1248.65 1027.85 1249.54 1029.54C1250.43 1031.22 1250.87 1033.12 1250.87 1035.23H1245.11ZM1230.56 1035.36C1230.56 1033.21 1231 1031.29 1231.88 1029.6C1232.77 1027.87 1233.97 1026.52 1235.49 1025.55C1237.01 1024.58 1238.74 1024.09 1240.68 1024.09L1239.23 1029.22C1237.41 1029.22 1235.93 1029.79 1234.8 1030.93C1233.66 1032.07 1233.09 1033.54 1233.09 1035.36H1230.56ZM1256.35 1057V1025.04H1262.11V1057H1256.35ZM1259.2 1020.8C1258.14 1020.8 1257.26 1020.45 1256.54 1019.73C1255.82 1019.01 1255.46 1018.13 1255.46 1017.07C1255.46 1016.02 1255.82 1015.13 1256.54 1014.41C1257.26 1013.65 1258.14 1013.27 1259.2 1013.27C1260.25 1013.27 1261.14 1013.65 1261.86 1014.41C1262.62 1015.13 1262.99 1016.02 1262.99 1017.07C1262.99 1018.13 1262.62 1019.01 1261.86 1019.73C1261.14 1020.45 1260.25 1020.8 1259.2 1020.8ZM1270.87 1047.32V1012.32L1276.63 1012.39V1047.32H1270.87ZM1267.2 1029.79V1025.04H1284.6V1029.79H1267.2ZM1270.87 1047.25H1276.63C1276.63 1048.48 1276.8 1049.51 1277.13 1050.36C1277.47 1051.2 1277.96 1051.85 1278.59 1052.32C1279.22 1052.74 1279.98 1052.95 1280.87 1052.95L1280.36 1057.95C1277.41 1057.95 1275.09 1057.02 1273.4 1055.16C1271.71 1053.27 1270.87 1050.63 1270.87 1047.25ZM1283.84 1051.87L1286.12 1055.99C1285.28 1056.62 1284.35 1057.11 1283.34 1057.44C1282.37 1057.78 1281.37 1057.95 1280.36 1057.95L1280.87 1052.95C1281.42 1052.95 1281.92 1052.87 1282.39 1052.7C1282.89 1052.49 1283.38 1052.21 1283.84 1051.87ZM1289.89 1057V1025.04H1295.65V1057H1289.89ZM1292.74 1020.8C1291.69 1020.8 1290.8 1020.45 1290.08 1019.73C1289.37 1019.01 1289.01 1018.13 1289.01 1017.07C1289.01 1016.02 1289.37 1015.13 1290.08 1014.41C1290.8 1013.65 1291.69 1013.27 1292.74 1013.27C1293.8 1013.27 1294.68 1013.65 1295.4 1014.41C1296.16 1015.13 1296.54 1016.02 1296.54 1017.07C1296.54 1018.13 1296.16 1019.01 1295.4 1019.73C1294.68 1020.45 1293.8 1020.8 1292.74 1020.8ZM1319.22 1057V1035.23H1324.98V1057H1319.22ZM1311.5 1057.95L1311.95 1053.2C1313.47 1053.2 1314.75 1052.82 1315.81 1052.06C1316.9 1051.3 1317.75 1050.19 1318.34 1048.71C1318.93 1047.23 1319.22 1045.48 1319.22 1043.46L1322.07 1043.33C1322.07 1046.2 1321.61 1048.73 1320.68 1050.93C1319.75 1053.12 1318.49 1054.85 1316.88 1056.11C1315.32 1057.34 1313.53 1057.95 1311.5 1057.95ZM1311.5 1057.95C1309.61 1057.95 1307.88 1057.51 1306.32 1056.62C1304.75 1055.73 1303.51 1054.53 1302.58 1053.01C1301.65 1051.45 1301.19 1049.72 1301.19 1047.82L1306.63 1047.63C1306.63 1049.24 1307.16 1050.57 1308.21 1051.62C1309.31 1052.68 1310.56 1053.2 1311.95 1053.2L1311.5 1057.95ZM1301.19 1047.82C1301.19 1045.84 1301.68 1044.11 1302.65 1042.64C1303.66 1041.12 1305.01 1039.91 1306.7 1039.03C1308.38 1038.14 1310.3 1037.7 1312.45 1037.7L1312.77 1042.13C1311 1042.13 1309.52 1042.66 1308.34 1043.71C1307.2 1044.72 1306.63 1046.03 1306.63 1047.63L1301.19 1047.82ZM1312.77 1042.13L1312.45 1037.7H1322.2V1042.13H1312.77ZM1319.22 1043.46V1035.3H1322.07V1043.33L1319.22 1043.46ZM1324.98 1035.36H1319.22C1319.22 1033.5 1318.66 1031.98 1317.52 1030.8C1316.42 1029.62 1314.98 1029.03 1313.21 1029.03V1024.09C1315.49 1024.09 1317.49 1024.58 1319.22 1025.55C1321 1026.52 1322.39 1027.87 1323.4 1029.6C1324.46 1031.29 1324.98 1033.21 1324.98 1035.36ZM1307.26 1034.6L1301.95 1033.52C1302.2 1031.62 1302.84 1029.98 1303.85 1028.59C1304.9 1027.2 1306.23 1026.1 1307.83 1025.3C1309.48 1024.5 1311.29 1024.09 1313.28 1024.09V1029.03C1311.72 1029.03 1310.37 1029.49 1309.23 1030.42C1308.13 1031.31 1307.48 1032.7 1307.26 1034.6ZM1331.94 1047.32V1012.32L1337.7 1012.39V1047.32H1331.94ZM1328.27 1029.79V1025.04H1345.67V1029.79H1328.27ZM1331.94 1047.25H1337.7C1337.7 1048.48 1337.86 1049.51 1338.2 1050.36C1338.54 1051.2 1339.02 1051.85 1339.66 1052.32C1340.29 1052.74 1341.05 1052.95 1341.93 1052.95L1341.43 1057.95C1338.48 1057.95 1336.16 1057.02 1334.47 1055.16C1332.78 1053.27 1331.94 1050.63 1331.94 1047.25ZM1344.91 1051.87L1347.19 1055.99C1346.34 1056.62 1345.42 1057.11 1344.4 1057.44C1343.43 1057.78 1342.44 1057.95 1341.43 1057.95L1341.93 1052.95C1342.48 1052.95 1342.99 1052.87 1343.45 1052.7C1343.96 1052.49 1344.45 1052.21 1344.91 1051.87ZM1350.96 1057V1025.04H1356.72V1057H1350.96ZM1353.81 1020.8C1352.75 1020.8 1351.87 1020.45 1351.15 1019.73C1350.43 1019.01 1350.07 1018.13 1350.07 1017.07C1350.07 1016.02 1350.43 1015.13 1351.15 1014.41C1351.87 1013.65 1352.75 1013.27 1353.81 1013.27C1354.86 1013.27 1355.75 1013.65 1356.47 1014.41C1357.23 1015.13 1357.6 1016.02 1357.6 1017.07C1357.6 1018.13 1357.23 1019.01 1356.47 1019.73C1355.75 1020.45 1354.86 1020.8 1353.81 1020.8ZM1372.44 1057L1382.31 1025.04H1388.07L1377.76 1057H1372.44ZM1371.87 1057L1361.49 1025.04H1367.25L1377.12 1057H1371.87ZM1391.05 1042.76V1038.65H1412.62V1042.76H1391.05ZM1400.85 1058.01V1053.01H1401.17V1058.01H1400.85ZM1389.21 1045.67V1036.37H1394.97V1045.67H1389.21ZM1406.87 1038.65V1035.36H1412.62V1038.65H1406.87ZM1412.62 1035.36H1406.87C1406.87 1033.5 1406.3 1031.98 1405.16 1030.8C1404.06 1029.62 1402.63 1029.03 1400.85 1029.03V1024.09C1403.13 1024.09 1405.14 1024.58 1406.87 1025.55C1408.64 1026.52 1410.03 1027.87 1411.04 1029.6C1412.1 1031.29 1412.62 1033.21 1412.62 1035.36ZM1407.12 1047.51L1412.5 1048.58C1412.24 1050.4 1411.59 1052.02 1410.54 1053.46C1409.48 1054.89 1408.15 1056.01 1406.55 1056.81C1404.95 1057.61 1403.15 1058.01 1401.17 1058.01V1053.01C1402.69 1053.01 1404 1052.57 1405.09 1051.68C1406.23 1050.76 1406.91 1049.36 1407.12 1047.51ZM1389.21 1036.43C1389.21 1034.03 1389.72 1031.92 1390.73 1030.11C1391.78 1028.25 1393.18 1026.79 1394.91 1025.74C1396.68 1024.64 1398.68 1024.09 1400.92 1024.09V1029.03C1399.06 1029.03 1397.61 1029.68 1396.55 1030.99C1395.5 1032.26 1394.97 1034.07 1394.97 1036.43H1389.21ZM1389.21 1045.67H1394.97C1394.97 1047.99 1395.5 1049.81 1396.55 1051.12C1397.61 1052.38 1399.06 1053.01 1400.92 1053.01V1058.01C1398.68 1058.01 1396.68 1057.49 1394.91 1056.43C1393.18 1055.33 1391.78 1053.86 1390.73 1052C1389.72 1050.14 1389.21 1048.04 1389.21 1045.67ZM1443.62 1045.67V1036.37H1449.38V1045.67H1443.62ZM1425.84 1045.67V1036.37H1431.6V1045.67H1425.84ZM1437.42 1029.09V1024.09H1437.8V1029.09H1437.42ZM1437.42 1057.95V1052.95H1437.8V1057.95H1437.42ZM1425.84 1036.43C1425.84 1034.07 1426.35 1031.96 1427.36 1030.11C1428.42 1028.25 1429.81 1026.79 1431.54 1025.74C1433.31 1024.64 1435.31 1024.09 1437.55 1024.09V1029.09C1435.69 1029.09 1434.24 1029.73 1433.18 1030.99C1432.13 1032.26 1431.6 1034.07 1431.6 1036.43H1425.84ZM1449.38 1036.43H1443.62C1443.62 1034.07 1443.1 1032.26 1442.04 1030.99C1441.03 1029.73 1439.57 1029.09 1437.68 1029.09V1024.09C1439.91 1024.09 1441.89 1024.64 1443.62 1025.74C1445.4 1026.79 1446.79 1028.25 1447.8 1030.11C1448.86 1031.96 1449.38 1034.07 1449.38 1036.43ZM1425.84 1045.61H1431.6C1431.6 1047.93 1432.13 1049.74 1433.18 1051.05C1434.24 1052.32 1435.69 1052.95 1437.55 1052.95V1057.95C1435.31 1057.95 1433.31 1057.42 1431.54 1056.37C1429.81 1055.27 1428.42 1053.79 1427.36 1051.94C1426.35 1050.08 1425.84 1047.97 1425.84 1045.61ZM1449.38 1045.61C1449.38 1047.97 1448.86 1050.08 1447.8 1051.94C1446.79 1053.79 1445.4 1055.27 1443.62 1056.37C1441.89 1057.42 1439.91 1057.95 1437.68 1057.95V1052.95C1439.57 1052.95 1441.03 1052.32 1442.04 1051.05C1443.1 1049.74 1443.62 1047.93 1443.62 1045.61H1449.38ZM1455.11 1057V1022.07H1460.87V1057H1455.11ZM1451.44 1029.79V1025.04H1468.65V1029.79H1451.44ZM1455.11 1022.07C1455.11 1018.74 1455.95 1016.14 1457.64 1014.29C1459.33 1012.39 1461.65 1011.44 1464.6 1011.44L1465.1 1016.37C1464.22 1016.37 1463.46 1016.61 1462.83 1017.07C1462.19 1017.53 1461.71 1018.19 1461.37 1019.03C1461.03 1019.88 1460.87 1020.89 1460.87 1022.07H1455.11ZM1468.08 1017.45C1467.61 1017.11 1467.13 1016.86 1466.62 1016.69C1466.16 1016.48 1465.65 1016.37 1465.1 1016.37L1464.6 1011.44C1465.61 1011.44 1466.6 1011.59 1467.57 1011.88C1468.59 1012.18 1469.51 1012.68 1470.36 1013.4L1468.08 1017.45ZM1485.64 1047.32V1012.32L1491.39 1012.39V1047.32H1485.64ZM1481.97 1029.79V1025.04H1499.37V1029.79H1481.97ZM1485.64 1047.25H1491.39C1491.39 1048.48 1491.56 1049.51 1491.9 1050.36C1492.24 1051.2 1492.72 1051.85 1493.36 1052.32C1493.99 1052.74 1494.75 1052.95 1495.63 1052.95L1495.13 1057.95C1492.18 1057.95 1489.86 1057.02 1488.17 1055.16C1486.48 1053.27 1485.64 1050.63 1485.64 1047.25ZM1498.61 1051.87L1500.89 1055.99C1500.04 1056.62 1499.12 1057.11 1498.1 1057.44C1497.13 1057.78 1496.14 1057.95 1495.13 1057.95L1495.63 1052.95C1496.18 1052.95 1496.69 1052.87 1497.15 1052.7C1497.66 1052.49 1498.14 1052.21 1498.61 1051.87ZM1504.03 1057V1025.04H1509.79V1057H1504.03ZM1521.81 1057V1035.23H1527.57V1057H1521.81ZM1521.81 1035.23C1521.81 1033.46 1521.26 1032.03 1520.16 1030.93C1519.07 1029.79 1517.65 1029.22 1515.92 1029.22L1517.38 1024.09C1519.32 1024.09 1521.05 1024.58 1522.57 1025.55C1524.13 1026.52 1525.35 1027.85 1526.24 1029.54C1527.12 1031.22 1527.57 1033.12 1527.57 1035.23H1521.81ZM1507.25 1035.36C1507.25 1033.21 1507.7 1031.29 1508.58 1029.6C1509.47 1027.87 1510.67 1026.52 1512.19 1025.55C1513.71 1024.58 1515.44 1024.09 1517.38 1024.09L1515.92 1029.22C1514.11 1029.22 1512.63 1029.79 1511.49 1030.93C1510.36 1032.07 1509.79 1033.54 1509.79 1035.36H1507.25ZM1504.03 1057V1011.44H1509.79V1057H1504.03ZM1532.67 1042.76V1038.65H1554.25V1042.76H1532.67ZM1542.48 1058.01V1053.01H1542.79V1058.01H1542.48ZM1530.83 1045.67V1036.37H1536.59V1045.67H1530.83ZM1548.49 1038.65V1035.36H1554.25V1038.65H1548.49ZM1554.25 1035.36H1548.49C1548.49 1033.5 1547.92 1031.98 1546.78 1030.8C1545.68 1029.62 1544.25 1029.03 1542.48 1029.03V1024.09C1544.76 1024.09 1546.76 1024.58 1548.49 1025.55C1550.26 1026.52 1551.65 1027.87 1552.67 1029.6C1553.72 1031.29 1554.25 1033.21 1554.25 1035.36ZM1548.74 1047.51L1554.12 1048.58C1553.87 1050.4 1553.21 1052.02 1552.16 1053.46C1551.11 1054.89 1549.78 1056.01 1548.17 1056.81C1546.57 1057.61 1544.78 1058.01 1542.79 1058.01V1053.01C1544.31 1053.01 1545.62 1052.57 1546.72 1051.68C1547.86 1050.76 1548.53 1049.36 1548.74 1047.51ZM1530.83 1036.43C1530.83 1034.03 1531.34 1031.92 1532.35 1030.11C1533.41 1028.25 1534.8 1026.79 1536.53 1025.74C1538.3 1024.64 1540.31 1024.09 1542.54 1024.09V1029.03C1540.69 1029.03 1539.23 1029.68 1538.18 1030.99C1537.12 1032.26 1536.59 1034.07 1536.59 1036.43H1530.83ZM1530.83 1045.67H1536.59C1536.59 1047.99 1537.12 1049.81 1538.18 1051.12C1539.23 1052.38 1540.69 1053.01 1542.54 1053.01V1058.01C1540.31 1058.01 1538.3 1057.49 1536.53 1056.43C1534.8 1055.33 1533.41 1053.86 1532.35 1052C1531.34 1050.14 1530.83 1048.04 1530.83 1045.67ZM1572.91 1057V1052H1589.17V1057H1572.91ZM1569.05 1057V1012.39H1574.81V1057H1569.05ZM1615.27 1025.04V1057H1609.51V1025.04H1615.27ZM1597.49 1025.04V1046.81H1591.73V1025.04H1597.49ZM1597.49 1046.81C1597.49 1048.58 1598.04 1050.04 1599.13 1051.18C1600.27 1052.28 1601.71 1052.82 1603.44 1052.82L1601.98 1057.95C1600 1057.95 1598.23 1057.46 1596.67 1056.49C1595.15 1055.52 1593.95 1054.19 1593.06 1052.51C1592.17 1050.82 1591.73 1048.92 1591.73 1046.81H1597.49ZM1612.04 1046.62C1612.04 1048.77 1611.6 1050.71 1610.72 1052.44C1609.87 1054.13 1608.67 1055.48 1607.11 1056.49C1605.59 1057.46 1603.88 1057.95 1601.98 1057.95L1603.44 1052.82C1605.21 1052.82 1606.67 1052.25 1607.8 1051.12C1608.94 1049.98 1609.51 1048.48 1609.51 1046.62H1612.04ZM1623.34 1047.32V1012.32L1629.1 1012.39V1047.32H1623.34ZM1619.67 1029.79V1025.04H1637.07V1029.79H1619.67ZM1623.34 1047.25H1629.1C1629.1 1048.48 1629.27 1049.51 1629.61 1050.36C1629.95 1051.2 1630.43 1051.85 1631.06 1052.32C1631.7 1052.74 1632.46 1052.95 1633.34 1052.95L1632.84 1057.95C1629.88 1057.95 1627.56 1057.02 1625.87 1055.16C1624.19 1053.27 1623.34 1050.63 1623.34 1047.25ZM1636.32 1051.87L1638.59 1055.99C1637.75 1056.62 1636.82 1057.11 1635.81 1057.44C1634.84 1057.78 1633.85 1057.95 1632.84 1057.95L1633.34 1052.95C1633.89 1052.95 1634.4 1052.87 1634.86 1052.7C1635.37 1052.49 1635.85 1052.21 1636.32 1051.87ZM1641.73 1057V1025.04H1647.49V1057H1641.73ZM1659.52 1057V1035.23H1665.27V1057H1659.52ZM1659.52 1035.23C1659.52 1033.46 1658.97 1032.03 1657.87 1030.93C1656.77 1029.79 1655.36 1029.22 1653.63 1029.22L1655.09 1024.09C1657.03 1024.09 1658.76 1024.58 1660.28 1025.55C1661.84 1026.52 1663.06 1027.85 1663.95 1029.54C1664.83 1031.22 1665.27 1033.12 1665.27 1035.23H1659.52ZM1644.96 1035.36C1644.96 1033.21 1645.4 1031.29 1646.29 1029.6C1647.18 1027.87 1648.38 1026.52 1649.9 1025.55C1651.42 1024.58 1653.15 1024.09 1655.09 1024.09L1653.63 1029.22C1651.82 1029.22 1650.34 1029.79 1649.2 1030.93C1648.06 1032.07 1647.49 1033.54 1647.49 1035.36H1644.96ZM1641.73 1057V1011.44H1647.49V1057H1641.73ZM1670.38 1042.76V1038.65H1691.95V1042.76H1670.38ZM1680.19 1058.01V1053.01H1680.5V1058.01H1680.19ZM1668.54 1045.67V1036.37H1674.3V1045.67H1668.54ZM1686.2 1038.65V1035.36H1691.95V1038.65H1686.2ZM1691.95 1035.36H1686.2C1686.2 1033.5 1685.63 1031.98 1684.49 1030.8C1683.39 1029.62 1681.96 1029.03 1680.19 1029.03V1024.09C1682.46 1024.09 1684.47 1024.58 1686.2 1025.55C1687.97 1026.52 1689.36 1027.87 1690.37 1029.6C1691.43 1031.29 1691.95 1033.21 1691.95 1035.36ZM1686.45 1047.51L1691.83 1048.58C1691.58 1050.4 1690.92 1052.02 1689.87 1053.46C1688.81 1054.89 1687.48 1056.01 1685.88 1056.81C1684.28 1057.61 1682.48 1058.01 1680.5 1058.01V1053.01C1682.02 1053.01 1683.33 1052.57 1684.42 1051.68C1685.56 1050.76 1686.24 1049.36 1686.45 1047.51ZM1668.54 1036.43C1668.54 1034.03 1669.05 1031.92 1670.06 1030.11C1671.11 1028.25 1672.51 1026.79 1674.24 1025.74C1676.01 1024.64 1678.01 1024.09 1680.25 1024.09V1029.03C1678.39 1029.03 1676.94 1029.68 1675.88 1030.99C1674.83 1032.26 1674.3 1034.07 1674.3 1036.43H1668.54ZM1668.54 1045.67H1674.3C1674.3 1047.99 1674.83 1049.81 1675.88 1051.12C1676.94 1052.38 1678.39 1053.01 1680.25 1053.01V1058.01C1678.01 1058.01 1676.01 1057.49 1674.24 1056.43C1672.51 1055.33 1671.11 1053.86 1670.06 1052C1669.05 1050.14 1668.54 1048.04 1668.54 1045.67ZM1696.23 1057V1025.04H1701.98V1057H1696.23ZM1699.39 1035.61C1699.39 1033.46 1699.75 1031.54 1700.47 1029.85C1701.18 1028.12 1702.15 1026.77 1703.38 1025.8C1704.64 1024.83 1706.03 1024.35 1707.55 1024.35L1707.05 1029.73C1705.57 1029.73 1704.35 1030.3 1703.38 1031.44C1702.45 1032.53 1701.98 1033.92 1701.98 1035.61H1699.39ZM1710.84 1031.18C1710.34 1030.76 1709.73 1030.42 1709.01 1030.17C1708.33 1029.87 1707.68 1029.73 1707.05 1029.73L1707.55 1024.35C1708.52 1024.35 1709.47 1024.54 1710.4 1024.92C1711.33 1025.25 1712.13 1025.74 1712.81 1026.37L1710.84 1031.18ZM1730.95 1057V1035.23H1736.71V1057H1730.95ZM1723.23 1057.95L1723.67 1053.2C1725.19 1053.2 1726.48 1052.82 1727.53 1052.06C1728.63 1051.3 1729.47 1050.19 1730.06 1048.71C1730.65 1047.23 1730.95 1045.48 1730.95 1043.46L1733.8 1043.33C1733.8 1046.2 1733.33 1048.73 1732.4 1050.93C1731.48 1053.12 1730.21 1054.85 1728.61 1056.11C1727.05 1057.34 1725.25 1057.95 1723.23 1057.95ZM1723.23 1057.95C1721.33 1057.95 1719.6 1057.51 1718.04 1056.62C1716.48 1055.73 1715.23 1054.53 1714.31 1053.01C1713.38 1051.45 1712.91 1049.72 1712.91 1047.82L1718.36 1047.63C1718.36 1049.24 1718.88 1050.57 1719.94 1051.62C1721.03 1052.68 1722.28 1053.2 1723.67 1053.2L1723.23 1057.95ZM1712.91 1047.82C1712.91 1045.84 1713.4 1044.11 1714.37 1042.64C1715.38 1041.12 1716.73 1039.91 1718.42 1039.03C1720.11 1038.14 1722.03 1037.7 1724.18 1037.7L1724.49 1042.13C1722.72 1042.13 1721.25 1042.66 1720.06 1043.71C1718.93 1044.72 1718.36 1046.03 1718.36 1047.63L1712.91 1047.82ZM1724.49 1042.13L1724.18 1037.7H1733.92V1042.13H1724.49ZM1730.95 1043.46V1035.3H1733.8V1043.33L1730.95 1043.46ZM1736.71 1035.36H1730.95C1730.95 1033.5 1730.38 1031.98 1729.24 1030.8C1728.14 1029.62 1726.71 1029.03 1724.94 1029.03V1024.09C1727.21 1024.09 1729.22 1024.58 1730.95 1025.55C1732.72 1026.52 1734.11 1027.87 1735.12 1029.6C1736.18 1031.29 1736.71 1033.21 1736.71 1035.36ZM1718.99 1034.6L1713.67 1033.52C1713.93 1031.62 1714.56 1029.98 1715.57 1028.59C1716.63 1027.2 1717.96 1026.1 1719.56 1025.3C1721.2 1024.5 1723.02 1024.09 1725 1024.09V1029.03C1723.44 1029.03 1722.09 1029.49 1720.95 1030.42C1719.85 1031.31 1719.2 1032.7 1718.99 1034.6ZM1741.57 1057V1025.04H1747.33V1057H1741.57ZM1759.35 1057V1035.23H1765.11V1057H1759.35ZM1759.35 1035.23C1759.35 1033.46 1758.81 1032.03 1757.71 1030.93C1756.61 1029.79 1755.2 1029.22 1753.47 1029.22L1754.92 1024.09C1756.86 1024.09 1758.59 1024.58 1760.11 1025.55C1761.67 1026.52 1762.9 1027.85 1763.78 1029.54C1764.67 1031.22 1765.11 1033.12 1765.11 1035.23H1759.35ZM1744.8 1035.36C1744.8 1033.21 1745.24 1031.29 1746.13 1029.6C1747.01 1027.87 1748.22 1026.52 1749.74 1025.55C1751.25 1024.58 1752.98 1024.09 1754.92 1024.09L1753.47 1029.22C1751.65 1029.22 1750.18 1029.79 1749.04 1030.93C1747.9 1032.07 1747.33 1033.54 1747.33 1035.36H1744.8ZM1779.86 1046.18V1023.21H1785.62V1046.18H1779.86ZM1779.86 1023.21C1779.86 1020.89 1780.39 1018.84 1781.44 1017.07C1782.5 1015.26 1783.97 1013.86 1785.87 1012.89C1787.77 1011.88 1789.94 1011.38 1792.39 1011.38V1016.37C1790.28 1016.37 1788.61 1016.97 1787.39 1018.15C1786.21 1019.33 1785.62 1021.02 1785.62 1023.21H1779.86ZM1779.86 1046.12H1785.62C1785.62 1048.31 1786.21 1050.02 1787.39 1051.24C1788.61 1052.42 1790.28 1053.01 1792.39 1053.01V1058.01C1789.94 1058.01 1787.77 1057.51 1785.87 1056.49C1783.97 1055.48 1782.5 1054.09 1781.44 1052.32C1780.39 1050.55 1779.86 1048.48 1779.86 1046.12ZM1799.92 1024.85C1799.67 1022.2 1798.86 1020.13 1797.51 1018.65C1796.21 1017.13 1794.48 1016.37 1792.33 1016.37V1011.38C1795.91 1011.38 1798.82 1012.47 1801.06 1014.67C1803.34 1016.86 1804.71 1019.9 1805.17 1023.78L1799.92 1024.85ZM1799.92 1044.53L1805.17 1045.55C1804.71 1049.47 1803.34 1052.53 1801.06 1054.72C1798.82 1056.92 1795.91 1058.01 1792.33 1058.01V1053.01C1794.48 1053.01 1796.21 1052.28 1797.51 1050.8C1798.86 1049.28 1799.67 1047.19 1799.92 1044.53ZM1809.38 1042.76V1038.65H1830.96V1042.76H1809.38ZM1819.19 1058.01V1053.01H1819.51V1058.01H1819.19ZM1807.55 1045.67V1036.37H1813.3V1045.67H1807.55ZM1825.2 1038.65V1035.36H1830.96V1038.65H1825.2ZM1830.96 1035.36H1825.2C1825.2 1033.5 1824.63 1031.98 1823.49 1030.8C1822.4 1029.62 1820.96 1029.03 1819.19 1029.03V1024.09C1821.47 1024.09 1823.47 1024.58 1825.2 1025.55C1826.97 1026.52 1828.37 1027.87 1829.38 1029.6C1830.43 1031.29 1830.96 1033.21 1830.96 1035.36ZM1825.45 1047.51L1830.83 1048.58C1830.58 1050.4 1829.93 1052.02 1828.87 1053.46C1827.82 1054.89 1826.49 1056.01 1824.88 1056.81C1823.28 1057.61 1821.49 1058.01 1819.51 1058.01V1053.01C1821.02 1053.01 1822.33 1052.57 1823.43 1051.68C1824.57 1050.76 1825.24 1049.36 1825.45 1047.51ZM1807.55 1036.43C1807.55 1034.03 1808.05 1031.92 1809.06 1030.11C1810.12 1028.25 1811.51 1026.79 1813.24 1025.74C1815.01 1024.64 1817.02 1024.09 1819.25 1024.09V1029.03C1817.4 1029.03 1815.94 1029.68 1814.89 1030.99C1813.83 1032.26 1813.3 1034.07 1813.3 1036.43H1807.55ZM1807.55 1045.67H1813.3C1813.3 1047.99 1813.83 1049.81 1814.89 1051.12C1815.94 1052.38 1817.4 1053.01 1819.25 1053.01V1058.01C1817.02 1058.01 1815.01 1057.49 1813.24 1056.43C1811.51 1055.33 1810.12 1053.86 1809.06 1052C1808.05 1050.14 1807.55 1048.04 1807.55 1045.67ZM1835.23 1057V1025.04H1840.99V1057H1835.23ZM1853.01 1057V1035.23H1858.77V1057H1853.01ZM1853.01 1035.23C1853.01 1033.46 1852.46 1032.03 1851.37 1030.93C1850.27 1029.79 1848.86 1029.22 1847.13 1029.22L1848.58 1024.09C1850.52 1024.09 1852.25 1024.58 1853.77 1025.55C1855.33 1026.52 1856.56 1027.85 1857.44 1029.54C1858.33 1031.22 1858.77 1033.12 1858.77 1035.23H1853.01ZM1838.46 1035.36C1838.46 1033.21 1838.9 1031.29 1839.79 1029.6C1840.67 1027.87 1841.88 1026.52 1843.39 1025.55C1844.91 1024.58 1846.64 1024.09 1848.58 1024.09L1847.13 1029.22C1845.31 1029.22 1843.84 1029.79 1842.7 1030.93C1841.56 1032.07 1840.99 1033.54 1840.99 1035.36H1838.46ZM1865.71 1047.32V1012.32L1871.47 1012.39V1047.32H1865.71ZM1862.04 1029.79V1025.04H1879.44V1029.79H1862.04ZM1865.71 1047.25H1871.47C1871.47 1048.48 1871.64 1049.51 1871.97 1050.36C1872.31 1051.2 1872.8 1051.85 1873.43 1052.32C1874.06 1052.74 1874.82 1052.95 1875.71 1052.95L1875.2 1057.95C1872.25 1057.95 1869.93 1057.02 1868.24 1055.16C1866.55 1053.27 1865.71 1050.63 1865.71 1047.25ZM1878.68 1051.87L1880.96 1055.99C1880.11 1056.62 1879.19 1057.11 1878.17 1057.44C1877.2 1057.78 1876.21 1057.95 1875.2 1057.95L1875.71 1052.95C1876.25 1052.95 1876.76 1052.87 1877.23 1052.7C1877.73 1052.49 1878.22 1052.21 1878.68 1051.87ZM1883.43 1042.76V1038.65H1905V1042.76H1883.43ZM1893.23 1058.01V1053.01H1893.55V1058.01H1893.23ZM1881.59 1045.67V1036.37H1887.35V1045.67H1881.59ZM1899.25 1038.65V1035.36H1905V1038.65H1899.25ZM1905 1035.36H1899.25C1899.25 1033.5 1898.68 1031.98 1897.54 1030.8C1896.44 1029.62 1895.01 1029.03 1893.23 1029.03V1024.09C1895.51 1024.09 1897.52 1024.58 1899.25 1025.55C1901.02 1026.52 1902.41 1027.87 1903.42 1029.6C1904.48 1031.29 1905 1033.21 1905 1035.36ZM1899.5 1047.51L1904.88 1048.58C1904.62 1050.4 1903.97 1052.02 1902.92 1053.46C1901.86 1054.89 1900.53 1056.01 1898.93 1056.81C1897.33 1057.61 1895.53 1058.01 1893.55 1058.01V1053.01C1895.07 1053.01 1896.38 1052.57 1897.47 1051.68C1898.61 1050.76 1899.29 1049.36 1899.5 1047.51ZM1881.59 1036.43C1881.59 1034.03 1882.1 1031.92 1883.11 1030.11C1884.16 1028.25 1885.56 1026.79 1887.29 1025.74C1889.06 1024.64 1891.06 1024.09 1893.3 1024.09V1029.03C1891.44 1029.03 1889.99 1029.68 1888.93 1030.99C1887.88 1032.26 1887.35 1034.07 1887.35 1036.43H1881.59ZM1881.59 1045.67H1887.35C1887.35 1047.99 1887.88 1049.81 1888.93 1051.12C1889.99 1052.38 1891.44 1053.01 1893.3 1053.01V1058.01C1891.06 1058.01 1889.06 1057.49 1887.29 1056.43C1885.56 1055.33 1884.16 1053.86 1883.11 1052C1882.1 1050.14 1881.59 1048.04 1881.59 1045.67ZM1909.28 1057V1025.04H1915.03V1057H1909.28ZM1912.44 1035.61C1912.44 1033.46 1912.8 1031.54 1913.51 1029.85C1914.23 1028.12 1915.2 1026.77 1916.43 1025.8C1917.69 1024.83 1919.08 1024.35 1920.6 1024.35L1920.1 1029.73C1918.62 1029.73 1917.4 1030.3 1916.43 1031.44C1915.5 1032.53 1915.03 1033.92 1915.03 1035.61H1912.44ZM1923.89 1031.18C1923.39 1030.76 1922.77 1030.42 1922.06 1030.17C1921.38 1029.87 1920.73 1029.73 1920.1 1029.73L1920.6 1024.35C1921.57 1024.35 1922.52 1024.54 1923.45 1024.92C1924.38 1025.25 1925.18 1025.74 1925.85 1026.37L1923.89 1031.18ZM1940.81 1057V1022.07H1946.57V1057H1940.81ZM1937.14 1029.79V1025.04H1954.35V1029.79H1937.14ZM1940.81 1022.07C1940.81 1018.74 1941.66 1016.14 1943.34 1014.29C1945.03 1012.39 1947.35 1011.44 1950.31 1011.44L1950.81 1016.37C1949.93 1016.37 1949.17 1016.61 1948.53 1017.07C1947.9 1017.53 1947.42 1018.19 1947.08 1019.03C1946.74 1019.88 1946.57 1020.89 1946.57 1022.07H1940.81ZM1953.79 1017.45C1953.32 1017.11 1952.84 1016.86 1952.33 1016.69C1951.87 1016.48 1951.36 1016.37 1950.81 1016.37L1950.31 1011.44C1951.32 1011.44 1952.31 1011.59 1953.28 1011.88C1954.29 1012.18 1955.22 1012.68 1956.06 1013.4L1953.79 1017.45ZM1972.7 1045.67V1036.37H1978.46V1045.67H1972.7ZM1954.92 1045.67V1036.37H1960.68V1045.67H1954.92ZM1966.5 1029.09V1024.09H1966.88V1029.09H1966.5ZM1966.5 1057.95V1052.95H1966.88V1057.95H1966.5ZM1954.92 1036.43C1954.92 1034.07 1955.42 1031.96 1956.44 1030.11C1957.49 1028.25 1958.88 1026.79 1960.61 1025.74C1962.38 1024.64 1964.39 1024.09 1966.62 1024.09V1029.09C1964.77 1029.09 1963.31 1029.73 1962.26 1030.99C1961.2 1032.26 1960.68 1034.07 1960.68 1036.43H1954.92ZM1978.46 1036.43H1972.7C1972.7 1034.07 1972.17 1032.26 1971.12 1030.99C1970.1 1029.73 1968.65 1029.09 1966.75 1029.09V1024.09C1968.99 1024.09 1970.97 1024.64 1972.7 1025.74C1974.47 1026.79 1975.86 1028.25 1976.88 1030.11C1977.93 1031.96 1978.46 1034.07 1978.46 1036.43ZM1954.92 1045.61H1960.68C1960.68 1047.93 1961.2 1049.74 1962.26 1051.05C1963.31 1052.32 1964.77 1052.95 1966.62 1052.95V1057.95C1964.39 1057.95 1962.38 1057.42 1960.61 1056.37C1958.88 1055.27 1957.49 1053.79 1956.44 1051.94C1955.42 1050.08 1954.92 1047.97 1954.92 1045.61ZM1978.46 1045.61C1978.46 1047.97 1977.93 1050.08 1976.88 1051.94C1975.86 1053.79 1974.47 1055.27 1972.7 1056.37C1970.97 1057.42 1968.99 1057.95 1966.75 1057.95V1052.95C1968.65 1052.95 1970.1 1052.32 1971.12 1051.05C1972.17 1049.74 1972.7 1047.93 1972.7 1045.61H1978.46ZM1982.73 1057V1025.04H1988.48V1057H1982.73ZM1985.89 1035.61C1985.89 1033.46 1986.25 1031.54 1986.97 1029.85C1987.68 1028.12 1988.65 1026.77 1989.88 1025.8C1991.14 1024.83 1992.53 1024.35 1994.05 1024.35L1993.55 1029.73C1992.07 1029.73 1990.85 1030.3 1989.88 1031.44C1988.95 1032.53 1988.48 1033.92 1988.48 1035.61H1985.89ZM1997.34 1031.18C1996.84 1030.76 1996.23 1030.42 1995.51 1030.17C1994.83 1029.87 1994.18 1029.73 1993.55 1029.73L1994.05 1024.35C1995.02 1024.35 1995.97 1024.54 1996.9 1024.92C1997.83 1025.25 1998.63 1025.74 1999.31 1026.37L1997.34 1031.18ZM2029.83 1057L2021.73 1035.23H2027.62L2035.72 1057H2029.83ZM2016.54 1038.08V1033.14H2023V1038.08H2016.54ZM2016.54 1017.39V1012.39H2023V1017.39H2016.54ZM2029.7 1026.31V1024.16H2035.46V1026.31H2029.7ZM2035.46 1024.22H2029.7C2029.7 1022.03 2029.09 1020.34 2027.87 1019.16C2026.69 1017.98 2025.04 1017.39 2022.93 1017.39V1012.39C2025.42 1012.39 2027.6 1012.89 2029.45 1013.91C2031.35 1014.88 2032.83 1016.27 2033.88 1018.08C2034.94 1019.85 2035.46 1021.9 2035.46 1024.22ZM2035.46 1026.25C2035.46 1028.57 2034.94 1030.63 2033.88 1032.45C2032.83 1034.22 2031.35 1035.61 2029.45 1036.62C2027.6 1037.59 2025.42 1038.08 2022.93 1038.08V1033.14C2025.04 1033.14 2026.69 1032.53 2027.87 1031.31C2029.09 1030.09 2029.7 1028.4 2029.7 1026.25H2035.46ZM2012.81 1057V1012.39H2018.57V1057H2012.81ZM2040.52 1042.76V1038.65H2062.1V1042.76H2040.52ZM2050.33 1058.01V1053.01H2050.65V1058.01H2050.33ZM2038.69 1045.67V1036.37H2044.45V1045.67H2038.69ZM2056.34 1038.65V1035.36H2062.1V1038.65H2056.34ZM2062.1 1035.36H2056.34C2056.34 1033.5 2055.77 1031.98 2054.64 1030.8C2053.54 1029.62 2052.1 1029.03 2050.33 1029.03V1024.09C2052.61 1024.09 2054.61 1024.58 2056.34 1025.55C2058.12 1026.52 2059.51 1027.87 2060.52 1029.6C2061.58 1031.29 2062.1 1033.21 2062.1 1035.36ZM2056.6 1047.51L2061.98 1048.58C2061.72 1050.4 2061.07 1052.02 2060.01 1053.46C2058.96 1054.89 2057.63 1056.01 2056.03 1056.81C2054.42 1057.61 2052.63 1058.01 2050.65 1058.01V1053.01C2052.17 1053.01 2053.48 1052.57 2054.57 1051.68C2055.71 1050.76 2056.39 1049.36 2056.6 1047.51ZM2038.69 1036.43C2038.69 1034.03 2039.2 1031.92 2040.21 1030.11C2041.26 1028.25 2042.65 1026.79 2044.38 1025.74C2046.16 1024.64 2048.16 1024.09 2050.4 1024.09V1029.03C2048.54 1029.03 2047.08 1029.68 2046.03 1030.99C2044.97 1032.26 2044.45 1034.07 2044.45 1036.43H2038.69ZM2038.69 1045.67H2044.45C2044.45 1047.99 2044.97 1049.81 2046.03 1051.12C2047.08 1052.38 2048.54 1053.01 2050.4 1053.01V1058.01C2048.16 1058.01 2046.16 1057.49 2044.38 1056.43C2042.65 1055.33 2041.26 1053.86 2040.21 1052C2039.2 1050.14 2038.69 1048.04 2038.69 1045.67ZM2067.01 1057V1011.44H2072.76V1057H2067.01ZM2080.07 1057V1025.04H2085.83V1057H2080.07ZM2082.92 1020.8C2081.86 1020.8 2080.98 1020.45 2080.26 1019.73C2079.54 1019.01 2079.18 1018.13 2079.18 1017.07C2079.18 1016.02 2079.54 1015.13 2080.26 1014.41C2080.98 1013.65 2081.86 1013.27 2082.92 1013.27C2083.97 1013.27 2084.86 1013.65 2085.58 1014.41C2086.33 1015.13 2086.71 1016.02 2086.71 1017.07C2086.71 1018.13 2086.33 1019.01 2085.58 1019.73C2084.86 1020.45 2083.97 1020.8 2082.92 1020.8ZM2109.15 1058.14V1025.04H2114.91V1058.14H2109.15ZM2091.37 1045.99V1035.23H2097.13V1045.99H2091.37ZM2097.13 1035.23H2091.37C2091.37 1033.12 2091.81 1031.22 2092.7 1029.54C2093.58 1027.85 2094.78 1026.52 2096.3 1025.55C2097.86 1024.58 2099.64 1024.09 2101.62 1024.09L2103.07 1029.22C2101.34 1029.22 2099.91 1029.79 2098.77 1030.93C2097.67 1032.03 2097.13 1033.46 2097.13 1035.23ZM2111.68 1035.36H2109.15C2109.15 1033.54 2108.58 1032.07 2107.44 1030.93C2106.3 1029.79 2104.85 1029.22 2103.07 1029.22L2101.62 1024.09C2103.52 1024.09 2105.22 1024.58 2106.74 1025.55C2108.3 1026.52 2109.51 1027.87 2110.35 1029.6C2111.24 1031.29 2111.68 1033.21 2111.68 1035.36ZM2097.13 1045.99C2097.13 1047.76 2097.67 1049.22 2098.77 1050.36C2099.91 1051.45 2101.34 1052 2103.07 1052L2101.62 1057.13C2099.64 1057.13 2097.86 1056.64 2096.3 1055.67C2094.78 1054.7 2093.58 1053.37 2092.7 1051.68C2091.81 1050 2091.37 1048.1 2091.37 1045.99H2097.13ZM2111.68 1045.8C2111.68 1047.95 2111.24 1049.89 2110.35 1051.62C2109.51 1053.31 2108.3 1054.66 2106.74 1055.67C2105.22 1056.64 2103.52 1057.13 2101.62 1057.13L2103.07 1052C2104.85 1052 2106.3 1051.43 2107.44 1050.29C2108.58 1049.15 2109.15 1047.66 2109.15 1045.8H2111.68ZM2114.91 1057.95C2114.91 1060.1 2114.4 1062.02 2113.39 1063.71C2112.38 1065.44 2110.98 1066.79 2109.21 1067.76C2107.44 1068.77 2105.44 1069.28 2103.2 1069.28V1064.28C2104.93 1064.28 2106.34 1063.67 2107.44 1062.44C2108.58 1061.26 2109.15 1059.76 2109.15 1057.95H2114.91ZM2097.19 1058.77C2097.4 1060.63 2098.07 1062 2099.21 1062.88C2100.35 1063.81 2101.68 1064.28 2103.2 1064.28V1069.28C2101.26 1069.28 2099.47 1068.88 2097.82 1068.07C2096.18 1067.27 2094.83 1066.15 2093.77 1064.72C2092.76 1063.29 2092.13 1061.66 2091.87 1059.85L2097.19 1058.77ZM2121.34 1057V1025.04H2127.1V1057H2121.34ZM2124.19 1020.8C2123.13 1020.8 2122.24 1020.45 2121.53 1019.73C2120.81 1019.01 2120.45 1018.13 2120.45 1017.07C2120.45 1016.02 2120.81 1015.13 2121.53 1014.41C2122.24 1013.65 2123.13 1013.27 2124.19 1013.27C2125.24 1013.27 2126.13 1013.65 2126.84 1014.41C2127.6 1015.13 2127.98 1016.02 2127.98 1017.07C2127.98 1018.13 2127.6 1019.01 2126.84 1019.73C2126.13 1020.45 2125.24 1020.8 2124.19 1020.8ZM2149.78 1045.67V1036.37H2155.54V1045.67H2149.78ZM2132 1045.67V1036.37H2137.76V1045.67H2132ZM2143.58 1029.09V1024.09H2143.96V1029.09H2143.58ZM2143.58 1057.95V1052.95H2143.96V1057.95H2143.58ZM2132 1036.43C2132 1034.07 2132.51 1031.96 2133.52 1030.11C2134.57 1028.25 2135.97 1026.79 2137.7 1025.74C2139.47 1024.64 2141.47 1024.09 2143.71 1024.09V1029.09C2141.85 1029.09 2140.4 1029.73 2139.34 1030.99C2138.29 1032.26 2137.76 1034.07 2137.76 1036.43H2132ZM2155.54 1036.43H2149.78C2149.78 1034.07 2149.26 1032.26 2148.2 1030.99C2147.19 1029.73 2145.73 1029.09 2143.83 1029.09V1024.09C2146.07 1024.09 2148.05 1024.64 2149.78 1025.74C2151.55 1026.79 2152.95 1028.25 2153.96 1030.11C2155.01 1031.96 2155.54 1034.07 2155.54 1036.43ZM2132 1045.61H2137.76C2137.76 1047.93 2138.29 1049.74 2139.34 1051.05C2140.4 1052.32 2141.85 1052.95 2143.71 1052.95V1057.95C2141.47 1057.95 2139.47 1057.42 2137.7 1056.37C2135.97 1055.27 2134.57 1053.79 2133.52 1051.94C2132.51 1050.08 2132 1047.97 2132 1045.61ZM2155.54 1045.61C2155.54 1047.97 2155.01 1050.08 2153.96 1051.94C2152.95 1053.79 2151.55 1055.27 2149.78 1056.37C2148.05 1057.42 2146.07 1057.95 2143.83 1057.95V1052.95C2145.73 1052.95 2147.19 1052.32 2148.2 1051.05C2149.26 1049.74 2149.78 1047.93 2149.78 1045.61H2155.54ZM2182.4 1025.04V1057H2176.64V1025.04H2182.4ZM2164.62 1025.04V1046.81H2158.86V1025.04H2164.62ZM2164.62 1046.81C2164.62 1048.58 2165.17 1050.04 2166.26 1051.18C2167.4 1052.28 2168.84 1052.82 2170.57 1052.82L2169.11 1057.95C2167.13 1057.95 2165.36 1057.46 2163.8 1056.49C2162.28 1055.52 2161.08 1054.19 2160.19 1052.51C2159.3 1050.82 2158.86 1048.92 2158.86 1046.81H2164.62ZM2179.17 1046.62C2179.17 1048.77 2178.73 1050.71 2177.84 1052.44C2177 1054.13 2175.8 1055.48 2174.24 1056.49C2172.72 1057.46 2171.01 1057.95 2169.11 1057.95L2170.57 1052.82C2172.34 1052.82 2173.79 1052.25 2174.93 1051.12C2176.07 1049.98 2176.64 1048.48 2176.64 1046.62H2179.17ZM2203.32 1048.77C2203.32 1047.72 2202.94 1046.85 2202.18 1046.18C2201.42 1045.46 2200.43 1044.83 2199.21 1044.28C2198.03 1043.69 2196.76 1043.1 2195.41 1042.51C2194.1 1041.92 2192.84 1041.24 2191.62 1040.48C2190.43 1039.68 2189.46 1038.69 2188.71 1037.51C2187.95 1036.29 2187.57 1034.81 2187.57 1033.08C2187.57 1033.08 2187.73 1033.08 2188.07 1033.08C2188.45 1033.08 2188.92 1033.08 2189.46 1033.08C2190.06 1033.08 2190.62 1033.08 2191.17 1033.08C2191.72 1033.08 2192.19 1033.08 2192.57 1033.08C2192.94 1033.08 2193.13 1033.08 2193.13 1033.08C2193.13 1034.14 2193.51 1035.02 2194.27 1035.74C2195.03 1036.41 2196 1037.02 2197.18 1037.57C2198.41 1038.12 2199.69 1038.71 2201.04 1039.35C2202.39 1039.94 2203.66 1040.63 2204.84 1041.43C2206.02 1042.23 2206.99 1043.23 2207.75 1044.41C2208.55 1045.55 2208.95 1047 2208.95 1048.77C2208.95 1048.77 2208.76 1048.77 2208.38 1048.77C2208.01 1048.77 2207.52 1048.77 2206.93 1048.77C2206.38 1048.77 2205.83 1048.77 2205.28 1048.77C2204.74 1048.77 2204.27 1048.77 2203.89 1048.77C2203.51 1048.77 2203.32 1048.77 2203.32 1048.77ZM2197.94 1057.95V1052.95C2199.5 1052.95 2200.79 1052.57 2201.8 1051.81C2202.82 1051.01 2203.32 1050 2203.32 1048.77H2208.95C2208.95 1050.55 2208.47 1052.13 2207.5 1053.52C2206.57 1054.91 2205.28 1056.01 2203.64 1056.81C2201.99 1057.57 2200.1 1057.95 2197.94 1057.95ZM2187.57 1033.08C2187.57 1031.35 2187.99 1029.81 2188.83 1028.46C2189.72 1027.07 2190.94 1025.99 2192.5 1025.23C2194.06 1024.43 2195.79 1024.03 2197.69 1024.03V1029.03C2196.38 1029.03 2195.29 1029.41 2194.4 1030.17C2193.56 1030.93 2193.13 1031.9 2193.13 1033.08H2187.57ZM2191.93 1047.44C2192.14 1049.3 2192.82 1050.69 2193.96 1051.62C2195.1 1052.51 2196.43 1052.95 2197.94 1052.95V1057.95C2196 1057.95 2194.21 1057.55 2192.57 1056.75C2190.92 1055.95 2189.57 1054.83 2188.52 1053.39C2187.5 1051.96 2186.87 1050.33 2186.62 1048.52L2191.93 1047.44ZM2203.64 1034.54C2203.43 1032.64 2202.75 1031.25 2201.61 1030.36C2200.52 1029.47 2199.21 1029.03 2197.69 1029.03V1024.03C2199.67 1024.03 2201.47 1024.43 2203.07 1025.23C2204.67 1026.04 2206 1027.15 2207.06 1028.59C2208.11 1029.98 2208.76 1031.6 2209.02 1033.46L2203.64 1034.54ZM2227.64 1057V1052H2243.9V1057H2227.64ZM2223.78 1057V1012.39H2229.54V1057H2223.78ZM2248.04 1057V1025.04H2253.8V1057H2248.04ZM2250.89 1020.8C2249.84 1020.8 2248.95 1020.45 2248.23 1019.73C2247.52 1019.01 2247.16 1018.13 2247.16 1017.07C2247.16 1016.02 2247.52 1015.13 2248.23 1014.41C2248.95 1013.65 2249.84 1013.27 2250.89 1013.27C2251.95 1013.27 2252.83 1013.65 2253.55 1014.41C2254.31 1015.13 2254.69 1016.02 2254.69 1017.07C2254.69 1018.13 2254.31 1019.01 2253.55 1019.73C2252.83 1020.45 2251.95 1020.8 2250.89 1020.8ZM2260.48 1025.11V1012.39H2266.23V1025.11H2260.48ZM2266.23 1057H2260.48V1025.04H2266.23V1057ZM2284.02 1046.81H2278.26V1035.23H2284.02V1046.81ZM2278.26 1035.23C2278.26 1033.46 2277.71 1032.03 2276.61 1030.93C2275.52 1029.79 2274.1 1029.22 2272.37 1029.22L2273.83 1024.09C2275.77 1024.09 2277.5 1024.58 2279.02 1025.55C2280.58 1026.52 2281.8 1027.85 2282.69 1029.54C2283.57 1031.22 2284.02 1033.12 2284.02 1035.23H2278.26ZM2263.7 1035.36C2263.7 1033.21 2264.15 1031.29 2265.03 1029.6C2265.92 1027.87 2267.12 1026.52 2268.64 1025.55C2270.16 1024.58 2271.89 1024.09 2273.83 1024.09L2272.37 1029.22C2270.56 1029.22 2269.08 1029.79 2267.94 1030.93C2266.8 1032.07 2266.23 1033.54 2266.23 1035.36H2263.7ZM2278.26 1046.81H2284.02C2284.02 1048.92 2283.57 1050.82 2282.69 1052.51C2281.8 1054.19 2280.58 1055.52 2279.02 1056.49C2277.5 1057.46 2275.77 1057.95 2273.83 1057.95L2272.37 1052.82C2274.1 1052.82 2275.52 1052.28 2276.61 1051.18C2277.71 1050.04 2278.26 1048.58 2278.26 1046.81ZM2263.7 1046.62H2266.23C2266.23 1048.48 2266.8 1049.98 2267.94 1051.12C2269.08 1052.25 2270.56 1052.82 2272.37 1052.82L2273.83 1057.95C2271.89 1057.95 2270.16 1057.46 2268.64 1056.49C2267.12 1055.48 2265.92 1054.13 2265.03 1052.44C2264.15 1050.71 2263.7 1048.77 2263.7 1046.62ZM2289.12 1042.76V1038.65H2310.7V1042.76H2289.12ZM2298.93 1058.01V1053.01H2299.24V1058.01H2298.93ZM2287.28 1045.67V1036.37H2293.04V1045.67H2287.28ZM2304.94 1038.65V1035.36H2310.7V1038.65H2304.94ZM2310.7 1035.36H2304.94C2304.94 1033.5 2304.37 1031.98 2303.23 1030.8C2302.13 1029.62 2300.7 1029.03 2298.93 1029.03V1024.09C2301.2 1024.09 2303.21 1024.58 2304.94 1025.55C2306.71 1026.52 2308.1 1027.87 2309.11 1029.6C2310.17 1031.29 2310.7 1033.21 2310.7 1035.36ZM2305.19 1047.51L2310.57 1048.58C2310.32 1050.4 2309.66 1052.02 2308.61 1053.46C2307.55 1054.89 2306.22 1056.01 2304.62 1056.81C2303.02 1057.61 2301.23 1058.01 2299.24 1058.01V1053.01C2300.76 1053.01 2302.07 1052.57 2303.17 1051.68C2304.31 1050.76 2304.98 1049.36 2305.19 1047.51ZM2287.28 1036.43C2287.28 1034.03 2287.79 1031.92 2288.8 1030.11C2289.86 1028.25 2291.25 1026.79 2292.98 1025.74C2294.75 1024.64 2296.75 1024.09 2298.99 1024.09V1029.03C2297.13 1029.03 2295.68 1029.68 2294.62 1030.99C2293.57 1032.26 2293.04 1034.07 2293.04 1036.43H2287.28ZM2287.28 1045.67H2293.04C2293.04 1047.99 2293.57 1049.81 2294.62 1051.12C2295.68 1052.38 2297.13 1053.01 2298.99 1053.01V1058.01C2296.75 1058.01 2294.75 1057.49 2292.98 1056.43C2291.25 1055.33 2289.86 1053.86 2288.8 1052C2287.79 1050.14 2287.28 1048.04 2287.28 1045.67ZM2314.97 1057V1025.04H2320.73V1057H2314.97ZM2318.13 1035.61C2318.13 1033.46 2318.49 1031.54 2319.21 1029.85C2319.92 1028.12 2320.89 1026.77 2322.12 1025.8C2323.38 1024.83 2324.78 1024.35 2326.29 1024.35L2325.79 1029.73C2324.31 1029.73 2323.09 1030.3 2322.12 1031.44C2321.19 1032.53 2320.73 1033.92 2320.73 1035.61H2318.13ZM2329.59 1031.18C2329.08 1030.76 2328.47 1030.42 2327.75 1030.17C2327.08 1029.87 2326.42 1029.73 2325.79 1029.73L2326.29 1024.35C2327.27 1024.35 2328.21 1024.54 2329.14 1024.92C2330.07 1025.25 2330.87 1025.74 2331.55 1026.37L2329.59 1031.18ZM2336.79 1047.32V1012.32L2342.55 1012.39V1047.32H2336.79ZM2333.12 1029.79V1025.04H2350.53V1029.79H2333.12ZM2336.79 1047.25H2342.55C2342.55 1048.48 2342.72 1049.51 2343.06 1050.36C2343.4 1051.2 2343.88 1051.85 2344.51 1052.32C2345.15 1052.74 2345.91 1052.95 2346.79 1052.95L2346.29 1057.95C2343.33 1057.95 2341.01 1057.02 2339.32 1055.16C2337.64 1053.27 2336.79 1050.63 2336.79 1047.25ZM2349.77 1051.87L2352.04 1055.99C2351.2 1056.62 2350.27 1057.11 2349.26 1057.44C2348.29 1057.78 2347.3 1057.95 2346.29 1057.95L2346.79 1052.95C2347.34 1052.95 2347.85 1052.87 2348.31 1052.7C2348.82 1052.49 2349.3 1052.21 2349.77 1051.87ZM2355.44 1068.71L2356.64 1063.96C2358.29 1064.38 2359.66 1064.28 2360.75 1063.64C2361.85 1063.01 2362.72 1061.7 2363.35 1059.72H2368.66C2367.4 1063.69 2365.65 1066.39 2363.41 1067.82C2361.22 1069.26 2358.56 1069.55 2355.44 1068.71ZM2363.35 1059.72L2374.17 1025.04H2379.93L2368.66 1059.72H2363.35ZM2364.42 1059.34L2353.29 1025.04H2359.04L2367.27 1051.3L2364.42 1059.34Z" fill="#909090"/>
</svg>
