<svg width="1154" height="1154" viewBox="0 0 1154 1154" fill="none" xmlns="http://www.w3.org/2000/svg">
<rect width="1154" height="1154" fill="white"/>
<path fill-rule="evenodd" clip-rule="evenodd" d="M349.254 166.015C339.43 168.011 300.115 176.889 262.92 185.513C230.661 192.99 163.313 210.396 162.141 211.558C160.133 213.547 161.025 526.057 163.076 539.263C163.294 540.672 163.779 548.571 164.153 556.817C167 619.544 175.13 683.799 186.003 729.487C197.036 775.852 215.062 821.666 237.891 861.36C294.68 960.109 395.543 1051.99 523.691 1121.71C544.901 1133.25 560.214 1141 561.804 1141C565.449 1141 616.719 1113.5 642.38 1097.78C762.451 1024.23 849.74 935.971 899.254 838.052C925.744 785.664 942.392 728.43 950.983 660.212C951.879 653.104 952.84 645.716 953.12 643.795C953.901 638.444 957.515 599.374 958.678 583.7C960.573 558.174 962.157 523.04 963.501 476.686C964.951 426.717 963.747 213.073 962.006 211.237C961.208 210.397 880.658 189.782 857.959 184.61C849.997 182.796 835.806 179.515 826.423 177.32C810.073 173.493 803.333 171.971 780.412 166.929C774.725 165.678 768.909 164.69 767.488 164.733C763.953 164.839 752.781 167.169 723.545 173.899C709.897 177.041 695.938 180.218 692.526 180.958C689.114 181.697 676.89 184.448 665.36 187.068C653.832 189.688 644.178 191.832 643.906 191.832C643.635 191.832 643.414 192.273 643.414 192.812C643.414 194.288 654.842 223.23 655.835 224.271C656.309 224.768 671.04 228.111 688.57 231.702C765.003 247.355 880.217 273.198 882.14 275.12C883.411 276.393 882.814 485.156 881.456 513.391C880.132 540.972 877.482 584.958 876.569 594.556C872.632 635.909 871.517 645.181 867.114 673.137C852.54 765.676 812.876 843.992 744.618 914.998C720.069 940.538 686.953 968.831 654.27 992.191C636.616 1004.81 607.428 1023.68 606.695 1022.94C606.039 1022.29 605.398 1015.61 602.558 979.886C597.707 918.869 595.899 893.352 595.192 875.895L594.485 858.424L609.385 859.149C640.875 860.682 673.926 865.337 704.675 872.57L710.62 873.968V827.507C710.62 783.741 710.515 781.076 708.811 781.584C702.019 783.605 671.235 789.841 659.957 791.481C642.522 794.015 625.512 795.703 610.961 796.344L595.568 797.023L596.23 792.464C596.594 789.956 598.512 768.596 600.492 744.996C602.472 721.396 604.314 699.993 604.586 697.434C604.857 694.875 605.336 689.525 605.653 685.544C605.968 681.563 607.386 665.046 608.803 648.839C610.221 632.631 612.527 605.645 613.931 588.869C615.334 572.094 616.737 555.344 617.049 551.647C617.362 547.951 617.85 541.902 618.135 538.206C618.419 534.509 618.856 529.624 619.105 527.349C619.355 525.075 619.82 519.491 620.14 514.942C620.46 510.393 620.937 504.809 621.198 502.535C621.46 500.26 622.387 489.093 623.26 477.72C624.133 466.346 625.073 454.714 625.351 451.871C625.628 449.028 626.758 436.465 627.862 423.954C630.694 391.856 633.164 364.35 634.082 354.679L634.868 346.408L626.86 332.45C622.456 324.772 614.785 311.279 609.811 302.465C604.838 293.651 598.772 282.949 596.33 278.684C589.952 267.544 578.133 246.181 569.732 230.605C565.744 223.213 562.376 217.034 562.247 216.874C562.119 216.715 558.38 223.229 553.941 231.35C549.5 239.47 539.842 256.816 532.477 269.895C487.152 350.397 489.197 346.551 489.776 350.202C490.075 352.097 490.588 357.368 490.916 361.917C491.244 366.467 491.953 375.074 492.493 381.045C493.033 387.016 493.727 394.926 494.037 398.622C494.347 402.319 495.045 409.996 495.588 415.683C496.13 421.369 497.754 440.213 499.194 457.558C500.634 474.902 504.362 519.802 507.476 557.334C510.591 594.866 513.369 627.901 513.651 630.745C513.932 633.588 515.098 646.848 516.244 660.212C517.389 673.576 518.562 687.069 518.849 690.197C519.463 696.88 522.889 735.953 525.059 761.022C525.896 770.69 526.887 782.745 527.263 787.81L527.944 797.02L514.595 796.356C487.805 795.022 467.578 792.381 437.657 786.312C426.568 784.062 416.459 781.937 415.193 781.589L412.89 780.956L413.265 826.618C413.471 851.733 413.896 872.537 414.209 872.849C414.523 873.163 420.508 872.227 427.51 870.771C449.654 866.167 468.237 863.222 487.287 861.299C490.415 860.984 494.37 860.525 496.076 860.281C497.782 860.037 506.078 859.521 514.512 859.133L529.846 858.429L529.194 870.729C528.083 891.658 525.552 931.383 525.018 936.277C524.739 938.836 524.032 947.909 523.446 956.439C522.86 964.969 522.155 974.508 521.878 977.635C521.601 980.763 520.694 992.113 519.864 1002.86C519.032 1013.6 518.157 1022.59 517.916 1022.83C517.675 1023.07 509.638 1018.26 500.056 1012.13C398.852 947.438 326.554 868.431 288.721 781.184C276.148 752.19 266.134 719.441 259.793 686.578C255.205 662.799 249.343 614.682 246.944 581.115C245.161 556.158 244.324 540.804 243.757 522.697C243.411 511.607 242.887 501.139 242.593 499.433C241.949 495.694 241.377 307.688 241.951 288.281L242.354 274.614L246.175 273.547C252.425 271.802 329.219 254.235 348.221 250.204C357.888 248.153 371.148 245.323 377.688 243.913C392.315 240.762 423.792 234.165 443.861 230.045C452.107 228.352 461.139 226.39 463.933 225.685L469.013 224.402L474.297 209.926C477.204 201.965 479.948 194.869 480.395 194.156C481.428 192.511 478.468 191.366 466.203 188.661C461.024 187.519 441.897 183.126 423.699 178.902C405.501 174.676 384.099 169.793 376.137 168.053C368.176 166.312 360.964 164.716 360.111 164.506C359.258 164.296 354.373 164.975 349.254 166.015ZM555.167 344.84C549.868 358.385 549.193 360.907 549.709 365.242C550.033 367.963 550.566 381.355 550.895 395.004C551.222 408.652 551.681 422.843 551.914 426.539C552.147 430.235 552.601 444.426 552.921 458.075C553.243 471.723 553.717 488.473 553.975 495.297C554.232 502.121 554.7 518.871 555.012 532.519C555.324 546.167 555.79 561.754 556.048 567.157C556.305 572.559 556.771 589.076 557.082 603.862C557.394 618.647 557.86 633.769 558.12 637.465C558.379 641.162 558.887 658.377 559.247 675.721C559.608 693.066 560.064 707.533 560.26 707.869C560.457 708.206 560.702 716.581 560.805 726.48C561.047 749.883 562.491 754.73 562.779 733.106C562.9 724.007 563.122 714.934 563.272 712.944C563.422 710.953 563.846 697.46 564.214 682.959C564.582 668.458 565.095 651.941 565.353 646.254C565.611 640.567 566.078 625.213 566.39 612.133C566.703 599.054 567.166 584.398 567.419 579.564C567.674 574.73 568.135 559.841 568.444 546.477C568.754 533.114 569.224 517.294 569.487 511.323C569.751 505.352 570.224 489.533 570.539 476.169C570.853 462.805 571.305 449.079 571.543 445.667C572.207 436.135 573.586 385.332 573.605 369.672L573.622 355.713L568.054 342.531C564.992 335.28 562.2 329.356 561.85 329.366C561.501 329.378 558.493 336.34 555.167 344.84Z" fill="#0876A9"/>
<path fill-rule="evenodd" clip-rule="evenodd" d="M572.675 31.3187C570.448 40.8393 567.347 54.4461 565.784 61.5545C561.829 79.5401 556.868 99.85 556.289 100.429C556.022 100.696 550.972 98.1823 545.067 94.8436C539.163 91.506 529.912 86.4035 524.509 83.5043C519.107 80.6061 510.523 75.8923 505.433 73.0304C500.344 70.1684 495.997 68.0085 495.776 68.2308C495.553 68.4531 500.49 78.0915 506.745 89.6511C520.526 115.115 527.186 128.497 526.447 129.236C526.143 129.54 514.533 132.336 500.646 135.45C456.002 145.46 431.021 151.478 431.7 152.061C431.849 152.189 450.349 156.852 472.812 162.422C495.274 167.992 514.024 172.862 514.478 173.245C515.325 173.96 506.499 199.567 495.601 228.021C492.224 236.835 487.628 249.217 485.386 255.535C483.144 261.855 480.777 268.019 480.126 269.235C477.654 273.856 480.964 271.033 492.39 258.781C498.885 251.814 510.02 239.92 517.134 232.349C524.248 224.778 530.795 217.75 531.683 216.732C533.214 214.976 549.521 197.22 557.843 188.247L561.709 184.078L568.664 191.315C582.493 205.707 595.546 219.559 606.191 231.145C621.118 247.389 644.726 272.481 645.082 272.481C645.244 272.481 644.639 270.736 643.738 268.603C642.837 266.471 638.621 255.188 634.37 243.53C616.207 193.731 609.238 173.966 609.685 173.519C610.212 172.992 622.21 169.965 643.414 165.011C651.091 163.217 665.514 159.728 675.466 157.258C685.418 154.788 694.895 152.461 696.526 152.087C698.156 151.713 699.3 151.216 699.065 150.982C698.522 150.439 666.509 141.584 644.965 136.019C635.866 133.667 628.119 131.423 627.749 131.029C627.38 130.635 630.552 123.798 634.799 115.837C654.721 78.4876 658.925 70.3493 658.675 69.61C658.45 68.9462 627.862 85.2165 606.023 97.6157C602.803 99.4437 599.963 100.57 599.712 100.117C599.461 99.6639 594.478 80.1015 588.639 56.6433C582.799 33.186 577.73 13.9959 577.373 14C577.015 14.0031 574.902 21.797 572.675 31.3187ZM160.956 237.326C160.956 244.435 161.122 247.343 161.323 243.788C161.526 240.235 161.526 234.419 161.323 230.864C161.122 227.31 160.956 230.218 160.956 237.326ZM963.287 253.869C963.287 259.841 963.458 262.283 963.667 259.298C963.875 256.313 963.875 251.426 963.667 248.441C963.458 245.456 963.287 247.898 963.287 253.869ZM241.631 327.28C241.631 337.232 241.787 341.304 241.977 336.327C242.166 331.352 242.166 323.209 241.977 318.233C241.787 313.258 241.631 317.328 241.631 327.28ZM882.667 329.348C882.667 337.594 882.828 340.967 883.025 336.844C883.22 332.721 883.22 325.975 883.025 321.852C882.828 317.728 882.667 321.102 882.667 329.348ZM964.37 336.069C964.371 346.873 964.524 351.153 964.71 345.579C964.896 340.005 964.895 331.165 964.708 325.934C964.521 320.703 964.369 325.264 964.37 336.069ZM160 378.978C160 404.284 160.134 414.637 160.299 401.983C160.463 389.331 160.463 368.626 160.299 355.972C160.134 343.32 160 353.672 160 378.978ZM573.452 372.774C573.452 377.039 573.635 378.784 573.858 376.651C574.081 374.519 574.081 371.03 573.858 368.897C573.635 366.765 573.452 368.509 573.452 372.774ZM550.689 386.215C550.689 389.912 550.877 391.424 551.106 389.576C551.335 387.727 551.335 384.704 551.106 382.855C550.877 381.006 550.689 382.519 550.689 386.215ZM964.366 426.022C964.367 436.259 964.522 440.306 964.71 435.017C964.898 429.728 964.897 421.353 964.708 416.406C964.519 411.459 964.365 415.786 964.366 426.022ZM551.712 418.785C551.718 422.197 551.911 423.468 552.142 421.609C552.371 419.751 552.367 416.96 552.131 415.406C551.894 413.852 551.706 415.373 551.712 418.785ZM241.622 444.117C241.622 452.931 241.781 456.536 241.975 452.13C242.169 447.723 242.169 440.51 241.975 436.103C241.781 431.697 241.622 435.302 241.622 444.117ZM571.368 437.913C571.368 441.609 571.556 443.122 571.785 441.273C572.014 439.424 572.014 436.401 571.785 434.553C571.556 432.704 571.368 434.216 571.368 437.913ZM882.651 449.803C882.653 456.627 882.821 459.285 883.023 455.708C883.225 452.132 883.224 446.548 883.019 443.301C882.815 440.053 882.649 442.979 882.651 449.803ZM552.765 449.803C552.77 453.784 552.956 455.285 553.181 453.141C553.404 450.995 553.401 447.738 553.172 445.903C552.944 444.067 552.761 445.823 552.765 449.803ZM570.334 468.931C570.334 472.628 570.522 474.14 570.751 472.292C570.98 470.443 570.98 467.42 570.751 465.571C570.522 463.722 570.334 465.235 570.334 468.931ZM160.931 484.441C160.931 489.843 161.105 492.053 161.318 489.352C161.531 486.651 161.531 482.231 161.318 479.529C161.105 476.828 160.931 479.038 160.931 484.441ZM553.807 485.475C553.807 489.74 553.99 491.485 554.213 489.352C554.436 487.22 554.436 483.73 554.213 481.597C553.99 479.465 553.807 481.21 553.807 485.475ZM242.608 489.093C242.604 494.212 242.779 496.436 242.996 494.036C243.212 491.636 243.216 487.448 243.001 484.73C242.788 482.012 242.611 483.975 242.608 489.093ZM963.225 485.992C963.23 489.404 963.424 490.674 963.654 488.816C963.884 486.958 963.88 484.167 963.644 482.613C963.407 481.059 963.219 482.58 963.225 485.992ZM881.562 494.263C881.567 498.244 881.753 499.745 881.977 497.601C882.201 495.455 882.197 492.198 881.969 490.363C881.74 488.527 881.557 490.282 881.562 494.263ZM569.29 504.603C569.295 508.015 569.488 509.285 569.719 507.427C569.948 505.569 569.944 502.778 569.708 501.224C569.472 499.67 569.283 501.191 569.29 504.603ZM962.181 518.561C962.181 521.689 962.374 522.969 962.611 521.404C962.848 519.84 962.848 517.282 962.611 515.718C962.374 514.153 962.181 515.433 962.181 518.561ZM161.902 520.629C161.902 523.757 162.096 525.037 162.333 523.472C162.569 521.908 162.569 519.35 162.333 517.786C162.096 516.221 161.902 517.501 161.902 520.629ZM243.595 521.146C243.6 524.558 243.793 525.829 244.024 523.971C244.254 522.113 244.249 519.321 244.014 517.767C243.777 516.213 243.589 517.734 243.595 521.146ZM554.841 522.697C554.841 526.962 555.024 528.707 555.247 526.574C555.47 524.442 555.47 520.953 555.247 518.82C555.024 516.688 554.841 518.432 554.841 522.697ZM880.509 522.18C880.514 525.592 880.708 526.863 880.938 525.005C881.168 523.147 881.164 520.355 880.928 518.801C880.691 517.247 880.503 518.768 880.509 522.18ZM568.283 538.206C568.283 542.471 568.466 544.216 568.688 542.083C568.911 539.951 568.911 536.462 568.688 534.329C568.466 532.197 568.283 533.941 568.283 538.206ZM961.147 543.376C961.147 546.504 961.34 547.784 961.577 546.219C961.814 544.655 961.814 542.097 961.577 540.533C961.34 538.968 961.147 540.248 961.147 543.376ZM162.936 545.444C162.936 548.571 163.13 549.851 163.367 548.287C163.603 546.723 163.603 544.165 163.367 542.6C163.13 541.036 162.936 542.316 162.936 545.444ZM555.867 559.402C555.872 563.383 556.058 564.884 556.283 562.74C556.506 560.594 556.503 557.337 556.274 555.502C556.046 553.666 555.863 555.421 555.867 559.402ZM567.232 572.326C567.232 576.023 567.42 577.536 567.649 575.687C567.878 573.838 567.878 570.815 567.649 568.966C567.42 567.117 567.232 568.63 567.232 572.326ZM556.893 595.073C556.893 598.77 557.081 600.282 557.309 598.434C557.539 596.585 557.539 593.562 557.309 591.713C557.081 589.864 556.893 591.377 556.893 595.073ZM566.206 604.896C566.212 608.877 566.398 610.378 566.622 608.234C566.845 606.088 566.842 602.831 566.614 600.996C566.385 599.16 566.202 600.915 566.206 604.896ZM557.927 631.262C557.927 634.958 558.115 636.471 558.343 634.622C558.573 632.773 558.573 629.75 558.343 627.901C558.115 626.053 557.927 627.565 557.927 631.262ZM565.154 639.016C565.159 642.428 565.352 643.699 565.583 641.841C565.812 639.983 565.808 637.191 565.573 635.637C565.336 634.083 565.148 635.604 565.154 639.016ZM558.977 664.348C558.977 668.613 559.16 670.359 559.382 668.225C559.606 666.093 559.606 662.604 559.382 660.471C559.16 658.339 558.977 660.083 558.977 664.348ZM564.154 673.137C564.157 677.686 564.339 679.419 564.557 676.987C564.776 674.555 564.773 670.833 564.551 668.716C564.329 666.598 564.15 668.587 564.154 673.137ZM560.024 699.503C560.024 704.336 560.203 706.313 560.42 703.897C560.639 701.48 560.639 697.525 560.42 695.108C560.203 692.692 560.024 694.669 560.024 699.503ZM563.076 705.706C563.076 708.834 563.269 710.114 563.506 708.55C563.743 706.985 563.743 704.427 563.506 702.863C563.269 701.298 563.076 702.579 563.076 705.706ZM561.047 741.894C561.887 750.484 562.892 751.244 562.648 743.103C562.541 739.557 561.994 736.37 561.433 736.023C560.777 735.618 560.64 737.72 561.047 741.894ZM513.93 796.41C515.788 796.639 518.58 796.635 520.134 796.399C521.688 796.163 520.167 795.974 516.755 795.981C513.343 795.986 512.072 796.179 513.93 796.41ZM528.955 863.901C528.955 867.028 529.149 868.309 529.385 866.744C529.622 865.18 529.622 862.622 529.385 861.057C529.149 859.493 528.955 860.773 528.955 863.901ZM413.029 868.295C412.87 873.344 413.115 874.238 414.652 874.225C415.862 874.213 416.055 873.951 415.235 873.429C414.561 873.001 413.831 870.332 413.612 867.5L413.215 862.35L413.029 868.295ZM595.173 872.689C595.176 877.239 595.358 878.972 595.576 876.54C595.795 874.108 595.792 870.386 595.57 868.268C595.347 866.151 595.168 868.14 595.173 872.689ZM379.756 915.081C383.419 918.778 386.649 921.802 386.934 921.802C387.218 921.802 384.453 918.778 380.79 915.081C377.127 911.385 373.897 908.361 373.612 908.361C373.328 908.361 376.093 911.385 379.756 915.081ZM727.129 931.883L721.477 937.828L727.422 932.177C732.946 926.926 733.841 925.938 733.074 925.938C732.912 925.938 730.237 928.613 727.129 931.883ZM398.367 933.693C401.456 936.82 404.216 939.379 404.501 939.379C404.785 939.379 402.49 936.82 399.401 933.693C396.313 930.565 393.552 928.006 393.268 928.006C392.983 928.006 395.279 930.565 398.367 933.693ZM343.051 993.145C346.428 996.557 349.422 999.348 349.706 999.348C349.991 999.348 347.462 996.557 344.085 993.145C340.708 989.733 337.713 986.941 337.429 986.941C337.145 986.941 339.674 989.733 343.051 993.145Z" fill="#B98F47"/>
</svg>
