<svg width="506" height="791" viewBox="0 0 506 791" fill="none" xmlns="http://www.w3.org/2000/svg">
<rect width="225.728" height="225.728" fill="#BB8C3A"/>
<path d="M33.7299 127.873V97.3276H44.4088C46.5367 97.3276 48.2917 97.6955 49.6738 98.4313C51.0559 99.1571 52.085 100.137 52.7611 101.369C53.4373 102.593 53.7753 103.95 53.7753 105.441C53.7753 106.754 53.5417 107.838 53.0743 108.693C52.6169 109.548 52.0104 110.224 51.2547 110.721C50.509 111.218 49.6986 111.586 48.8236 111.825V112.123C49.7583 112.183 50.6979 112.511 51.6425 113.107C52.5871 113.704 53.3776 114.559 54.014 115.673C54.6503 116.786 54.9685 118.149 54.9685 119.759C54.9685 121.291 54.6205 122.668 53.9245 123.891C53.2285 125.114 52.1297 126.083 50.6283 126.799C49.1269 127.515 47.1731 127.873 44.7668 127.873H33.7299ZM37.4287 124.592H44.7668C47.183 124.592 48.8982 124.124 49.9124 123.19C50.9365 122.245 51.4486 121.102 51.4486 119.759C51.4486 118.725 51.1851 117.771 50.6581 116.896C50.1311 116.011 49.3804 115.305 48.406 114.778C47.4316 114.241 46.2782 113.972 44.9458 113.972H37.4287V124.592ZM37.4287 110.751H44.2895C45.4032 110.751 46.4074 110.532 47.3023 110.095C48.2071 109.657 48.9231 109.041 49.45 108.245C49.987 107.45 50.2554 106.515 50.2554 105.441C50.2554 104.099 49.7881 102.96 48.8535 102.026C47.9188 101.081 46.4373 100.609 44.4088 100.609H37.4287V110.751ZM61.0463 127.873V97.3276H71.7253C73.8531 97.3276 75.6081 97.6955 76.9902 98.4313C78.3723 99.1571 79.4014 100.137 80.0775 101.369C80.7537 102.593 81.0917 103.95 81.0917 105.441C81.0917 106.754 80.8581 107.838 80.3907 108.693C79.9334 109.548 79.3268 110.224 78.5711 110.721C77.8254 111.218 77.015 111.586 76.14 111.825V112.123C77.0747 112.183 78.0143 112.511 78.9589 113.107C79.9035 113.704 80.694 114.559 81.3304 115.673C81.9667 116.786 82.2849 118.149 82.2849 119.759C82.2849 121.291 81.9369 122.668 81.2409 123.891C80.5449 125.114 79.4461 126.083 77.9447 126.799C76.4433 127.515 74.4895 127.873 72.0832 127.873H61.0463ZM64.7451 124.592H72.0832C74.4994 124.592 76.2146 124.124 77.2288 123.19C78.253 122.245 78.765 121.102 78.765 119.759C78.765 118.725 78.5015 117.771 77.9745 116.896C77.4476 116.011 76.6968 115.305 75.7224 114.778C74.748 114.241 73.5946 113.972 72.2622 113.972H64.7451V124.592ZM64.7451 110.751H71.6059C72.7196 110.751 73.7238 110.532 74.6187 110.095C75.5235 109.657 76.2395 109.041 76.7664 108.245C77.3034 107.45 77.5718 106.515 77.5718 105.441C77.5718 104.099 77.1045 102.96 76.1699 102.026C75.2352 101.081 73.7537 100.609 71.7253 100.609H64.7451V110.751ZM97.6098 128.291C95.5615 128.291 93.7519 127.928 92.1809 127.202C90.6198 126.466 89.4017 125.457 88.5267 124.174C87.6517 122.882 87.2192 121.41 87.2292 119.759C87.2192 118.467 87.4728 117.274 87.9898 116.18C88.5069 115.076 89.2128 114.156 90.1077 113.421C91.0125 112.675 92.0218 112.203 93.1354 112.004V111.825C91.6738 111.447 90.5104 110.627 89.6454 109.364C88.7803 108.091 88.3527 106.644 88.3627 105.024C88.3527 103.472 88.7455 102.085 89.5409 100.862C90.3364 99.6394 91.4302 98.6749 92.8222 97.9689C94.2242 97.263 95.8201 96.91 97.6098 96.91C99.3797 96.91 100.961 97.263 102.353 97.9689C103.745 98.6749 104.839 99.6394 105.634 100.862C106.439 102.085 106.847 103.472 106.857 105.024C106.847 106.644 106.405 108.091 105.53 109.364C104.665 110.627 103.516 111.447 102.084 111.825V112.004C103.188 112.203 104.182 112.675 105.067 113.421C105.952 114.156 106.658 115.076 107.185 116.18C107.712 117.274 107.981 118.467 107.991 119.759C107.981 121.41 107.533 122.882 106.648 124.174C105.773 125.457 104.555 126.466 102.994 127.202C101.443 127.928 99.6482 128.291 97.6098 128.291ZM97.6098 125.009C98.9919 125.009 100.185 124.786 101.189 124.338C102.194 123.891 102.969 123.259 103.516 122.444C104.063 121.629 104.341 120.674 104.351 119.58C104.341 118.427 104.043 117.408 103.456 116.523C102.87 115.638 102.069 114.942 101.055 114.435C100.051 113.928 98.9025 113.674 97.6098 113.674C96.3073 113.674 95.1439 113.928 94.1198 114.435C93.1056 114.942 92.3052 115.638 91.7185 116.523C91.1418 117.408 90.8584 118.427 90.8684 119.58C90.8584 120.674 91.1219 121.629 91.6588 122.444C92.2057 123.259 92.9863 123.891 94.0005 124.338C95.0147 124.786 96.2178 125.009 97.6098 125.009ZM97.6098 110.512C98.7036 110.512 99.6731 110.294 100.518 109.856C101.373 109.419 102.045 108.807 102.532 108.021C103.019 107.236 103.268 106.316 103.277 105.262C103.268 104.228 103.024 103.328 102.547 102.563C102.069 101.787 101.408 101.191 100.563 100.773C99.7178 100.345 98.7334 100.132 97.6098 100.132C96.4664 100.132 95.4671 100.345 94.612 100.773C93.7569 101.191 93.0956 101.787 92.6283 102.563C92.161 103.328 91.9323 104.228 91.9422 105.262C91.9323 106.316 92.1659 107.236 92.6432 108.021C93.1304 108.807 93.8016 109.419 94.6567 109.856C95.5118 110.294 96.4962 110.512 97.6098 110.512ZM138.823 106.873H135.124C134.905 105.809 134.523 104.874 133.976 104.069C133.439 103.264 132.783 102.588 132.007 102.041C131.241 101.484 130.391 101.066 129.457 100.788C128.522 100.509 127.548 100.37 126.533 100.37C124.684 100.37 123.008 100.838 121.507 101.772C120.016 102.707 118.827 104.084 117.942 105.904C117.067 107.723 116.63 109.955 116.63 112.6C116.63 115.245 117.067 117.477 117.942 119.297C118.827 121.117 120.016 122.494 121.507 123.428C123.008 124.363 124.684 124.83 126.533 124.83C127.548 124.83 128.522 124.691 129.457 124.413C130.391 124.134 131.241 123.722 132.007 123.175C132.783 122.618 133.439 121.937 133.976 121.132C134.523 120.316 134.905 119.382 135.124 118.328H138.823C138.545 119.889 138.038 121.286 137.302 122.519C136.566 123.752 135.651 124.801 134.557 125.666C133.464 126.521 132.236 127.172 130.874 127.619C129.521 128.067 128.075 128.291 126.533 128.291C123.928 128.291 121.611 127.654 119.583 126.382C117.555 125.109 115.959 123.299 114.795 120.953C113.632 118.606 113.05 115.822 113.05 112.6C113.05 109.379 113.632 106.595 114.795 104.248C115.959 101.901 117.555 100.092 119.583 98.8191C121.611 97.5463 123.928 96.91 126.533 96.91C128.075 96.91 129.521 97.1337 130.874 97.5811C132.236 98.0286 133.464 98.6848 134.557 99.5499C135.651 100.405 136.566 101.449 137.302 102.682C138.038 103.905 138.545 105.302 138.823 106.873ZM154.584 128.291C152.616 128.291 150.861 127.953 149.319 127.276C147.788 126.6 146.57 125.661 145.665 124.458C144.77 123.244 144.283 121.838 144.204 120.237H147.962C148.042 121.221 148.38 122.071 148.976 122.787C149.573 123.493 150.353 124.04 151.318 124.428C152.282 124.816 153.351 125.009 154.525 125.009C155.837 125.009 157 124.781 158.015 124.323C159.029 123.866 159.824 123.23 160.401 122.414C160.978 121.599 161.266 120.654 161.266 119.58C161.266 118.457 160.988 117.468 160.431 116.612C159.874 115.747 159.059 115.071 157.985 114.584C156.911 114.097 155.598 113.853 154.047 113.853H151.601V110.572H154.047C155.26 110.572 156.324 110.353 157.239 109.916C158.164 109.478 158.885 108.862 159.402 108.066C159.929 107.271 160.192 106.336 160.192 105.262C160.192 104.228 159.964 103.328 159.506 102.563C159.049 101.797 158.402 101.2 157.567 100.773C156.742 100.345 155.768 100.132 154.644 100.132C153.59 100.132 152.596 100.325 151.661 100.713C150.736 101.091 149.981 101.643 149.394 102.369C148.807 103.085 148.489 103.95 148.439 104.964H144.86C144.92 103.363 145.402 101.961 146.307 100.758C147.211 99.5449 148.395 98.6003 149.856 97.9242C151.328 97.248 152.944 96.91 154.704 96.91C156.593 96.91 158.214 97.2928 159.566 98.0584C160.918 98.8141 161.957 99.8134 162.683 101.056C163.409 102.299 163.772 103.642 163.772 105.083C163.772 106.803 163.319 108.27 162.415 109.483C161.52 110.696 160.302 111.536 158.76 112.004V112.242C160.689 112.561 162.196 113.381 163.28 114.703C164.363 116.016 164.905 117.642 164.905 119.58C164.905 121.241 164.453 122.732 163.548 124.055C162.653 125.367 161.43 126.401 159.879 127.157C158.328 127.913 156.563 128.291 154.584 128.291ZM172.795 127.873H168.917L180.133 97.3276H183.951L195.167 127.873H191.29L182.162 102.16H181.923L172.795 127.873ZM174.227 115.941H189.858V119.222H174.227V115.941Z" fill="white"/>
<rect x="279.772" width="225.728" height="225.728" fill="#0876A9"/>
<rect x="279.772" y="565.092" width="225.728" height="225.728" fill="#055A81"/>
<rect x="279.772" y="279.335" width="225.728" height="225.728" fill="#ECF4F9"/>
<path d="M328.156 128.291C325.909 128.291 323.995 127.679 322.414 126.456C320.833 125.223 319.625 123.438 318.79 121.102C317.954 118.755 317.537 115.921 317.537 112.6C317.537 109.299 317.954 106.48 318.79 104.144C319.635 101.797 320.848 100.007 322.429 98.7743C324.02 97.5314 325.929 96.91 328.156 96.91C330.383 96.91 332.287 97.5314 333.868 98.7743C335.459 100.007 336.672 101.797 337.508 104.144C338.353 106.48 338.775 109.299 338.775 112.6C338.775 115.921 338.358 118.755 337.522 121.102C336.687 123.438 335.479 125.223 333.898 126.456C332.317 127.679 330.403 128.291 328.156 128.291ZM328.156 125.009C330.383 125.009 332.113 123.936 333.346 121.788C334.579 119.64 335.196 116.578 335.196 112.6C335.196 109.955 334.912 107.703 334.346 105.844C333.789 103.985 332.983 102.568 331.929 101.593C330.885 100.619 329.628 100.132 328.156 100.132C325.949 100.132 324.223 101.22 322.981 103.398C321.738 105.566 321.116 108.633 321.116 112.6C321.116 115.245 321.395 117.492 321.951 119.342C322.508 121.191 323.309 122.598 324.353 123.563C325.407 124.527 326.674 125.009 328.156 125.009ZM354.227 128.291C352.179 128.291 350.369 127.928 348.798 127.202C347.237 126.466 346.019 125.457 345.144 124.174C344.269 122.882 343.836 121.41 343.846 119.759C343.836 118.467 344.09 117.274 344.607 116.18C345.124 115.076 345.83 114.156 346.725 113.421C347.63 112.675 348.639 112.203 349.753 112.004V111.825C348.291 111.447 347.128 110.627 346.263 109.364C345.397 108.091 344.97 106.644 344.98 105.024C344.97 103.472 345.363 102.085 346.158 100.862C346.954 99.6394 348.047 98.6749 349.439 97.9689C350.841 97.263 352.437 96.91 354.227 96.91C355.997 96.91 357.578 97.263 358.97 97.9689C360.362 98.6749 361.456 99.6394 362.251 100.862C363.057 102.085 363.464 103.472 363.474 105.024C363.464 106.644 363.022 108.091 362.147 109.364C361.282 110.627 360.133 111.447 358.701 111.825V112.004C359.805 112.203 360.799 112.675 361.684 113.421C362.569 114.156 363.275 115.076 363.802 116.18C364.329 117.274 364.598 118.467 364.608 119.759C364.598 121.41 364.15 122.882 363.265 124.174C362.39 125.457 361.172 126.466 359.611 127.202C358.06 127.928 356.265 128.291 354.227 128.291ZM354.227 125.009C355.609 125.009 356.802 124.786 357.807 124.338C358.811 123.891 359.586 123.259 360.133 122.444C360.68 121.629 360.959 120.674 360.969 119.58C360.959 118.427 360.66 117.408 360.074 116.523C359.487 115.638 358.687 114.942 357.672 114.435C356.668 113.928 355.52 113.674 354.227 113.674C352.924 113.674 351.761 113.928 350.737 114.435C349.723 114.942 348.922 115.638 348.336 116.523C347.759 117.408 347.476 118.427 347.486 119.58C347.476 120.674 347.739 121.629 348.276 122.444C348.823 123.259 349.603 123.891 350.618 124.338C351.632 124.786 352.835 125.009 354.227 125.009ZM354.227 110.512C355.321 110.512 356.29 110.294 357.135 109.856C357.991 109.419 358.662 108.807 359.149 108.021C359.636 107.236 359.885 106.316 359.895 105.262C359.885 104.228 359.641 103.328 359.164 102.563C358.687 101.787 358.025 101.191 357.18 100.773C356.335 100.345 355.351 100.132 354.227 100.132C353.084 100.132 352.084 100.345 351.229 100.773C350.374 101.191 349.713 101.787 349.245 102.563C348.778 103.328 348.549 104.228 348.559 105.262C348.549 106.316 348.783 107.236 349.26 108.021C349.748 108.807 350.419 109.419 351.274 109.856C352.129 110.294 353.113 110.512 354.227 110.512ZM371.278 127.873L384.94 100.847V100.609H369.19V97.3276H388.758V100.788L375.156 127.873H371.278ZM403.804 128.291C402.551 128.271 401.298 128.032 400.045 127.575C398.792 127.117 397.649 126.347 396.615 125.263C395.581 124.169 394.75 122.693 394.124 120.833C393.498 118.964 393.184 116.617 393.184 113.794C393.184 111.089 393.438 108.693 393.945 106.605C394.452 104.507 395.188 102.742 396.152 101.31C397.117 99.8681 398.28 98.7743 399.643 98.0286C401.015 97.2828 402.561 96.91 404.281 96.91C405.991 96.91 407.513 97.253 408.845 97.9391C410.187 98.6152 411.281 99.5598 412.126 100.773C412.971 101.986 413.518 103.383 413.767 104.964H410.128C409.79 103.592 409.133 102.453 408.159 101.548C407.184 100.644 405.892 100.191 404.281 100.191C401.915 100.191 400.05 101.22 398.688 103.279C397.336 105.337 396.655 108.225 396.645 111.944H396.883C397.44 111.099 398.101 110.378 398.867 109.781C399.643 109.175 400.498 108.708 401.432 108.379C402.367 108.051 403.356 107.887 404.4 107.887C406.15 107.887 407.751 108.325 409.203 109.2C410.655 110.065 411.818 111.263 412.693 112.794C413.568 114.316 414.005 116.061 414.005 118.029C414.005 119.919 413.583 121.649 412.738 123.22C411.893 124.781 410.704 126.024 409.173 126.948C407.652 127.863 405.862 128.311 403.804 128.291ZM403.804 125.009C405.057 125.009 406.18 124.696 407.174 124.07C408.179 123.443 408.969 122.603 409.546 121.549C410.133 120.495 410.426 119.322 410.426 118.029C410.426 116.767 410.143 115.618 409.576 114.584C409.019 113.54 408.248 112.71 407.264 112.093C406.29 111.477 405.176 111.169 403.923 111.169C402.978 111.169 402.098 111.357 401.283 111.735C400.468 112.103 399.752 112.61 399.135 113.257C398.529 113.903 398.052 114.644 397.704 115.479C397.356 116.304 397.182 117.174 397.182 118.089C397.182 119.302 397.465 120.436 398.032 121.49C398.608 122.544 399.394 123.394 400.388 124.04C401.393 124.686 402.531 125.009 403.804 125.009ZM421.66 127.873H417.783L428.999 97.3276H432.817L444.033 127.873H440.155L431.027 102.16H430.788L421.66 127.873ZM423.092 115.941H438.723V119.222H423.092V115.941ZM457.978 96.91C459.231 96.9199 460.484 97.1586 461.736 97.6259C462.989 98.0932 464.133 98.8688 465.167 99.9526C466.201 101.026 467.031 102.493 467.658 104.352C468.284 106.212 468.597 108.544 468.597 111.347C468.597 114.062 468.339 116.473 467.822 118.581C467.315 120.679 466.579 122.449 465.614 123.891C464.66 125.333 463.496 126.426 462.124 127.172C460.762 127.918 459.221 128.291 457.501 128.291C455.79 128.291 454.264 127.953 452.922 127.276C451.589 126.59 450.496 125.641 449.641 124.428C448.795 123.205 448.253 121.788 448.015 120.177H451.654C451.982 121.579 452.633 122.737 453.608 123.652C454.592 124.557 455.89 125.009 457.501 125.009C459.857 125.009 461.717 123.98 463.079 121.922C464.451 119.864 465.137 116.955 465.137 113.197H464.898C464.342 114.032 463.68 114.753 462.915 115.36C462.149 115.966 461.299 116.433 460.364 116.762C459.43 117.09 458.435 117.254 457.381 117.254C455.631 117.254 454.026 116.821 452.564 115.956C451.112 115.081 449.949 113.883 449.074 112.362C448.209 110.83 447.776 109.08 447.776 107.112C447.776 105.242 448.194 103.532 449.029 101.981C449.874 100.42 451.057 99.177 452.579 98.2523C454.11 97.3276 455.91 96.8801 457.978 96.91ZM457.978 100.191C456.725 100.191 455.597 100.504 454.592 101.131C453.598 101.747 452.807 102.583 452.221 103.637C451.644 104.681 451.356 105.839 451.356 107.112C451.356 108.384 451.634 109.543 452.191 110.587C452.758 111.621 453.528 112.446 454.503 113.063C455.487 113.669 456.606 113.972 457.859 113.972C458.803 113.972 459.683 113.789 460.499 113.421C461.314 113.043 462.025 112.531 462.631 111.884C463.248 111.228 463.73 110.487 464.078 109.662C464.426 108.827 464.6 107.957 464.6 107.052C464.6 105.859 464.312 104.74 463.735 103.696C463.168 102.652 462.383 101.807 461.378 101.161C460.384 100.514 459.251 100.191 457.978 100.191Z" fill="white"/>
<path d="M318.73 406.873V376.328H337.165V379.609H322.429V389.93H336.21V393.211H322.429V403.592H337.403V406.873H318.73ZM368.411 385.873H364.712C364.493 384.809 364.111 383.874 363.564 383.069C363.027 382.264 362.37 381.588 361.595 381.041C360.829 380.484 359.979 380.066 359.045 379.788C358.11 379.509 357.135 379.37 356.121 379.37C354.272 379.37 352.596 379.838 351.095 380.772C349.603 381.707 348.415 383.084 347.53 384.904C346.655 386.723 346.218 388.955 346.218 391.6C346.218 394.245 346.655 396.477 347.53 398.297C348.415 400.117 349.603 401.494 351.095 402.428C352.596 403.363 354.272 403.83 356.121 403.83C357.135 403.83 358.11 403.691 359.045 403.413C359.979 403.134 360.829 402.722 361.595 402.175C362.37 401.618 363.027 400.937 363.564 400.132C364.111 399.316 364.493 398.382 364.712 397.328H368.411C368.133 398.889 367.625 400.286 366.89 401.519C366.154 402.752 365.239 403.801 364.145 404.666C363.052 405.521 361.824 406.172 360.461 406.619C359.109 407.067 357.662 407.291 356.121 407.291C353.516 407.291 351.199 406.654 349.171 405.382C347.143 404.109 345.547 402.299 344.383 399.953C343.22 397.606 342.638 394.822 342.638 391.6C342.638 388.379 343.22 385.595 344.383 383.248C345.547 380.901 347.143 379.092 349.171 377.819C351.199 376.546 353.516 375.91 356.121 375.91C357.662 375.91 359.109 376.134 360.461 376.581C361.824 377.029 363.052 377.685 364.145 378.55C365.239 379.405 366.154 380.449 366.89 381.682C367.625 382.905 368.133 384.302 368.411 385.873ZM374.388 406.873V376.328H392.703V379.609H378.087V389.93H391.331V393.211H378.087V406.873H374.388ZM397.786 400.609V397.566L411.209 376.328H413.416V381.041H411.925L401.783 397.089V397.328H419.859V400.609H397.786ZM412.163 406.873V399.684V398.267V376.328H415.683V406.873H412.163ZM425.986 406.873V376.328H444.301V379.609H429.685V389.93H442.929V393.211H429.685V406.873H425.986ZM459.824 375.91C461.076 375.92 462.329 376.159 463.582 376.626C464.835 377.093 465.978 377.869 467.013 378.953C468.047 380.026 468.877 381.493 469.503 383.352C470.13 385.212 470.443 387.544 470.443 390.347C470.443 393.062 470.184 395.473 469.667 397.581C469.16 399.679 468.424 401.449 467.46 402.891C466.505 404.333 465.342 405.426 463.97 406.172C462.608 406.918 461.067 407.291 459.346 407.291C457.636 407.291 456.11 406.953 454.768 406.276C453.435 405.59 452.341 404.641 451.486 403.428C450.641 402.205 450.099 400.788 449.861 399.177H453.5C453.828 400.579 454.479 401.737 455.454 402.652C456.438 403.557 457.736 404.009 459.346 404.009C461.703 404.009 463.562 402.98 464.924 400.922C466.297 398.864 466.983 395.955 466.983 392.197H466.744C466.187 393.032 465.526 393.753 464.76 394.36C463.995 394.966 463.145 395.433 462.21 395.762C461.275 396.09 460.281 396.254 459.227 396.254C457.477 396.254 455.871 395.821 454.41 394.956C452.958 394.081 451.795 392.883 450.92 391.362C450.054 389.83 449.622 388.08 449.622 386.112C449.622 384.242 450.04 382.532 450.875 380.981C451.72 379.42 452.903 378.177 454.424 377.252C455.956 376.328 457.755 375.88 459.824 375.91ZM459.824 379.191C458.571 379.191 457.442 379.504 456.438 380.131C455.444 380.747 454.653 381.583 454.067 382.637C453.49 383.681 453.201 384.839 453.201 386.112C453.201 387.384 453.48 388.543 454.037 389.587C454.603 390.621 455.374 391.446 456.348 392.063C457.333 392.669 458.451 392.972 459.704 392.972C460.649 392.972 461.529 392.789 462.344 392.421C463.16 392.043 463.87 391.531 464.477 390.884C465.094 390.228 465.576 389.487 465.924 388.662C466.272 387.827 466.446 386.957 466.446 386.052C466.446 384.859 466.157 383.74 465.581 382.696C465.014 381.652 464.228 380.807 463.224 380.161C462.23 379.514 461.096 379.191 459.824 379.191Z" fill="#0876A9"/>
<path d="M330.156 686.291C327.909 686.291 325.995 685.679 324.414 684.456C322.833 683.223 321.625 681.438 320.79 679.102C319.954 676.755 319.537 673.921 319.537 670.6C319.537 667.299 319.954 664.48 320.79 662.144C321.635 659.797 322.848 658.007 324.429 656.774C326.02 655.531 327.929 654.91 330.156 654.91C332.383 654.91 334.287 655.531 335.868 656.774C337.459 658.007 338.672 659.797 339.508 662.144C340.353 664.48 340.775 667.299 340.775 670.6C340.775 673.921 340.358 676.755 339.522 679.102C338.687 681.438 337.479 683.223 335.898 684.456C334.317 685.679 332.403 686.291 330.156 686.291ZM330.156 683.009C332.383 683.009 334.113 681.936 335.346 679.788C336.579 677.64 337.196 674.578 337.196 670.6C337.196 667.955 336.912 665.703 336.346 663.844C335.789 661.985 334.983 660.568 333.929 659.593C332.885 658.619 331.628 658.132 330.156 658.132C327.949 658.132 326.223 659.22 324.981 661.398C323.738 663.566 323.116 666.633 323.116 670.6C323.116 673.245 323.395 675.492 323.951 677.342C324.508 679.191 325.309 680.598 326.353 681.563C327.407 682.527 328.674 683.009 330.156 683.009ZM355.988 686.291C354.238 686.291 352.662 685.943 351.26 685.247C349.858 684.551 348.735 683.596 347.89 682.383C347.045 681.17 346.582 679.788 346.503 678.237H350.082C350.221 679.619 350.848 680.762 351.961 681.667C353.085 682.562 354.427 683.009 355.988 683.009C357.241 683.009 358.355 682.716 359.329 682.129C360.314 681.543 361.084 680.737 361.641 679.713C362.208 678.679 362.491 677.511 362.491 676.208C362.491 674.876 362.198 673.688 361.611 672.644C361.035 671.59 360.239 670.759 359.225 670.153C358.211 669.546 357.052 669.238 355.75 669.228C354.815 669.218 353.856 669.362 352.871 669.661C351.887 669.949 351.076 670.322 350.44 670.779L346.98 670.362L348.829 655.328H364.699V658.609H351.932L350.858 667.617H351.037C351.663 667.12 352.449 666.708 353.393 666.379C354.338 666.051 355.322 665.887 356.346 665.887C358.216 665.887 359.881 666.335 361.343 667.23C362.814 668.115 363.968 669.328 364.803 670.869C365.648 672.41 366.071 674.17 366.071 676.149C366.071 678.097 365.633 679.838 364.758 681.369C363.893 682.89 362.7 684.093 361.179 684.978C359.657 685.853 357.927 686.291 355.988 686.291ZM381.541 686.291C379.791 686.291 378.215 685.943 376.813 685.247C375.411 684.551 374.288 683.596 373.442 682.383C372.597 681.17 372.135 679.788 372.055 678.237H375.635C375.774 679.619 376.401 680.762 377.514 681.667C378.638 682.562 379.98 683.009 381.541 683.009C382.794 683.009 383.908 682.716 384.882 682.129C385.866 681.543 386.637 680.737 387.194 679.713C387.761 678.679 388.044 677.511 388.044 676.208C388.044 674.876 387.751 673.688 387.164 672.644C386.587 671.59 385.792 670.759 384.778 670.153C383.763 669.546 382.605 669.238 381.302 669.228C380.368 669.218 379.408 669.362 378.424 669.661C377.44 669.949 376.629 670.322 375.993 670.779L372.533 670.362L374.382 655.328H390.251V658.609H377.484L376.41 667.617H376.589C377.216 667.12 378.001 666.708 378.946 666.379C379.891 666.051 380.875 665.887 381.899 665.887C383.768 665.887 385.434 666.335 386.896 667.23C388.367 668.115 389.521 669.328 390.356 670.869C391.201 672.41 391.624 674.17 391.624 676.149C391.624 678.097 391.186 679.838 390.311 681.369C389.446 682.89 388.253 684.093 386.731 684.978C385.21 685.853 383.48 686.291 381.541 686.291ZM399.338 685.873H395.46L406.676 655.328H410.494L421.71 685.873H417.832L408.705 660.16H408.466L399.338 685.873ZM400.77 673.941H416.401V677.222H400.77V673.941ZM435.715 686.291C433.667 686.291 431.857 685.928 430.286 685.202C428.725 684.466 427.507 683.457 426.632 682.174C425.757 680.882 425.325 679.41 425.335 677.759C425.325 676.467 425.578 675.274 426.095 674.18C426.612 673.076 427.318 672.156 428.213 671.421C429.118 670.675 430.127 670.203 431.241 670.004V669.825C429.779 669.447 428.616 668.627 427.751 667.364C426.886 666.091 426.458 664.644 426.468 663.024C426.458 661.472 426.851 660.085 427.646 658.862C428.442 657.639 429.536 656.675 430.928 655.969C432.33 655.263 433.926 654.91 435.715 654.91C437.485 654.91 439.066 655.263 440.458 655.969C441.85 656.675 442.944 657.639 443.739 658.862C444.545 660.085 444.953 661.472 444.962 663.024C444.953 664.644 444.51 666.091 443.635 667.364C442.77 668.627 441.622 669.447 440.19 669.825V670.004C441.293 670.203 442.288 670.675 443.173 671.421C444.058 672.156 444.764 673.076 445.291 674.18C445.818 675.274 446.086 676.467 446.096 677.759C446.086 679.41 445.639 680.882 444.754 682.174C443.879 683.457 442.661 684.466 441.1 685.202C439.548 685.928 437.754 686.291 435.715 686.291ZM435.715 683.009C437.097 683.009 438.291 682.786 439.295 682.338C440.299 681.891 441.075 681.259 441.622 680.444C442.168 679.629 442.447 678.674 442.457 677.58C442.447 676.427 442.149 675.408 441.562 674.523C440.975 673.638 440.175 672.942 439.161 672.435C438.156 671.928 437.008 671.674 435.715 671.674C434.413 671.674 433.249 671.928 432.225 672.435C431.211 672.942 430.411 673.638 429.824 674.523C429.247 675.408 428.964 676.427 428.974 677.58C428.964 678.674 429.227 679.629 429.764 680.444C430.311 681.259 431.092 681.891 432.106 682.338C433.12 682.786 434.323 683.009 435.715 683.009ZM435.715 668.512C436.809 668.512 437.779 668.294 438.624 667.856C439.479 667.419 440.15 666.807 440.637 666.021C441.124 665.236 441.373 664.316 441.383 663.262C441.373 662.228 441.129 661.328 440.652 660.563C440.175 659.787 439.514 659.191 438.668 658.773C437.823 658.345 436.839 658.132 435.715 658.132C434.572 658.132 433.573 658.345 432.717 658.773C431.862 659.191 431.201 659.787 430.734 660.563C430.266 661.328 430.038 662.228 430.048 663.262C430.038 664.316 430.271 665.236 430.749 666.021C431.236 666.807 431.907 667.419 432.762 667.856C433.617 668.294 434.602 668.512 435.715 668.512ZM462.551 655.328V685.873H458.852V659.205H458.673L451.215 664.157V660.399L458.852 655.328H462.551Z" fill="white"/>
</svg>
