<svg width="2229" height="1584" viewBox="0 0 2229 1584" fill="none" xmlns="http://www.w3.org/2000/svg">
<path d="M1275.5 3.75724C1270.8 7.45028 1269.79 16.515 1269.12 68.5532L1268.11 128.985L1256.36 129.992C1236.56 131.335 1229.84 133.685 1226.48 140.4C1223.8 145.1 1224.47 148.793 1229.51 155.172C1238.91 166.922 1239.24 210.567 1230.51 213.253C1158.33 236.754 1099.24 312.965 1067.68 422.749C1060.63 446.922 1060.3 454.979 1059.29 651.717L1057.95 855.841H1355.07C1518.91 855.841 1652.53 854.498 1652.53 853.155C1652.53 851.813 1644.13 842.412 1634.06 832.34L1615.6 814.211V754.786V695.362L1606.2 687.305C1600.82 682.94 1589.41 676.561 1581.02 673.204L1565.24 667.496L1564.57 611.765C1563.56 548.312 1564.23 549.655 1529.98 537.569L1513.2 531.526L1511.18 489.895C1510.18 466.73 1507.49 440.207 1505.14 431.142C1480.97 328.744 1418.19 240.783 1352.72 217.953L1335.26 211.91L1334.25 187.066C1333.58 165.579 1334.25 161.215 1340.3 155.843C1355.4 142.078 1340.97 127.306 1311.76 127.306H1296.65V68.889C1296.65 20.208 1295.64 9.46466 1291.28 5.10016C1284.9 -1.27872 1282.89 -1.61445 1275.5 3.75724ZM1132.14 604.379C1132.14 647.353 1131.47 651.381 1126.44 650.374C1121.06 649.367 1120.39 644.331 1119.39 607.401C1118.38 562.413 1119.05 557.041 1127.11 557.041C1131.47 557.041 1132.14 564.091 1132.14 604.379ZM1217.76 604.043C1217.76 644.331 1217.08 649.367 1212.05 650.374C1206.34 651.381 1206 647.353 1206 604.043C1206 560.734 1206.34 556.705 1212.05 557.713C1217.08 558.72 1217.76 563.756 1217.76 604.043ZM1303.37 604.379C1303.37 647.353 1302.7 651.381 1297.66 650.374C1292.29 649.367 1291.62 644.331 1290.61 607.401C1289.6 562.413 1290.27 557.041 1298.33 557.041C1302.7 557.041 1303.37 564.091 1303.37 604.379ZM1388.98 604.043C1388.98 644.331 1388.31 649.367 1383.27 650.374C1377.56 651.381 1377.23 647.353 1377.23 604.043C1377.23 560.734 1377.56 556.705 1383.27 557.713C1388.31 558.72 1388.98 563.756 1388.98 604.043ZM1474.59 604.379C1474.59 647.353 1473.92 651.381 1468.88 650.374C1463.51 649.367 1462.84 644.331 1461.83 607.401C1460.82 562.413 1461.5 557.041 1469.55 557.041C1473.92 557.041 1474.59 564.091 1474.59 604.379ZM1137.18 758.479C1137.18 808.168 1136.84 810.518 1130.47 810.518C1124.09 810.518 1123.75 807.832 1122.74 761.837C1122.41 735.314 1122.74 711.477 1123.75 708.791C1124.76 706.441 1128.12 704.763 1131.14 705.434C1136.51 706.441 1137.18 711.477 1137.18 758.479ZM1211.04 758.479C1211.04 805.146 1210.37 810.518 1205.33 811.525C1199.63 812.532 1199.29 808.168 1199.29 758.479C1199.29 708.791 1199.63 704.427 1205.33 705.434C1210.37 706.441 1211.04 711.813 1211.04 758.479ZM1288.26 710.47C1290.94 718.192 1289.6 803.803 1286.58 809.175C1284.9 811.189 1281.54 812.196 1278.52 811.189C1273.82 809.51 1273.15 801.789 1273.15 759.151C1273.15 731.621 1274.16 708.12 1275.5 707.113C1279.53 702.748 1285.91 704.763 1288.26 710.47ZM1362.12 758.479C1362.12 805.146 1361.45 810.518 1356.41 811.525C1350.7 812.532 1350.37 808.168 1350.37 758.479C1350.37 708.791 1350.7 704.427 1356.41 705.434C1361.45 706.441 1362.12 711.813 1362.12 758.479ZM1437.66 758.815C1437.66 808.168 1437.32 812.532 1431.95 811.525C1426.58 810.518 1425.91 805.146 1424.9 761.837C1423.89 709.799 1424.57 704.763 1432.62 704.763C1436.99 704.763 1437.66 712.484 1437.66 758.815ZM1513.2 758.479C1513.2 805.146 1512.53 810.518 1507.49 811.525C1501.78 812.532 1501.45 808.168 1501.45 758.479C1501.45 708.791 1501.78 704.427 1507.49 705.434C1512.53 706.441 1513.2 711.813 1513.2 758.479Z" fill="white"/>
<path d="M412.002 896.801C404.952 917.617 399.244 967.976 399.244 1010.28C398.909 1114.02 431.139 1210.37 492.913 1292.29C606.726 1443.03 795.071 1509.51 982.073 1464.52L1004.57 1459.15V1406.44V1353.73L977.708 1360.11C954.543 1365.48 946.485 1369.51 918.62 1389.99C900.826 1402.75 882.361 1414.16 877.996 1415.17C861.545 1419.53 846.437 1413.49 815.55 1391L784.663 1368.5L707.445 1350.37C656.75 1338.62 628.213 1330.23 624.184 1326.2C620.827 1322.84 601.018 1291.62 580.203 1256.7C542.601 1193.59 542.266 1193.25 514.064 1172.1C484.52 1149.94 474.112 1136.18 474.112 1119.73C474.112 1114.35 478.813 1094.88 484.52 1076.08L495.263 1042.17L489.556 976.705C486.534 940.782 484.184 907.209 484.184 901.837V892.772H448.933C423.417 892.772 413.009 894.115 412.002 896.801Z" fill="white"/>
<path d="M652.385 913.589C627.877 963.948 634.592 1026.06 668.5 1065C681.258 1079.1 847.445 1224.81 858.188 1230.85C868.931 1237.23 881.018 1235.89 892.768 1227.5C898.811 1223.47 926.341 1200.3 953.871 1176.47L1004.23 1132.82V1012.63L1004.57 892.774H833.68H662.457L652.385 913.589ZM883.704 966.634V993.157L906.533 994.164L929.027 995.171L930.034 1007.59L931.042 1020.35H907.54H883.704V1074.4V1128.12L871.282 1127.11L858.524 1126.11L857.517 1073.06L856.509 1020.35H834.687H812.864L813.872 1007.59L814.879 995.171L836.03 994.164L856.845 993.157V968.649C856.845 955.219 857.852 943.133 859.195 942.126C860.202 940.783 866.246 939.776 872.624 939.776H883.704V966.634Z" fill="white"/>
<path d="M579.196 1098.24C546.294 1108.98 527.829 1117.04 527.829 1119.73C527.829 1122.41 528.836 1124.43 529.843 1124.43C531.186 1124.43 556.03 1116.7 585.239 1106.97C618.812 1096.22 638.62 1088.17 638.62 1085.14C638.62 1078.77 635.934 1079.44 579.196 1098.24Z" fill="white"/>
<path d="M865.238 1269.13C861.21 1279.53 861.881 1363.8 865.91 1365.14C868.596 1366.15 869.939 1353.39 870.946 1318.48C871.953 1274.16 869.939 1257.04 865.238 1269.13Z" fill="white"/>
<path d="M1221.96 1046.08H1238.75L1260.78 1143.64H1297.84L1270.92 1036.64C1288.05 1024.05 1294.35 1007.96 1294.35 977.891C1294.35 931.382 1276.51 910.401 1235.95 910.401H1186.99V1143.64H1221.96V1046.08ZM1221.96 1013.56V942.922H1233.15C1244.34 942.922 1248.89 944.321 1252.38 949.217C1256.93 954.462 1259.38 965.652 1259.38 978.241C1259.38 990.13 1256.93 1000.62 1253.43 1006.22C1249.59 1011.81 1245.04 1013.56 1233.15 1013.56H1221.96ZM1419.73 910.401H1324.61V1143.64H1419.73V1111.12H1359.58V1039.09H1402.94V1006.57H1359.58V942.922H1419.73V910.401ZM1539.2 1111.12H1481.15V910.401H1446.19V1143.64H1539.2V1111.12ZM1594.53 910.401H1559.56V1143.64H1594.53V910.401ZM1734.22 1025.45H1677.92V1054.47H1699.25V1063.92C1699.25 1083.15 1698.55 1094.34 1697.5 1099.23C1695.4 1108.68 1688.41 1114.27 1679.66 1114.27C1671.27 1114.27 1664.63 1109.37 1662.18 1100.98C1660.78 1096.44 1659.73 1081.4 1659.73 1063.92V990.13C1659.73 971.597 1660.43 959.358 1661.48 955.161C1663.93 945.37 1670.57 939.775 1679.31 939.775C1689.46 939.775 1696.8 947.118 1698.2 958.309C1698.55 963.554 1698.9 972.646 1698.9 986.634H1734.22C1734.22 958.658 1733.87 954.812 1731.77 946.419C1725.47 921.941 1705.54 906.904 1679.66 906.904C1663.23 906.904 1648.19 913.548 1638.75 925.438C1627.21 939.425 1624.76 951.315 1624.76 987.683V1069.16C1624.76 1098.18 1627.56 1113.92 1635.25 1127.21C1642.95 1139.8 1656.93 1147.14 1673.72 1147.14C1690.85 1147.14 1700.65 1141.2 1710.44 1125.11L1717.08 1143.64H1734.22V1025.45ZM1800.45 910.401H1765.48V1143.64H1800.45V910.401ZM1940.14 986.284C1940.14 951.664 1937.34 939.076 1926.15 925.438C1917.06 913.898 1901.67 906.904 1885.59 906.904C1869.15 906.904 1854.11 913.898 1844.67 925.438C1833.48 939.076 1830.68 952.014 1830.68 986.284V1067.76C1830.68 1102.03 1833.48 1114.97 1844.67 1128.61C1854.11 1140.15 1869.15 1147.14 1885.59 1147.14C1901.67 1147.14 1916.71 1140.15 1926.15 1128.61C1937.34 1114.97 1940.14 1102.38 1940.14 1067.76V986.284ZM1865.65 990.13C1865.65 971.247 1866.35 959.358 1867.4 954.812C1869.85 945.02 1876.49 939.425 1885.59 939.425C1893.63 939.425 1899.92 944.321 1902.72 952.714C1904.47 957.609 1905.17 967.401 1905.17 990.13V1063.92C1905.17 1083.5 1904.47 1094.69 1903.42 1099.23C1900.97 1109.03 1894.33 1114.62 1885.59 1114.62C1877.19 1114.62 1870.9 1109.72 1868.1 1101.33C1866.35 1096.44 1865.65 1085.95 1865.65 1063.92V990.13ZM2045.21 910.401V1063.92C2045.21 1083.5 2044.51 1094.69 2043.46 1099.23C2041.01 1109.03 2034.37 1114.62 2025.62 1114.62C2017.23 1114.62 2010.94 1109.72 2008.14 1101.33C2006.39 1096.44 2005.69 1085.95 2005.69 1063.92V910.401H1970.72V1067.76C1970.72 1102.03 1973.52 1114.97 1984.71 1128.61C1994.15 1140.15 2009.19 1147.14 2025.62 1147.14C2041.71 1147.14 2056.75 1140.15 2066.19 1128.61C2077.38 1114.97 2080.17 1102.38 2080.17 1067.76V910.401H2045.21ZM2217.31 962.855C2213.11 925.787 2195.28 906.904 2164.5 906.904C2131.63 906.904 2109.6 929.984 2109.6 964.603C2109.6 990.48 2120.09 1009.01 2149.47 1036.29C2169.05 1054.12 2171.15 1056.57 2176.74 1063.92C2182.69 1071.96 2185.84 1080.35 2185.84 1089.09C2185.84 1104.83 2177.44 1114.62 2164.5 1114.62C2148.77 1114.62 2140.73 1102.73 2139.68 1078.25L2106.46 1084.2C2107.51 1122.31 2130.24 1147.14 2164.5 1147.14C2197.38 1147.14 2219.76 1123.01 2219.76 1087.34C2219.76 1059.02 2211.01 1044.33 2174.65 1011.11C2149.82 988.032 2143.52 978.591 2143.52 962.505C2143.52 948.517 2151.22 939.425 2163.11 939.425C2176.04 939.425 2181.29 946.769 2183.39 967.75L2217.31 962.855Z" fill="#BB8C3A"/>
<path d="M1169.06 1400.25H1111.01V1199.53H1076.04V1432.78H1169.06V1400.25ZM1220.89 1199.53H1185.92V1432.78H1220.89V1199.53ZM1248.67 1432.78H1300.43C1323.16 1432.78 1332.95 1429.98 1342.39 1421.24C1353.93 1410.4 1359.52 1393.61 1359.52 1370.18C1359.52 1339.41 1351.13 1322.27 1330.85 1312.13C1348.33 1299.89 1355.33 1284.51 1355.33 1260.03C1355.33 1219.81 1335.75 1199.53 1297.28 1199.53H1248.67V1432.78ZM1283.64 1296.05V1232.05H1296.93C1313.37 1232.05 1321.06 1241.49 1321.06 1261.43C1321.06 1274.72 1317.91 1284.16 1311.62 1290.1C1306.72 1294.65 1301.83 1296.05 1290.99 1296.05H1283.64ZM1283.64 1400.25V1328.57H1292.38C1303.22 1328.57 1308.82 1329.97 1313.37 1333.81C1320.71 1339.76 1324.56 1351.3 1324.56 1366.33C1324.56 1390.46 1316.16 1400.25 1296.58 1400.25H1283.64ZM1480.65 1199.53H1385.53V1432.78H1480.65V1400.25H1420.5V1328.22H1463.86V1295.7H1420.5V1232.05H1480.65V1199.53ZM1538.57 1335.21H1555.36L1577.39 1432.78H1614.46L1587.53 1325.77C1604.67 1313.18 1610.96 1297.1 1610.96 1267.02C1610.96 1220.51 1593.13 1199.53 1552.56 1199.53H1503.61V1432.78H1538.57V1335.21ZM1538.57 1302.69V1232.05H1549.76C1560.95 1232.05 1565.5 1233.45 1569 1238.35C1573.54 1243.59 1575.99 1254.78 1575.99 1267.37C1575.99 1279.26 1573.54 1289.75 1570.05 1295.35C1566.2 1300.94 1561.65 1302.69 1549.76 1302.69H1538.57ZM1699.21 1232.05H1736.98V1199.53H1627.17V1232.05H1664.24V1432.78H1699.21V1232.05ZM1829.78 1338.36L1871.75 1199.53H1836.43L1812.3 1291.15L1787.47 1199.53H1751.1L1794.82 1338.36V1432.78H1829.78V1338.36Z" fill="#BB8C3A"/>
<path d="M108.754 512.661H50.7051V311.939H15.7361V545.183H108.754V512.661ZM195.496 311.939V465.453C195.496 485.036 194.797 496.226 193.748 500.772C191.3 510.563 184.656 516.158 175.913 516.158C167.521 516.158 161.226 511.263 158.429 502.87C156.68 497.974 155.981 487.484 155.981 465.453V311.939H121.012V469.3C121.012 503.569 123.81 516.508 135 530.146C144.441 541.686 159.478 548.68 175.913 548.68C191.999 548.68 207.036 541.686 216.478 530.146C227.668 516.508 230.465 503.919 230.465 469.3V311.939H195.496ZM315.429 344.46H353.196V311.939H243.393V344.46H280.46V545.183H315.429V344.46ZM439.84 439.926V545.183H474.809V311.939H439.84V407.405H401.024V311.939H366.055V545.183H401.024V439.926H439.84ZM590.693 311.939H495.577V545.183H590.693V512.661H530.546V440.625H573.908V408.104H530.546V344.46H590.693V311.939ZM641.627 447.619H658.413L680.443 545.183H717.51L690.584 438.177C707.719 425.588 714.013 409.503 714.013 379.429C714.013 332.92 696.179 311.939 655.615 311.939H606.658V545.183H641.627V447.619ZM641.627 415.098V344.46H652.817C664.008 344.46 668.554 345.859 672.05 350.755C676.596 356 679.044 367.19 679.044 379.779C679.044 391.669 676.596 402.159 673.1 407.754C669.253 413.349 664.707 415.098 652.817 415.098H641.627ZM810.648 493.778L818.691 545.183H854.709L814.145 311.939H768.685L730.569 545.183H765.188L773.231 493.778H810.648ZM805.403 461.257H778.127L791.415 368.239L805.403 461.257ZM983.84 545.183V311.939H951.319V450.416L903.412 311.939H868.093V545.183H900.614V401.11L951.319 545.183H983.84Z" fill="#BB8C3A"/>
<path d="M389.75 678.365V665.776C389.75 643.046 388.001 634.654 381.707 623.114C372.964 607.028 355.48 597.587 335.198 597.587C318.762 597.587 303.726 604.231 294.284 616.12C282.744 630.108 280.296 641.648 280.296 678.365V757.395C280.296 793.763 282.744 805.303 294.284 819.29C303.726 831.18 318.762 837.824 335.198 837.824C355.83 837.824 372.964 827.683 381.707 810.548C388.351 798.309 389.75 789.217 389.75 765.088V751.8H354.431C354.431 762.291 354.081 779.426 353.382 785.72C352.333 797.61 344.989 805.303 334.848 805.303C326.805 805.303 320.511 800.407 317.713 792.015C315.965 787.119 315.266 777.328 315.266 754.947V680.813C315.266 661.23 315.965 650.04 317.014 645.494C319.462 635.703 325.756 630.108 334.848 630.108C344.989 630.108 352.333 637.451 353.731 648.642C354.081 654.237 354.431 664.727 354.431 678.365H389.75ZM501.544 601.084H406.428V834.327H501.544V801.806H441.397V729.77H484.759V697.248H441.397V633.605H501.544V601.084ZM633.257 834.327V601.084H600.736V739.561L552.828 601.084H517.51V834.327H550.031V690.255L600.736 834.327H633.257ZM718.073 633.605H755.84V601.084H646.037V633.605H683.104V834.327H718.073V633.605ZM863.815 601.084H768.699V834.327H863.815V801.806H803.668V729.77H847.03V697.248H803.668V633.605H863.815V601.084ZM914.75 736.764H931.535L953.565 834.327H990.633L963.706 727.322C980.841 714.733 987.136 698.647 987.136 668.574C987.136 622.065 969.301 601.084 928.737 601.084H879.781V834.327H914.75V736.764ZM914.75 704.242V633.605H925.94C937.13 633.605 941.676 635.004 945.173 639.899C949.719 645.145 952.167 656.335 952.167 668.924C952.167 680.813 949.719 691.304 946.222 696.899C942.375 702.494 937.829 704.242 925.94 704.242H914.75Z" fill="#BB8C3A"/>
<path d="M1106.11 951.011H1090.57V975.536L1090.67 982.904H1077.65L1077.75 975.536V918.109L1077.65 910.741H1110.25V922.045H1090.57V939.505H1106.11V951.011ZM1096.12 1063.11C1090.87 1063.11 1086.43 1061.7 1083.3 1058.98C1079.26 1055.44 1077.04 1049.79 1077.04 1035.16V1016.49C1077.04 1001.85 1079.26 996.2 1083.3 992.668C1086.43 989.943 1090.87 988.53 1096.12 988.53C1101.47 988.53 1105.91 989.943 1109.04 992.668C1113.07 996.2 1115.29 1001.85 1115.29 1016.49V1035.16C1115.29 1049.79 1113.07 1055.44 1109.04 1058.98C1105.91 1061.7 1101.47 1063.11 1096.12 1063.11ZM1096.12 1051.1C1102.27 1051.1 1102.27 1045.45 1102.27 1037.98V1013.66C1102.27 1006.19 1102.27 1000.54 1096.12 1000.54C1090.06 1000.54 1090.06 1006.19 1090.06 1013.66V1037.98C1090.06 1045.45 1090.06 1051.1 1096.12 1051.1ZM1095.51 1112.23H1090.57V1134.54L1090.67 1141.9H1077.65L1077.75 1134.54V1077.11L1077.65 1069.74H1095.81C1111.96 1069.74 1115.9 1079.33 1115.9 1091.04V1091.24C1115.9 1098.81 1113.78 1105.37 1107.82 1109.1L1117.51 1141.9H1103.79L1095.51 1112.23ZM1090.57 1081.04V1101.23H1094C1101.26 1101.23 1102.68 1096.69 1102.68 1091.14V1091.04C1102.68 1085.49 1101.16 1081.04 1094.2 1081.04H1090.57Z" fill="#BB8C3A"/>
</svg>
