<svg width="2378" height="1090" viewBox="0 0 2378 1090" fill="none" xmlns="http://www.w3.org/2000/svg">
<path fill-rule="evenodd" clip-rule="evenodd" d="M183.04 147.024C173.538 148.954 135.514 157.541 99.54 165.881C68.341 173.113 3.20401 189.947 2.07101 191.071C0.129005 192.995 0.991005 495.243 2.975 508.015C3.186 509.378 3.655 517.018 4.017 524.993C6.77 585.66 14.633 647.805 25.149 691.993C35.82 736.836 53.254 781.145 75.333 819.536C130.258 915.042 227.809 1003.91 351.749 1071.34C372.262 1082.5 387.072 1089.99 388.61 1089.99C392.135 1089.99 441.722 1063.4 466.54 1048.19C582.669 977.057 667.091 891.697 714.979 796.993C740.6 746.325 756.701 690.971 765.01 624.993C765.876 618.118 766.806 610.973 767.077 609.115C767.832 603.94 771.327 566.153 772.452 550.993C774.285 526.305 775.817 492.325 777.117 447.493C778.519 399.165 777.355 192.536 775.671 190.761C774.899 189.948 696.994 170.01 675.04 165.008C667.34 163.254 653.615 160.08 644.54 157.957C628.727 154.256 622.208 152.784 600.04 147.908C594.54 146.698 588.915 145.742 587.54 145.784C584.121 145.886 573.316 148.14 545.04 154.649C531.84 157.688 518.34 160.76 515.04 161.476C511.74 162.191 499.917 164.851 488.766 167.385C477.616 169.919 468.279 171.993 468.016 171.993C467.754 171.993 467.54 172.419 467.54 172.941C467.54 174.368 478.593 202.36 479.553 203.367C480.012 203.847 494.259 207.081 511.214 210.554C585.137 225.693 696.568 250.687 698.427 252.546C699.657 253.777 699.079 455.685 697.766 482.993C696.485 509.668 693.922 552.21 693.039 561.493C689.232 601.488 688.153 610.455 683.895 637.493C669.799 726.994 631.438 802.738 565.421 871.413C541.678 896.114 509.65 923.478 478.04 946.071C460.966 958.274 432.736 976.522 432.027 975.813C431.393 975.18 430.773 968.72 428.026 934.17C423.334 875.156 421.586 850.477 420.902 833.594L420.218 816.696L434.629 817.397C465.085 818.88 497.05 823.382 526.79 830.378L532.54 831.73V786.794C532.54 744.466 532.438 741.888 530.79 742.379C524.221 744.334 494.448 750.365 483.54 751.951C466.678 754.402 450.226 756.035 436.153 756.655L421.265 757.311L421.906 752.902C422.258 750.477 424.113 729.818 426.028 706.993C427.943 684.168 429.724 663.468 429.987 660.993C430.249 658.518 430.713 653.343 431.019 649.493C431.324 645.643 432.695 629.668 434.066 613.993C435.437 598.318 437.668 572.218 439.025 555.993C440.382 539.768 441.739 523.568 442.041 519.993C442.344 516.418 442.816 510.568 443.091 506.993C443.366 503.418 443.789 498.693 444.03 496.493C444.271 494.293 444.721 488.893 445.031 484.493C445.34 480.093 445.801 474.693 446.054 472.493C446.307 470.293 447.204 459.493 448.048 448.493C448.892 437.493 449.802 426.243 450.07 423.493C450.338 420.743 451.431 408.593 452.499 396.493C455.238 365.449 457.627 338.846 458.515 329.493L459.275 321.493L451.53 307.993C447.271 300.568 439.851 287.518 435.041 278.993C430.231 270.468 424.364 260.118 422.002 255.993C415.834 245.219 404.403 224.557 396.278 209.493C392.421 202.343 389.163 196.367 389.039 196.213C388.915 196.059 385.299 202.359 381.005 210.213C376.71 218.067 367.369 234.843 360.246 247.493C316.409 325.351 318.387 321.631 318.947 325.163C319.236 326.995 319.733 332.093 320.05 336.493C320.367 340.893 321.053 349.218 321.575 354.993C322.097 360.768 322.769 368.418 323.068 371.993C323.368 375.568 324.043 382.993 324.568 388.493C325.093 393.993 326.663 412.218 328.056 428.993C329.449 445.768 333.054 489.193 336.066 525.493C339.079 561.793 341.766 593.743 342.038 596.493C342.31 599.243 343.438 612.068 344.546 624.993C345.654 637.918 346.788 650.968 347.066 653.993C347.659 660.457 350.973 698.247 353.072 722.493C353.881 731.843 354.84 743.502 355.203 748.401L355.862 757.309L342.951 756.666C317.041 755.376 297.478 752.822 268.54 746.952C257.815 744.776 248.038 742.721 246.813 742.384L244.586 741.772L244.949 785.935C245.148 810.225 245.559 830.346 245.862 830.648C246.165 830.951 251.954 830.046 258.726 828.638C280.143 824.185 298.116 821.337 316.54 819.477C319.565 819.172 323.39 818.728 325.04 818.492C326.69 818.256 334.714 817.757 342.871 817.382L357.702 816.701L357.071 828.597C355.996 848.839 353.549 887.26 353.032 891.993C352.762 894.468 352.078 903.243 351.512 911.493C350.945 919.743 350.263 928.968 349.995 931.993C349.727 935.018 348.85 945.995 348.047 956.387C347.243 966.778 346.396 975.471 346.163 975.704C345.93 975.936 338.157 971.28 328.89 965.356C231.009 902.787 161.085 826.375 124.494 741.993C112.334 713.951 102.649 682.277 96.516 650.493C92.079 627.495 86.409 580.958 84.089 548.493C82.365 524.356 81.555 509.506 81.007 491.993C80.672 481.268 80.165 471.143 79.881 469.493C79.258 465.877 78.705 284.045 79.26 265.275L79.65 252.057L83.345 251.025C89.39 249.337 163.662 232.347 182.04 228.448C191.39 226.464 204.215 223.727 210.54 222.364C224.687 219.316 255.13 212.936 274.54 208.951C282.515 207.314 291.251 205.416 293.953 204.734L298.866 203.493L303.977 189.493C306.788 181.793 309.442 174.93 309.874 174.241C310.873 172.65 308.011 171.542 296.148 168.926C291.139 167.821 272.64 163.573 255.04 159.487C237.44 155.4 216.74 150.678 209.04 148.995C201.34 147.311 194.365 145.767 193.54 145.564C192.715 145.361 187.99 146.018 183.04 147.024ZM382.191 319.977C377.066 333.077 376.413 335.516 376.912 339.709C377.226 342.34 377.741 355.293 378.059 368.493C378.376 381.693 378.82 395.418 379.045 398.993C379.27 402.568 379.709 416.293 380.019 429.493C380.33 442.693 380.789 458.893 381.038 465.493C381.287 472.093 381.739 488.293 382.041 501.493C382.343 514.693 382.794 529.768 383.043 534.993C383.292 540.218 383.742 556.193 384.043 570.493C384.345 584.793 384.796 599.418 385.047 602.993C385.298 606.568 385.789 623.218 386.137 639.993C386.486 656.768 386.927 670.76 387.117 671.085C387.307 671.411 387.544 679.511 387.644 689.085C387.878 711.719 389.275 716.407 389.553 695.493C389.67 686.693 389.885 677.918 390.03 675.993C390.175 674.068 390.585 661.018 390.941 646.993C391.297 632.968 391.793 616.993 392.043 611.493C392.292 605.993 392.744 591.143 393.046 578.493C393.348 565.843 393.796 551.668 394.041 546.993C394.287 542.318 394.733 527.918 395.032 514.993C395.332 502.068 395.786 486.768 396.041 480.993C396.296 475.218 396.754 459.918 397.058 446.993C397.362 434.068 397.799 420.793 398.029 417.493C398.672 408.274 400.005 359.139 400.024 343.993L400.04 330.493L394.655 317.743C391.693 310.731 388.993 305.001 388.655 305.011C388.317 305.022 385.408 311.756 382.191 319.977Z" fill="white"/>
<path fill-rule="evenodd" clip-rule="evenodd" d="M399.124 16.75C396.97 25.958 393.971 39.118 392.459 45.993C388.634 63.388 383.836 83.031 383.276 83.591C383.018 83.849 378.134 81.418 372.423 78.189C366.713 74.961 357.765 70.026 352.54 67.222C347.315 64.419 339.013 59.86 334.09 57.092C329.168 54.324 324.964 52.235 324.75 52.45C324.535 52.665 329.309 61.987 335.359 73.167C348.688 97.795 355.129 110.737 354.414 111.452C354.12 111.746 342.891 114.45 329.46 117.462C286.282 127.143 262.122 132.964 262.778 133.528C262.922 133.651 280.815 138.161 302.54 143.548C324.265 148.935 342.399 153.646 342.838 154.016C343.657 154.707 335.121 179.474 324.581 206.993C321.315 215.518 316.87 227.493 314.701 233.604C312.533 239.716 310.244 245.678 309.614 246.854C307.223 251.323 310.425 248.593 321.475 236.743C327.757 230.005 338.527 218.502 345.407 211.179C352.287 203.857 358.619 197.06 359.478 196.075C360.959 194.377 376.73 177.204 384.779 168.525L388.518 164.493L395.245 171.493C408.62 185.412 421.244 198.809 431.54 210.015C445.976 225.725 468.809 249.993 469.154 249.993C469.31 249.993 468.725 248.306 467.854 246.243C466.982 244.181 462.905 233.268 458.793 221.993C441.227 173.829 434.487 154.713 434.919 154.281C435.429 153.771 447.033 150.844 467.54 146.052C474.965 144.317 488.915 140.943 498.54 138.554C508.165 136.165 517.331 133.914 518.908 133.553C520.485 133.191 521.591 132.71 521.364 132.484C520.839 131.959 489.877 123.395 469.04 118.012C460.24 115.738 452.748 113.567 452.39 113.186C452.033 112.805 455.101 106.193 459.208 98.493C478.476 62.37 482.542 54.499 482.3 53.784C482.083 53.142 452.499 68.878 431.377 80.87C428.263 82.638 425.516 83.727 425.273 83.289C425.031 82.851 420.211 63.931 414.564 41.243C408.916 18.556 404.013 -0.00399935 403.668 6.46431e-07C403.322 0.00300065 401.278 7.541 399.124 16.75ZM0.925003 215.993C0.925003 222.868 1.085 225.681 1.28 222.243C1.476 218.806 1.476 213.181 1.28 209.743C1.085 206.306 0.925003 209.118 0.925003 215.993ZM776.91 231.993C776.91 237.768 777.075 240.13 777.277 237.243C777.479 234.356 777.479 229.63 777.277 226.743C777.075 223.856 776.91 226.218 776.91 231.993ZM78.951 302.993C78.951 312.618 79.101 316.556 79.285 311.743C79.468 306.931 79.468 299.056 79.285 294.243C79.101 289.431 78.951 293.368 78.951 302.993ZM698.937 304.993C698.937 312.968 699.093 316.231 699.283 312.243C699.472 308.255 699.472 301.731 699.283 297.743C699.093 293.755 698.937 297.018 698.937 304.993ZM777.957 311.493C777.958 321.943 778.106 326.082 778.286 320.691C778.466 315.3 778.465 306.75 778.284 301.691C778.103 296.632 777.956 301.043 777.957 311.493ZM0 352.993C0 377.468 0.130001 387.481 0.289001 375.243C0.448001 363.006 0.448001 342.981 0.289001 330.743C0.130001 318.506 0 328.518 0 352.993ZM399.876 346.993C399.876 351.118 400.053 352.806 400.268 350.743C400.484 348.681 400.484 345.306 400.268 343.243C400.053 341.181 399.876 342.868 399.876 346.993ZM377.86 359.993C377.86 363.568 378.042 365.031 378.263 363.243C378.485 361.455 378.485 358.531 378.263 356.743C378.042 354.955 377.86 356.418 377.86 359.993ZM777.953 398.493C777.954 408.393 778.104 412.308 778.286 407.192C778.468 402.077 778.467 393.977 778.284 389.192C778.101 384.408 777.952 388.593 777.953 398.493ZM378.85 391.493C378.855 394.793 379.042 396.022 379.265 394.225C379.487 392.428 379.483 389.728 379.255 388.225C379.026 386.722 378.844 388.193 378.85 391.493ZM78.942 415.993C78.942 424.518 79.096 428.005 79.283 423.743C79.471 419.481 79.471 412.505 79.283 408.243C79.096 403.981 78.942 407.468 78.942 415.993ZM397.86 409.993C397.86 413.568 398.042 415.031 398.263 413.243C398.485 411.455 398.485 408.531 398.263 406.743C398.042 404.955 397.86 406.418 397.86 409.993ZM698.922 421.493C698.924 428.093 699.086 430.663 699.281 427.204C699.477 423.745 699.476 418.345 699.278 415.204C699.08 412.063 698.92 414.893 698.922 421.493ZM379.868 421.493C379.873 425.343 380.053 426.795 380.27 424.721C380.486 422.646 380.483 419.496 380.262 417.721C380.041 415.945 379.864 417.643 379.868 421.493ZM396.86 439.993C396.86 443.568 397.042 445.031 397.263 443.243C397.485 441.455 397.485 438.531 397.263 436.743C397.042 434.955 396.86 436.418 396.86 439.993ZM0.900002 454.993C0.900002 460.218 1.069 462.355 1.275 459.743C1.481 457.131 1.481 452.856 1.275 450.243C1.069 447.63 0.900002 449.768 0.900002 454.993ZM380.876 455.993C380.876 460.118 381.053 461.806 381.268 459.743C381.484 457.681 381.484 454.306 381.268 452.243C381.053 450.181 380.876 451.868 380.876 455.993ZM79.895 459.493C79.892 464.443 80.061 466.594 80.271 464.273C80.48 461.952 80.483 457.902 80.276 455.273C80.07 452.644 79.898 454.543 79.895 459.493ZM776.85 456.493C776.855 459.793 777.042 461.022 777.265 459.225C777.487 457.428 777.483 454.728 777.255 453.225C777.026 451.722 776.844 453.193 776.85 456.493ZM697.868 464.493C697.873 468.343 698.053 469.795 698.27 467.721C698.486 465.646 698.483 462.496 698.262 460.721C698.041 458.945 697.864 460.643 697.868 464.493ZM395.85 474.493C395.855 477.793 396.042 479.022 396.265 477.225C396.487 475.428 396.483 472.728 396.255 471.225C396.026 469.722 395.844 471.193 395.85 474.493ZM775.84 487.993C775.84 491.018 776.027 492.256 776.256 490.743C776.485 489.23 776.485 486.756 776.256 485.243C776.027 483.73 775.84 484.968 775.84 487.993ZM1.84 489.993C1.84 493.018 2.027 494.256 2.256 492.743C2.485 491.23 2.485 488.756 2.256 487.243C2.027 485.73 1.84 486.968 1.84 489.993ZM80.85 490.493C80.855 493.793 81.042 495.022 81.265 493.225C81.487 491.428 81.483 488.728 81.255 487.225C81.026 485.722 80.844 487.193 80.85 490.493ZM381.876 491.993C381.876 496.118 382.053 497.806 382.268 495.743C382.484 493.681 382.484 490.306 382.268 488.243C382.053 486.181 381.876 487.868 381.876 491.993ZM696.85 491.493C696.855 494.793 697.042 496.022 697.265 494.225C697.487 492.428 697.483 489.728 697.255 488.225C697.026 486.722 696.844 488.193 696.85 491.493ZM394.876 506.993C394.876 511.118 395.053 512.806 395.268 510.743C395.484 508.681 395.484 505.306 395.268 503.243C395.053 501.181 394.876 502.868 394.876 506.993ZM774.84 511.993C774.84 515.018 775.027 516.256 775.256 514.743C775.485 513.23 775.485 510.756 775.256 509.243C775.027 507.73 774.84 508.968 774.84 511.993ZM2.84 513.993C2.84 517.018 3.027 518.256 3.256 516.743C3.485 515.23 3.485 512.756 3.256 511.243C3.027 509.73 2.84 510.968 2.84 513.993ZM382.868 527.493C382.873 531.343 383.053 532.795 383.27 530.721C383.486 528.646 383.483 525.496 383.262 523.721C383.041 521.945 382.864 523.643 382.868 527.493ZM393.86 539.993C393.86 543.568 394.042 545.031 394.263 543.243C394.485 541.455 394.485 538.531 394.263 536.743C394.042 534.955 393.86 536.418 393.86 539.993ZM383.86 561.993C383.86 565.568 384.042 567.031 384.263 565.243C384.485 563.455 384.485 560.531 384.263 558.743C384.042 556.955 383.86 558.418 383.86 561.993ZM392.868 571.493C392.873 575.343 393.053 576.795 393.27 574.721C393.486 572.646 393.483 569.496 393.262 567.721C393.041 565.945 392.864 567.643 392.868 571.493ZM384.86 596.993C384.86 600.568 385.042 602.031 385.263 600.243C385.485 598.455 385.485 595.531 385.263 593.743C385.042 591.955 384.86 593.418 384.86 596.993ZM391.85 604.493C391.855 607.793 392.042 609.022 392.265 607.225C392.487 605.428 392.483 602.728 392.255 601.225C392.026 599.722 391.844 601.193 391.85 604.493ZM385.876 628.993C385.876 633.118 386.053 634.806 386.268 632.743C386.484 630.681 386.484 627.306 386.268 625.243C386.053 623.181 385.876 624.868 385.876 628.993ZM390.883 637.493C390.886 641.893 391.062 643.569 391.273 641.217C391.485 638.865 391.482 635.265 391.267 633.217C391.052 631.169 390.879 633.093 390.883 637.493ZM386.889 662.993C386.889 667.668 387.062 669.58 387.272 667.243C387.483 664.906 387.483 661.08 387.272 658.743C387.062 656.406 386.889 658.318 386.889 662.993ZM389.84 668.993C389.84 672.018 390.027 673.256 390.256 671.743C390.485 670.23 390.485 667.756 390.256 666.243C390.027 664.73 389.84 665.968 389.84 668.993ZM387.878 703.992C388.69 712.3 389.662 713.035 389.426 705.162C389.323 701.732 388.794 698.65 388.251 698.314C387.617 697.923 387.484 699.956 387.878 703.992ZM342.308 756.718C344.105 756.94 346.805 756.936 348.308 756.708C349.811 756.479 348.34 756.297 345.04 756.303C341.74 756.308 340.511 756.495 342.308 756.718ZM356.84 821.993C356.84 825.018 357.027 826.256 357.256 824.743C357.485 823.23 357.485 820.756 357.256 819.243C357.027 817.73 356.84 818.968 356.84 821.993ZM244.72 826.243C244.567 831.126 244.804 831.991 246.29 831.978C247.46 831.967 247.647 831.713 246.854 831.208C246.202 830.794 245.496 828.213 245.284 825.474L244.9 820.493L244.72 826.243ZM420.883 830.493C420.886 834.893 421.062 836.569 421.273 834.217C421.485 831.865 421.482 828.265 421.267 826.217C421.052 824.169 420.879 826.093 420.883 830.493ZM212.54 871.493C216.083 875.068 219.207 877.993 219.482 877.993C219.757 877.993 217.083 875.068 213.54 871.493C209.997 867.918 206.873 864.993 206.598 864.993C206.323 864.993 208.997 867.918 212.54 871.493ZM548.506 887.743L543.04 893.493L548.79 888.027C554.132 882.949 554.998 881.993 554.256 881.993C554.1 881.993 551.512 884.58 548.506 887.743ZM230.54 889.493C233.527 892.518 236.197 894.993 236.472 894.993C236.747 894.993 234.527 892.518 231.54 889.493C228.553 886.468 225.883 883.993 225.608 883.993C225.333 883.993 227.553 886.468 230.54 889.493ZM177.04 946.993C180.306 950.293 183.202 952.993 183.477 952.993C183.752 952.993 181.306 950.293 178.04 946.993C174.774 943.693 171.878 940.993 171.603 940.993C171.328 940.993 173.774 943.693 177.04 946.993Z" fill="white"/>
<path d="M949.178 421.836C928.977 421.836 913.507 416.082 902.767 404.575C892.283 393.068 887.041 376.831 887.041 355.863V211.643C887.041 190.675 892.283 174.437 902.767 162.93C913.507 151.424 928.977 145.67 949.178 145.67C969.379 145.67 984.722 151.424 995.206 162.93C1005.95 174.437 1011.32 190.675 1011.32 211.643V240.027H971.425V208.958C971.425 192.337 964.393 184.026 950.329 184.026C936.265 184.026 929.233 192.337 929.233 208.958V358.931C929.233 375.297 936.265 383.479 950.329 383.479C964.393 383.479 971.425 375.297 971.425 358.931V317.89H1011.32V355.863C1011.32 376.831 1005.95 393.068 995.206 404.575C984.722 416.082 969.379 421.836 949.178 421.836ZM1055.74 149.506H1097.93V258.821H1143.19V149.506H1185.38V418H1143.19V297.178H1097.93V418H1055.74V149.506ZM1268.58 149.506H1325.74L1369.46 418H1327.27L1319.6 364.685V365.452H1271.65L1263.98 418H1224.86L1268.58 149.506ZM1314.61 329.013L1295.82 196.3H1295.05L1276.64 329.013H1314.61ZM1409.11 149.506H1469.33L1496.18 341.671H1496.95L1523.8 149.506H1584.01V418H1544.12V214.711H1543.36L1512.67 418H1477.38L1446.7 214.711H1445.93V418H1409.11V149.506ZM1634.68 149.506H1696.82C1717.78 149.506 1733.51 155.131 1743.99 166.383C1754.48 177.634 1759.72 194.127 1759.72 215.862V242.328C1759.72 264.063 1754.48 280.556 1743.99 291.808C1733.51 303.059 1717.78 308.684 1696.82 308.684H1676.87V418H1634.68V149.506ZM1696.82 270.328C1703.72 270.328 1708.83 268.41 1712.16 264.575C1715.74 260.739 1717.53 254.218 1717.53 245.013V213.177C1717.53 203.972 1715.74 197.451 1712.16 193.615C1708.83 189.78 1703.72 187.862 1696.82 187.862H1676.87V270.328H1696.82ZM1801.81 149.506H1844V418H1801.81V149.506ZM1955.77 421.836C1935.06 421.836 1919.2 415.954 1908.21 404.192C1897.21 392.429 1891.71 375.808 1891.71 354.329V213.177C1891.71 191.698 1897.21 175.077 1908.21 163.314C1919.2 151.551 1935.06 145.67 1955.77 145.67C1976.48 145.67 1992.33 151.551 2003.33 163.314C2014.33 175.077 2019.82 191.698 2019.82 213.177V354.329C2019.82 375.808 2014.33 392.429 2003.33 404.192C1992.33 415.954 1976.48 421.836 1955.77 421.836ZM1955.77 383.479C1970.34 383.479 1977.63 374.657 1977.63 357.013V210.492C1977.63 192.848 1970.34 184.026 1955.77 184.026C1941.19 184.026 1933.91 192.848 1933.91 210.492V357.013C1933.91 374.657 1941.19 383.479 1955.77 383.479ZM2067.53 149.506H2120.47L2161.51 310.219H2162.28V149.506H2199.86V418H2156.52L2105.89 221.999H2105.12V418H2067.53V149.506ZM2305.25 421.836C2284.79 421.836 2269.32 416.082 2258.84 404.575C2248.36 392.813 2243.11 376.064 2243.11 354.329V338.986H2283V357.397C2283 374.785 2290.29 383.479 2304.87 383.479C2312.03 383.479 2317.4 381.434 2320.98 377.342C2324.81 372.995 2326.73 366.091 2326.73 356.63C2326.73 345.379 2324.17 335.534 2319.06 327.096C2313.95 318.401 2304.48 308.045 2290.68 296.027C2273.29 280.684 2261.14 266.876 2254.24 254.602C2247.33 242.072 2243.88 228.008 2243.88 212.41C2243.88 191.186 2249.25 174.821 2259.99 163.314C2270.73 151.551 2286.33 145.67 2306.79 145.67C2326.99 145.67 2342.2 151.551 2352.43 163.314C2362.91 174.821 2368.16 191.442 2368.16 213.177V224.301H2328.26V210.492C2328.26 201.287 2326.48 194.638 2322.9 190.547C2319.32 186.2 2314.07 184.026 2307.17 184.026C2293.11 184.026 2286.07 192.593 2286.07 209.725C2286.07 219.442 2288.63 228.52 2293.74 236.958C2299.11 245.397 2308.7 255.625 2322.51 267.643C2340.16 282.986 2352.3 296.922 2358.95 309.452C2365.6 321.981 2368.92 336.685 2368.92 353.561C2368.92 375.552 2363.42 392.429 2352.43 404.192C2341.69 415.954 2325.96 421.836 2305.25 421.836Z" fill="white"/>
<path d="M907.726 474.506H960.658L1001.7 635.219H1002.47V474.506H1040.06V743H996.713L946.082 546.999H945.315V743H907.726V474.506ZM1090.59 474.506H1205.66V512.862H1132.78V583.821H1190.7V622.178H1132.78V704.644H1205.66V743H1090.59V474.506ZM1282.1 512.862H1237.99V474.506H1368.4V512.862H1324.29V743H1282.1V512.862ZM1399.53 474.506H1440.19L1458.98 680.863H1459.75L1479.7 474.506H1525.72L1545.67 680.863H1546.44L1565.23 474.506H1601.67L1574.44 743H1521.89L1502.71 561.958H1501.94L1482.77 743H1426.77L1399.53 474.506ZM1703.18 746.836C1682.46 746.836 1666.61 740.954 1655.61 729.192C1644.62 717.429 1639.12 700.808 1639.12 679.329V538.177C1639.12 516.698 1644.62 500.077 1655.61 488.314C1666.61 476.551 1682.46 470.67 1703.18 470.67C1723.89 470.67 1739.74 476.551 1750.74 488.314C1761.73 500.077 1767.23 516.698 1767.23 538.177V679.329C1767.23 700.808 1761.73 717.429 1750.74 729.192C1739.74 740.954 1723.89 746.836 1703.18 746.836ZM1703.18 708.479C1717.75 708.479 1725.04 699.657 1725.04 682.013V535.492C1725.04 517.848 1717.75 509.026 1703.18 509.026C1688.6 509.026 1681.31 517.848 1681.31 535.492V682.013C1681.31 699.657 1688.6 708.479 1703.18 708.479ZM1814.94 474.506H1877.46C1899.2 474.506 1915.05 479.62 1925.03 489.848C1935 499.821 1939.98 515.291 1939.98 536.259V552.753C1939.98 580.625 1930.78 598.269 1912.37 605.684V606.451C1922.6 609.52 1929.76 615.785 1933.85 625.246C1938.19 634.707 1940.37 647.365 1940.37 663.219V710.397C1940.37 718.068 1940.62 724.333 1941.14 729.192C1941.65 733.794 1942.93 738.397 1944.97 743H1902.01C1900.48 738.653 1899.45 734.562 1898.94 730.726C1898.43 726.89 1898.18 719.986 1898.18 710.014V660.917C1898.18 648.643 1896.13 640.077 1892.04 635.219C1888.2 630.36 1881.43 627.931 1871.71 627.931H1857.13V743H1814.94V474.506ZM1872.48 589.575C1880.92 589.575 1887.18 587.401 1891.27 583.054C1895.62 578.707 1897.79 571.419 1897.79 561.191V540.479C1897.79 530.762 1896 523.73 1892.42 519.383C1889.1 515.036 1883.73 512.862 1876.31 512.862H1857.13V589.575H1872.48ZM1988.82 474.506H2031.01V587.657L2084.71 474.506H2126.9L2076.66 573.081L2127.67 743H2083.56L2047.89 623.328L2031.01 657.465V743H1988.82V474.506Z" fill="white"/>
<path d="M899.863 813.753H955.671V832.931H920.959V870.328H948.192V889.507H920.959V948H899.863V813.753ZM1002.03 949.918C991.678 949.918 983.752 946.977 978.254 941.096C972.756 935.215 970.007 926.904 970.007 916.164V845.589C970.007 834.849 972.756 826.538 978.254 820.657C983.752 814.776 991.678 811.835 1002.03 811.835C1012.39 811.835 1020.32 814.776 1025.82 820.657C1031.31 826.538 1034.06 834.849 1034.06 845.589V916.164C1034.06 926.904 1031.31 935.215 1025.82 941.096C1020.32 946.977 1012.39 949.918 1002.03 949.918ZM1002.03 930.74C1009.32 930.74 1012.97 926.329 1012.97 917.507V844.246C1012.97 835.424 1009.32 831.013 1002.03 831.013C994.747 831.013 991.103 835.424 991.103 844.246V917.507C991.103 926.329 994.747 930.74 1002.03 930.74ZM1054.08 813.753H1085.34C1096.21 813.753 1104.14 816.31 1109.12 821.424C1114.11 826.41 1116.6 834.146 1116.6 844.63V852.876C1116.6 866.812 1112 875.634 1102.79 879.342V879.726C1107.91 881.26 1111.49 884.392 1113.53 889.123C1115.71 893.854 1116.8 900.182 1116.8 908.109V931.699C1116.8 935.534 1116.92 938.667 1117.18 941.096C1117.43 943.397 1118.07 945.699 1119.1 948H1097.62C1096.85 945.826 1096.34 943.781 1096.08 941.863C1095.83 939.945 1095.7 936.493 1095.7 931.507V906.959C1095.7 900.822 1094.68 896.539 1092.63 894.109C1090.71 891.68 1087.32 890.466 1082.47 890.466H1075.18V948H1054.08V813.753ZM1082.85 871.287C1087.07 871.287 1090.2 870.201 1092.25 868.027C1094.42 865.854 1095.51 862.21 1095.51 857.096V846.739C1095.51 841.881 1094.61 838.365 1092.82 836.191C1091.16 834.018 1088.48 832.931 1084.77 832.931H1075.18V871.287H1082.85ZM1173.65 813.753H1204.91C1215.78 813.753 1223.71 816.31 1228.7 821.424C1233.68 826.41 1236.17 834.146 1236.17 844.63V852.876C1236.17 866.812 1231.57 875.634 1222.37 879.342V879.726C1227.48 881.26 1231.06 884.392 1233.11 889.123C1235.28 893.854 1236.37 900.182 1236.37 908.109V931.699C1236.37 935.534 1236.49 938.667 1236.75 941.096C1237.01 943.397 1237.64 945.699 1238.67 948H1217.19C1216.42 945.826 1215.91 943.781 1215.65 941.863C1215.4 939.945 1215.27 936.493 1215.27 931.507V906.959C1215.27 900.822 1214.25 896.539 1212.2 894.109C1210.28 891.68 1206.9 890.466 1202.04 890.466H1194.75V948H1173.65V813.753ZM1202.42 871.287C1206.64 871.287 1209.77 870.201 1211.82 868.027C1213.99 865.854 1215.08 862.21 1215.08 857.096V846.739C1215.08 841.881 1214.18 838.365 1212.39 836.191C1210.73 834.018 1208.05 832.931 1204.34 832.931H1194.75V871.287H1202.42ZM1256.76 813.753H1314.29V832.931H1277.85V868.411H1306.81V887.589H1277.85V928.822H1314.29V948H1256.76V813.753ZM1332.18 813.753H1353.28V928.822H1387.99V948H1332.18V813.753ZM1403.86 813.753H1424.96V948H1403.86V813.753ZM1476.43 949.918C1466.2 949.918 1458.4 947.041 1453.03 941.288C1447.66 935.406 1444.97 927.032 1444.97 916.164V845.589C1444.97 834.721 1447.66 826.41 1453.03 820.657C1458.4 814.776 1466.2 811.835 1476.43 811.835C1486.65 811.835 1494.45 814.776 1499.82 820.657C1505.19 826.41 1507.88 834.721 1507.88 845.589V857.096H1487.93V844.246C1487.93 835.424 1484.29 831.013 1477 831.013C1469.71 831.013 1466.07 835.424 1466.07 844.246V917.699C1466.07 926.393 1469.71 930.74 1477 930.74C1484.29 930.74 1487.93 926.393 1487.93 917.699V891.424H1477.38V872.246H1507.88V916.164C1507.88 927.032 1505.19 935.406 1499.82 941.288C1494.45 947.041 1486.65 949.918 1476.43 949.918ZM1527.18 813.753H1548.27V948H1527.18V813.753ZM1600.32 949.918C1589.96 949.918 1582.04 946.977 1576.54 941.096C1571.04 935.215 1568.29 926.904 1568.29 916.164V845.589C1568.29 834.849 1571.04 826.538 1576.54 820.657C1582.04 814.776 1589.96 811.835 1600.32 811.835C1610.67 811.835 1618.6 814.776 1624.1 820.657C1629.6 826.538 1632.35 834.849 1632.35 845.589V916.164C1632.35 926.904 1629.6 935.215 1624.1 941.096C1618.6 946.977 1610.67 949.918 1600.32 949.918ZM1600.32 930.74C1607.61 930.74 1611.25 926.329 1611.25 917.507V844.246C1611.25 835.424 1607.61 831.013 1600.32 831.013C1593.03 831.013 1589.39 835.424 1589.39 844.246V917.507C1589.39 926.329 1593.03 930.74 1600.32 930.74ZM1683.05 949.918C1672.82 949.918 1665.02 947.041 1659.65 941.288C1654.28 935.406 1651.6 927.032 1651.6 916.164V813.753H1672.7V917.699C1672.7 922.301 1673.59 925.625 1675.38 927.671C1677.3 929.717 1679.98 930.74 1683.43 930.74C1686.89 930.74 1689.51 929.717 1691.3 927.671C1693.22 925.625 1694.17 922.301 1694.17 917.699V813.753H1714.5V916.164C1714.5 927.032 1711.82 935.406 1706.45 941.288C1701.08 947.041 1693.28 949.918 1683.05 949.918ZM1762.71 949.918C1752.48 949.918 1744.74 947.041 1739.5 941.288C1734.26 935.406 1731.64 927.032 1731.64 916.164V908.493H1751.58V917.699C1751.58 926.393 1755.23 930.74 1762.51 930.74C1766.09 930.74 1768.78 929.717 1770.57 927.671C1772.49 925.498 1773.45 922.046 1773.45 917.315C1773.45 911.689 1772.17 906.767 1769.61 902.548C1767.05 898.201 1762.32 893.023 1755.42 887.013C1746.72 879.342 1740.65 872.438 1737.2 866.301C1733.75 860.036 1732.02 853.004 1732.02 845.205C1732.02 834.593 1734.71 826.41 1740.08 820.657C1745.45 814.776 1753.25 811.835 1763.47 811.835C1773.57 811.835 1781.18 814.776 1786.3 820.657C1791.54 826.41 1794.16 834.721 1794.16 845.589V851.15H1774.21V844.246C1774.21 839.643 1773.32 836.319 1771.53 834.273C1769.74 832.1 1767.12 831.013 1763.67 831.013C1756.63 831.013 1753.12 835.296 1753.12 843.863C1753.12 848.721 1754.4 853.26 1756.95 857.479C1759.64 861.698 1764.43 866.812 1771.34 872.822C1780.16 880.493 1786.23 887.461 1789.56 893.726C1792.88 899.991 1794.54 907.342 1794.54 915.781C1794.54 926.776 1791.79 935.215 1786.3 941.096C1780.93 946.977 1773.06 949.918 1762.71 949.918ZM1848.86 813.753H1869.96V928.822H1904.67V948H1848.86V813.753ZM1920.54 813.753H1941.63V948H1920.54V813.753ZM1963.19 813.753H1995.02C2005.89 813.753 2013.82 816.31 2018.8 821.424C2023.79 826.41 2026.28 834.146 2026.28 844.63V850C2026.28 856.904 2025.13 862.529 2022.83 866.876C2020.66 871.223 2017.27 874.356 2012.67 876.274V876.657C2023.15 880.237 2028.39 889.571 2028.39 904.657V916.164C2028.39 926.52 2025.64 934.447 2020.15 939.945C2014.78 945.315 2006.85 948 1996.37 948H1963.19V813.753ZM1992.53 868.411C1996.75 868.411 1999.88 867.324 2001.93 865.15C2004.1 862.977 2005.19 859.333 2005.19 854.219V846.739C2005.19 841.881 2004.29 838.365 2002.5 836.191C2000.84 834.018 1998.16 832.931 1994.45 832.931H1984.28V868.411H1992.53ZM1996.37 928.822C2000.07 928.822 2002.82 927.863 2004.61 925.945C2006.4 923.899 2007.3 920.447 2007.3 915.589V903.89C2007.3 897.753 2006.21 893.534 2004.04 891.233C2001.99 888.803 1998.54 887.589 1993.68 887.589H1984.28V928.822H1996.37ZM2046.48 813.753H2104.01V832.931H2067.57V868.411H2096.53V887.589H2067.57V928.822H2104.01V948H2046.48V813.753ZM2121.9 813.753H2153.16C2164.03 813.753 2171.96 816.31 2176.94 821.424C2181.93 826.41 2184.42 834.146 2184.42 844.63V852.876C2184.42 866.812 2179.82 875.634 2170.61 879.342V879.726C2175.73 881.26 2179.31 884.392 2181.35 889.123C2183.53 893.854 2184.61 900.182 2184.61 908.109V931.699C2184.61 935.534 2184.74 938.667 2185 941.096C2185.25 943.397 2185.89 945.699 2186.92 948H2165.44C2164.67 945.826 2164.16 943.781 2163.9 941.863C2163.65 939.945 2163.52 936.493 2163.52 931.507V906.959C2163.52 900.822 2162.5 896.539 2160.45 894.109C2158.53 891.68 2155.14 890.466 2150.29 890.466H2143V948H2121.9V813.753ZM2150.67 871.287C2154.89 871.287 2158.02 870.201 2160.07 868.027C2162.24 865.854 2163.33 862.21 2163.33 857.096V846.739C2163.33 841.881 2162.43 838.365 2160.64 836.191C2158.98 834.018 2156.29 832.931 2152.59 832.931H2143V871.287H2150.67ZM2221.12 832.931H2199.07V813.753H2264.27V832.931H2242.22V948H2221.12V832.931ZM2300.36 890.849L2274.85 813.753H2297.29L2311.68 863.041H2312.06L2326.44 813.753H2346.96L2321.46 890.849V948H2300.36V890.849Z" fill="white"/>
<path d="M912.703 1054.15H899.314L896.542 1064H892.59L904.976 1021.71H906.982L919.427 1064H915.505L912.703 1054.15ZM900.346 1050.52H911.7L906.126 1031.03L906.008 1029.47L905.89 1031.03L900.346 1050.52ZM958.326 1056.33C958.326 1057.55 958.08 1058.67 957.589 1059.69C957.097 1060.7 956.429 1061.56 955.583 1062.29C954.738 1063.02 953.755 1063.59 952.634 1064C951.533 1064.39 950.373 1064.59 949.154 1064.59H946.736C945.517 1064.59 944.347 1064.36 943.226 1063.91C942.125 1063.44 941.152 1062.8 940.307 1061.99C939.481 1061.19 938.812 1060.24 938.301 1059.16C937.81 1058.08 937.564 1056.93 937.564 1055.71V1054.5L941.191 1053.91V1055.92C941.191 1056.65 941.339 1057.33 941.634 1057.98C941.948 1058.61 942.361 1059.16 942.872 1059.64C943.384 1060.11 943.973 1060.48 944.642 1060.76C945.31 1061.03 946.008 1061.17 946.736 1061.17H949.154C949.881 1061.17 950.579 1061.06 951.248 1060.84C951.916 1060.63 952.506 1060.32 953.017 1059.93C953.548 1059.52 953.961 1059.03 954.256 1058.46C954.571 1057.89 954.728 1057.24 954.728 1056.51C954.728 1055.43 954.492 1054.54 954.02 1053.86C953.548 1053.17 952.919 1052.6 952.133 1052.14C951.366 1051.67 950.481 1051.29 949.478 1050.99C948.495 1050.68 947.483 1050.38 946.441 1050.08C945.399 1049.77 944.376 1049.41 943.374 1049.02C942.391 1048.63 941.506 1048.11 940.72 1047.48C939.953 1046.84 939.333 1046.03 938.862 1045.07C938.39 1044.1 938.154 1042.9 938.154 1041.47C938.154 1040.25 938.39 1039.14 938.862 1038.14C939.333 1037.11 939.972 1036.24 940.779 1035.51C941.585 1034.78 942.519 1034.22 943.58 1033.83C944.662 1033.42 945.812 1033.21 947.031 1033.21H949.154C950.373 1033.21 951.523 1033.45 952.605 1033.92C953.686 1034.37 954.63 1035 955.436 1035.81C956.242 1036.61 956.871 1037.56 957.323 1038.64C957.795 1039.72 958.031 1040.87 958.031 1042.09V1042.21L954.403 1042.8V1041.88C954.403 1041.15 954.266 1040.48 953.991 1039.85C953.715 1039.2 953.342 1038.64 952.87 1038.17C952.398 1037.69 951.838 1037.32 951.189 1037.04C950.56 1036.77 949.881 1036.63 949.154 1036.63H947.031C946.303 1036.63 945.615 1036.74 944.966 1036.96C944.337 1037.17 943.787 1037.49 943.315 1037.9C942.843 1038.29 942.469 1038.78 942.194 1039.35C941.919 1039.92 941.781 1040.56 941.781 1041.29C941.781 1042.33 942.017 1043.19 942.489 1043.86C942.961 1044.51 943.58 1045.06 944.347 1045.51C945.133 1045.96 946.018 1046.34 947.001 1046.66C948.004 1046.95 949.016 1047.27 950.039 1047.6C951.081 1047.92 952.093 1048.28 953.076 1048.69C954.079 1049.11 954.964 1049.64 955.731 1050.29C956.517 1050.94 957.146 1051.75 957.618 1052.73C958.09 1053.7 958.326 1054.9 958.326 1056.33ZM985.458 1055.71C985.458 1056.93 985.222 1058.08 984.75 1059.16C984.298 1060.24 983.669 1061.19 982.863 1061.99C982.056 1062.8 981.113 1063.44 980.031 1063.91C978.95 1064.36 977.8 1064.59 976.581 1064.59H975.667C974.31 1064.59 973.052 1064.31 971.892 1063.76C970.732 1063.21 969.739 1062.45 968.913 1061.46V1076.09H965.286V1033.8H966.495L968.471 1036.87C969.297 1035.75 970.329 1034.86 971.567 1034.21C972.826 1033.55 974.192 1033.21 975.667 1033.21H976.581C977.8 1033.21 978.95 1033.45 980.031 1033.92C981.113 1034.37 982.056 1035 982.863 1035.81C983.669 1036.61 984.298 1037.56 984.75 1038.64C985.222 1039.72 985.458 1040.87 985.458 1042.09V1055.71ZM981.83 1041.88C981.83 1041.15 981.693 1040.48 981.417 1039.85C981.142 1039.2 980.769 1038.64 980.297 1038.17C979.825 1037.69 979.265 1037.32 978.616 1037.04C977.987 1036.77 977.308 1036.63 976.581 1036.63H974.163C973.435 1036.63 972.747 1036.77 972.098 1037.04C971.469 1037.32 970.919 1037.69 970.447 1038.17C969.975 1038.64 969.601 1039.2 969.326 1039.85C969.051 1040.48 968.913 1041.15 968.913 1041.88V1055.92C968.913 1056.65 969.051 1057.33 969.326 1057.98C969.601 1058.61 969.975 1059.16 970.447 1059.64C970.919 1060.11 971.469 1060.48 972.098 1060.76C972.747 1061.03 973.435 1061.17 974.163 1061.17H976.581C977.308 1061.17 977.987 1061.03 978.616 1060.76C979.265 1060.48 979.825 1060.11 980.297 1059.64C980.769 1059.16 981.142 1058.61 981.417 1057.98C981.693 1057.33 981.83 1056.65 981.83 1055.92V1041.88ZM1012.88 1055.71C1012.88 1056.93 1012.65 1058.08 1012.18 1059.16C1011.72 1060.24 1011.1 1061.19 1010.29 1061.99C1009.48 1062.8 1008.54 1063.44 1007.46 1063.91C1006.38 1064.36 1005.23 1064.59 1004.01 1064.59H1001.59C1000.37 1064.59 999.22 1064.36 998.139 1063.91C997.058 1063.44 996.114 1062.8 995.308 1061.99C994.502 1061.19 993.863 1060.24 993.391 1059.16C992.939 1058.08 992.713 1056.93 992.713 1055.71V1042.09C992.713 1040.87 992.939 1039.72 993.391 1038.64C993.863 1037.56 994.502 1036.61 995.308 1035.81C996.114 1035 997.058 1034.37 998.139 1033.92C999.22 1033.45 1000.37 1033.21 1001.59 1033.21H1004.01C1005.23 1033.21 1006.38 1033.45 1007.46 1033.92C1008.54 1034.37 1009.48 1035 1010.29 1035.81C1011.1 1036.61 1011.72 1037.56 1012.18 1038.64C1012.65 1039.72 1012.88 1040.87 1012.88 1042.09V1049.2H996.34V1055.92C996.34 1056.65 996.478 1057.33 996.753 1057.98C997.028 1058.61 997.402 1059.16 997.874 1059.64C998.345 1060.11 998.896 1060.48 999.525 1060.76C1000.17 1061.03 1000.86 1061.17 1001.59 1061.17H1004.01C1004.74 1061.17 1005.41 1061.03 1006.04 1060.76C1006.69 1060.48 1007.25 1060.11 1007.72 1059.64C1008.2 1059.16 1008.57 1058.61 1008.84 1057.98C1009.12 1057.33 1009.26 1056.65 1009.26 1055.92V1053.91L1012.88 1054.5V1055.71ZM1009.26 1041.88C1009.26 1041.15 1009.12 1040.48 1008.84 1039.85C1008.57 1039.2 1008.2 1038.64 1007.72 1038.17C1007.25 1037.69 1006.69 1037.32 1006.04 1037.04C1005.41 1036.77 1004.74 1036.63 1004.01 1036.63H1001.59C1000.86 1036.63 1000.17 1036.77 999.525 1037.04C998.896 1037.32 998.345 1037.69 997.874 1038.17C997.402 1038.64 997.028 1039.2 996.753 1039.85C996.478 1040.48 996.34 1041.15 996.34 1041.88V1046.36H1009.26V1041.88ZM1040.31 1055.71C1040.31 1056.93 1040.08 1058.08 1039.6 1059.16C1039.15 1060.24 1038.52 1061.19 1037.72 1061.99C1036.91 1062.8 1035.97 1063.44 1034.89 1063.91C1033.8 1064.36 1032.65 1064.59 1031.43 1064.59H1029.02C1027.8 1064.59 1026.65 1064.36 1025.57 1063.91C1024.48 1063.44 1023.54 1062.8 1022.73 1061.99C1021.93 1061.19 1021.29 1060.24 1020.82 1059.16C1020.37 1058.08 1020.14 1056.93 1020.14 1055.71V1042.09C1020.14 1040.87 1020.37 1039.72 1020.82 1038.64C1021.29 1037.56 1021.93 1036.61 1022.73 1035.81C1023.54 1035 1024.48 1034.37 1025.57 1033.92C1026.65 1033.45 1027.8 1033.21 1029.02 1033.21H1031.43C1032.65 1033.21 1033.8 1033.45 1034.89 1033.92C1035.97 1034.37 1036.91 1035 1037.72 1035.81C1038.52 1036.61 1039.15 1037.56 1039.6 1038.64C1040.08 1039.72 1040.31 1040.87 1040.31 1042.09V1043.3L1036.68 1043.89V1041.88C1036.68 1041.15 1036.55 1040.48 1036.27 1039.85C1036 1039.2 1035.62 1038.64 1035.15 1038.17C1034.68 1037.69 1034.12 1037.32 1033.47 1037.04C1032.84 1036.77 1032.16 1036.63 1031.43 1036.63H1029.02C1028.29 1036.63 1027.6 1036.77 1026.95 1037.04C1026.32 1037.32 1025.77 1037.69 1025.3 1038.17C1024.83 1038.64 1024.46 1039.2 1024.18 1039.85C1023.9 1040.48 1023.77 1041.15 1023.77 1041.88V1055.92C1023.77 1056.65 1023.9 1057.33 1024.18 1057.98C1024.46 1058.61 1024.83 1059.16 1025.3 1059.64C1025.77 1060.11 1026.32 1060.48 1026.95 1060.76C1027.6 1061.03 1028.29 1061.17 1029.02 1061.17H1031.43C1032.16 1061.17 1032.84 1061.03 1033.47 1060.76C1034.12 1060.48 1034.68 1060.11 1035.15 1059.64C1035.62 1059.16 1036 1058.61 1036.27 1057.98C1036.55 1057.33 1036.68 1056.65 1036.68 1055.92V1053.91L1040.31 1054.5V1055.71ZM1048.48 1026.55V1021.71H1052.7V1026.55H1048.48ZM1048.78 1064V1033.8H1052.4V1064H1048.78ZM1079.86 1064L1077.85 1060.99C1077.03 1062.07 1076 1062.95 1074.76 1063.62C1073.52 1064.27 1072.16 1064.59 1070.69 1064.59H1069.77C1068.55 1064.59 1067.4 1064.36 1066.32 1063.91C1065.24 1063.44 1064.3 1062.8 1063.49 1061.99C1062.69 1061.19 1062.05 1060.24 1061.57 1059.16C1061.12 1058.08 1060.9 1056.93 1060.9 1055.71V1055.42C1060.9 1054.2 1061.12 1053.05 1061.57 1051.97C1062.05 1050.89 1062.69 1049.94 1063.49 1049.14C1064.3 1048.33 1065.24 1047.7 1066.32 1047.25C1067.4 1046.78 1068.55 1046.54 1069.77 1046.54H1077.44V1041.88C1077.44 1041.15 1077.3 1040.48 1077.03 1039.85C1076.75 1039.2 1076.38 1038.64 1075.91 1038.17C1075.44 1037.69 1074.88 1037.32 1074.23 1037.04C1073.6 1036.77 1072.92 1036.63 1072.19 1036.63H1070.07C1069.34 1036.63 1068.65 1036.77 1068 1037.04C1067.37 1037.32 1066.82 1037.69 1066.35 1038.17C1065.88 1038.64 1065.51 1039.2 1065.23 1039.85C1064.96 1040.48 1064.82 1041.15 1064.82 1041.88V1042.97L1061.19 1042.38V1042.09C1061.19 1040.87 1061.42 1039.72 1061.87 1038.64C1062.34 1037.56 1062.98 1036.61 1063.79 1035.81C1064.59 1035 1065.54 1034.37 1066.62 1033.92C1067.7 1033.45 1068.85 1033.21 1070.07 1033.21H1072.19C1073.41 1033.21 1074.56 1033.45 1075.64 1033.92C1076.72 1034.37 1077.67 1035 1078.47 1035.81C1079.28 1036.61 1079.91 1037.56 1080.36 1038.64C1080.83 1039.72 1081.07 1040.87 1081.07 1042.09V1064H1079.86ZM1077.44 1049.37H1069.77C1069.05 1049.37 1068.36 1049.51 1067.71 1049.79C1067.08 1050.06 1066.53 1050.44 1066.06 1050.94C1065.59 1051.41 1065.21 1051.97 1064.94 1052.62C1064.66 1053.25 1064.52 1053.92 1064.52 1054.65V1055.92C1064.52 1056.65 1064.66 1057.33 1064.94 1057.98C1065.21 1058.61 1065.59 1059.16 1066.06 1059.64C1066.53 1060.11 1067.08 1060.48 1067.71 1060.76C1068.36 1061.03 1069.05 1061.17 1069.77 1061.17H1072.19C1072.92 1061.17 1073.6 1061.03 1074.23 1060.76C1074.88 1060.48 1075.44 1060.11 1075.91 1059.64C1076.38 1059.16 1076.75 1058.61 1077.03 1057.98C1077.3 1057.33 1077.44 1056.65 1077.44 1055.92V1049.37ZM1089.53 1064V1021.71H1093.16V1064H1089.53ZM1102.57 1026.55V1021.71H1106.78V1026.55H1102.57ZM1102.86 1064V1033.8H1106.49V1064H1102.86ZM1113.77 1064V1062.38L1128.99 1037.25H1114.36V1033.8H1133.95V1035.42L1118.73 1060.55H1133.95V1064H1113.77ZM1160.16 1055.71C1160.16 1056.93 1159.93 1058.08 1159.46 1059.16C1159 1060.24 1158.37 1061.19 1157.57 1061.99C1156.76 1062.8 1155.82 1063.44 1154.74 1063.91C1153.66 1064.36 1152.51 1064.59 1151.29 1064.59H1148.87C1147.65 1064.59 1146.5 1064.36 1145.42 1063.91C1144.34 1063.44 1143.39 1062.8 1142.59 1061.99C1141.78 1061.19 1141.14 1060.24 1140.67 1059.16C1140.22 1058.08 1139.99 1056.93 1139.99 1055.71V1042.09C1139.99 1040.87 1140.22 1039.72 1140.67 1038.64C1141.14 1037.56 1141.78 1036.61 1142.59 1035.81C1143.39 1035 1144.34 1034.37 1145.42 1033.92C1146.5 1033.45 1147.65 1033.21 1148.87 1033.21H1151.29C1152.51 1033.21 1153.66 1033.45 1154.74 1033.92C1155.82 1034.37 1156.76 1035 1157.57 1035.81C1158.37 1036.61 1159 1037.56 1159.46 1038.64C1159.93 1039.72 1160.16 1040.87 1160.16 1042.09V1049.2H1143.62V1055.92C1143.62 1056.65 1143.76 1057.33 1144.03 1057.98C1144.31 1058.61 1144.68 1059.16 1145.15 1059.64C1145.62 1060.11 1146.18 1060.48 1146.8 1060.76C1147.45 1061.03 1148.14 1061.17 1148.87 1061.17H1151.29C1152.01 1061.17 1152.69 1061.03 1153.32 1060.76C1153.97 1060.48 1154.53 1060.11 1155 1059.64C1155.47 1059.16 1155.85 1058.61 1156.12 1057.98C1156.4 1057.33 1156.54 1056.65 1156.54 1055.92V1053.91L1160.16 1054.5V1055.71ZM1156.54 1041.88C1156.54 1041.15 1156.4 1040.48 1156.12 1039.85C1155.85 1039.2 1155.47 1038.64 1155 1038.17C1154.53 1037.69 1153.97 1037.32 1153.32 1037.04C1152.69 1036.77 1152.01 1036.63 1151.29 1036.63H1148.87C1148.14 1036.63 1147.45 1036.77 1146.8 1037.04C1146.18 1037.32 1145.62 1037.69 1145.15 1038.17C1144.68 1038.64 1144.31 1039.2 1144.03 1039.85C1143.76 1040.48 1143.62 1041.15 1143.62 1041.88V1046.36H1156.54V1041.88ZM1186.38 1064L1184.38 1060.93C1183.55 1062.05 1182.52 1062.95 1181.28 1063.62C1180.04 1064.27 1178.68 1064.59 1177.21 1064.59H1176.3C1175.08 1064.59 1173.93 1064.36 1172.85 1063.91C1171.76 1063.44 1170.82 1062.8 1170.01 1061.99C1169.21 1061.19 1168.57 1060.24 1168.1 1059.16C1167.64 1058.08 1167.42 1056.93 1167.42 1055.71V1042.09C1167.42 1040.87 1167.64 1039.72 1168.1 1038.64C1168.57 1037.56 1169.21 1036.61 1170.01 1035.81C1170.82 1035 1171.76 1034.37 1172.85 1033.92C1173.93 1033.45 1175.08 1033.21 1176.3 1033.21H1177.21C1178.57 1033.21 1179.82 1033.49 1180.98 1034.04C1182.14 1034.59 1183.14 1035.35 1183.96 1036.34V1021.71H1187.59V1064H1186.38ZM1183.96 1041.88C1183.96 1041.15 1183.83 1040.48 1183.55 1039.85C1183.28 1039.2 1182.9 1038.64 1182.43 1038.17C1181.96 1037.69 1181.4 1037.32 1180.75 1037.04C1180.12 1036.77 1179.44 1036.63 1178.71 1036.63H1176.3C1175.57 1036.63 1174.88 1036.77 1174.23 1037.04C1173.6 1037.32 1173.05 1037.69 1172.58 1038.17C1172.11 1038.64 1171.73 1039.2 1171.46 1039.85C1171.18 1040.48 1171.05 1041.15 1171.05 1041.88V1055.92C1171.05 1056.65 1171.18 1057.33 1171.46 1057.98C1171.73 1058.61 1172.11 1059.16 1172.58 1059.64C1173.05 1060.11 1173.6 1060.48 1174.23 1060.76C1174.88 1061.03 1175.57 1061.17 1176.3 1061.17H1178.71C1179.44 1061.17 1180.12 1061.03 1180.75 1060.76C1181.4 1060.48 1181.96 1060.11 1182.43 1059.64C1182.9 1059.16 1183.28 1058.61 1183.55 1057.98C1183.83 1057.33 1183.96 1056.65 1183.96 1055.92V1041.88ZM1209.68 1026.55V1021.71H1213.9V1026.55H1209.68ZM1209.97 1064V1033.8H1213.6V1064H1209.97ZM1238.64 1064V1041.88C1238.64 1041.15 1238.5 1040.48 1238.23 1039.85C1237.95 1039.2 1237.58 1038.64 1237.11 1038.17C1236.63 1037.69 1236.07 1037.32 1235.43 1037.04C1234.8 1036.77 1234.12 1036.63 1233.39 1036.63H1230.97C1230.24 1036.63 1229.56 1036.77 1228.91 1037.04C1228.28 1037.32 1227.73 1037.69 1227.26 1038.17C1226.78 1038.64 1226.41 1039.2 1226.14 1039.85C1225.86 1040.48 1225.72 1041.15 1225.72 1041.88V1064H1222.1V1033.8H1223.3L1225.28 1036.87C1226.11 1035.75 1227.14 1034.86 1228.38 1034.21C1229.64 1033.55 1231 1033.21 1232.48 1033.21H1233.39C1234.61 1033.21 1235.76 1033.45 1236.84 1033.92C1237.92 1034.37 1238.87 1035 1239.67 1035.81C1240.48 1036.61 1241.11 1037.56 1241.56 1038.64C1242.03 1039.72 1242.27 1040.87 1242.27 1042.09V1064H1238.64ZM1250.44 1026.55V1021.71H1254.65V1026.55H1250.44ZM1250.73 1064V1033.8H1254.36V1064H1250.73ZM1273.85 1064C1272.75 1064 1271.71 1063.79 1270.73 1063.38C1269.76 1062.97 1268.92 1062.4 1268.19 1061.67C1267.48 1060.94 1266.91 1060.1 1266.48 1059.13C1266.07 1058.17 1265.86 1057.14 1265.86 1056.04V1037.25H1260.43V1033.8H1265.86V1026.55L1269.49 1025.96V1033.8H1277.16V1037.25H1269.49V1056.21C1269.49 1056.82 1269.6 1057.39 1269.81 1057.92C1270.05 1058.44 1270.36 1058.89 1270.76 1059.28C1271.15 1059.67 1271.61 1059.99 1272.14 1060.23C1272.67 1060.44 1273.24 1060.55 1273.85 1060.55H1277.16V1064H1273.85ZM1284.76 1026.55V1021.71H1288.98V1026.55H1284.76ZM1285.06 1064V1033.8H1288.69V1064H1285.06ZM1316.14 1064L1314.14 1060.99C1313.31 1062.07 1312.28 1062.95 1311.04 1063.62C1309.8 1064.27 1308.45 1064.59 1306.97 1064.59H1306.06C1304.84 1064.59 1303.69 1064.36 1302.61 1063.91C1301.53 1063.44 1300.58 1062.8 1299.78 1061.99C1298.97 1061.19 1298.33 1060.24 1297.86 1059.16C1297.41 1058.08 1297.18 1056.93 1297.18 1055.71V1055.42C1297.18 1054.2 1297.41 1053.05 1297.86 1051.97C1298.33 1050.89 1298.97 1049.94 1299.78 1049.14C1300.58 1048.33 1301.53 1047.7 1302.61 1047.25C1303.69 1046.78 1304.84 1046.54 1306.06 1046.54H1313.72V1041.88C1313.72 1041.15 1313.59 1040.48 1313.31 1039.85C1313.04 1039.2 1312.66 1038.64 1312.19 1038.17C1311.72 1037.69 1311.16 1037.32 1310.51 1037.04C1309.88 1036.77 1309.2 1036.63 1308.48 1036.63H1306.35C1305.62 1036.63 1304.94 1036.77 1304.29 1037.04C1303.66 1037.32 1303.11 1037.69 1302.64 1038.17C1302.16 1038.64 1301.79 1039.2 1301.52 1039.85C1301.24 1040.48 1301.1 1041.15 1301.1 1041.88V1042.97L1297.48 1042.38V1042.09C1297.48 1040.87 1297.7 1039.72 1298.15 1038.64C1298.63 1037.56 1299.26 1036.61 1300.07 1035.81C1300.88 1035 1301.82 1034.37 1302.9 1033.92C1303.98 1033.45 1305.13 1033.21 1306.35 1033.21H1308.48C1309.69 1033.21 1310.84 1033.45 1311.93 1033.92C1313.01 1034.37 1313.95 1035 1314.76 1035.81C1315.56 1036.61 1316.19 1037.56 1316.64 1038.64C1317.12 1039.72 1317.35 1040.87 1317.35 1042.09V1064H1316.14ZM1313.72 1049.37H1306.06C1305.33 1049.37 1304.64 1049.51 1303.99 1049.79C1303.36 1050.06 1302.81 1050.44 1302.34 1050.94C1301.87 1051.41 1301.5 1051.97 1301.22 1052.62C1300.95 1053.25 1300.81 1053.92 1300.81 1054.65V1055.92C1300.81 1056.65 1300.95 1057.33 1301.22 1057.98C1301.5 1058.61 1301.87 1059.16 1302.34 1059.64C1302.81 1060.11 1303.36 1060.48 1303.99 1060.76C1304.64 1061.03 1305.33 1061.17 1306.06 1061.17H1308.48C1309.2 1061.17 1309.88 1061.03 1310.51 1060.76C1311.16 1060.48 1311.72 1060.11 1312.19 1059.64C1312.66 1059.16 1313.04 1058.61 1313.31 1057.98C1313.59 1057.33 1313.72 1056.65 1313.72 1055.92V1049.37ZM1335.61 1064C1334.51 1064 1333.46 1063.79 1332.48 1063.38C1331.52 1062.97 1330.67 1062.4 1329.95 1061.67C1329.24 1060.94 1328.67 1060.1 1328.23 1059.13C1327.82 1058.17 1327.62 1057.14 1327.62 1056.04V1037.25H1322.19V1033.8H1327.62V1026.55L1331.24 1025.96V1033.8H1338.91V1037.25H1331.24V1056.21C1331.24 1056.82 1331.35 1057.39 1331.57 1057.92C1331.8 1058.44 1332.12 1058.89 1332.51 1059.28C1332.9 1059.67 1333.37 1059.99 1333.9 1060.23C1334.43 1060.44 1335 1060.55 1335.61 1060.55H1338.91V1064H1335.61ZM1346.52 1026.55V1021.71H1350.74V1026.55H1346.52ZM1346.81 1064V1033.8H1350.44V1064H1346.81ZM1368.4 1064H1366.6L1355.9 1033.8H1359.52L1367.4 1056.69L1367.52 1058.25L1367.63 1056.69L1375.48 1033.8H1379.11L1368.4 1064ZM1403.53 1055.71C1403.53 1056.93 1403.29 1058.08 1402.82 1059.16C1402.37 1060.24 1401.74 1061.19 1400.93 1061.99C1400.12 1062.8 1399.18 1063.44 1398.1 1063.91C1397.02 1064.36 1395.87 1064.59 1394.65 1064.59H1392.23C1391.01 1064.59 1389.86 1064.36 1388.78 1063.91C1387.7 1063.44 1386.76 1062.8 1385.95 1061.99C1385.14 1061.19 1384.5 1060.24 1384.03 1059.16C1383.58 1058.08 1383.35 1056.93 1383.35 1055.71V1042.09C1383.35 1040.87 1383.58 1039.72 1384.03 1038.64C1384.5 1037.56 1385.14 1036.61 1385.95 1035.81C1386.76 1035 1387.7 1034.37 1388.78 1033.92C1389.86 1033.45 1391.01 1033.21 1392.23 1033.21H1394.65C1395.87 1033.21 1397.02 1033.45 1398.1 1033.92C1399.18 1034.37 1400.12 1035 1400.93 1035.81C1401.74 1036.61 1402.37 1037.56 1402.82 1038.64C1403.29 1039.72 1403.53 1040.87 1403.53 1042.09V1049.2H1386.98V1055.92C1386.98 1056.65 1387.12 1057.33 1387.39 1057.98C1387.67 1058.61 1388.04 1059.16 1388.51 1059.64C1388.99 1060.11 1389.54 1060.48 1390.17 1060.76C1390.81 1061.03 1391.5 1061.17 1392.23 1061.17H1394.65C1395.38 1061.17 1396.05 1061.03 1396.68 1060.76C1397.33 1060.48 1397.89 1060.11 1398.36 1059.64C1398.84 1059.16 1399.21 1058.61 1399.49 1057.98C1399.76 1057.33 1399.9 1056.65 1399.9 1055.92V1053.91L1403.53 1054.5V1055.71ZM1399.9 1041.88C1399.9 1041.15 1399.76 1040.48 1399.49 1039.85C1399.21 1039.2 1398.84 1038.64 1398.36 1038.17C1397.89 1037.69 1397.33 1037.32 1396.68 1037.04C1396.05 1036.77 1395.38 1036.63 1394.65 1036.63H1392.23C1391.5 1036.63 1390.81 1036.77 1390.17 1037.04C1389.54 1037.32 1388.99 1037.69 1388.51 1038.17C1388.04 1038.64 1387.67 1039.2 1387.39 1039.85C1387.12 1040.48 1386.98 1041.15 1386.98 1041.88V1046.36H1399.9V1041.88ZM1444.87 1055.71C1444.87 1056.93 1444.64 1058.08 1444.16 1059.16C1443.71 1060.24 1443.08 1061.19 1442.28 1061.99C1441.47 1062.8 1440.53 1063.44 1439.45 1063.91C1438.36 1064.36 1437.21 1064.59 1436 1064.59H1433.58C1432.36 1064.59 1431.21 1064.36 1430.13 1063.91C1429.05 1063.44 1428.1 1062.8 1427.3 1061.99C1426.49 1061.19 1425.85 1060.24 1425.38 1059.16C1424.93 1058.08 1424.7 1056.93 1424.7 1055.71V1042.09C1424.7 1040.87 1424.93 1039.72 1425.38 1038.64C1425.85 1037.56 1426.49 1036.61 1427.3 1035.81C1428.1 1035 1429.05 1034.37 1430.13 1033.92C1431.21 1033.45 1432.36 1033.21 1433.58 1033.21H1436C1437.21 1033.21 1438.36 1033.45 1439.45 1033.92C1440.53 1034.37 1441.47 1035 1442.28 1035.81C1443.08 1036.61 1443.71 1037.56 1444.16 1038.64C1444.64 1039.72 1444.87 1040.87 1444.87 1042.09V1055.71ZM1441.25 1041.88C1441.25 1041.15 1441.11 1040.48 1440.83 1039.85C1440.56 1039.2 1440.18 1038.64 1439.71 1038.17C1439.24 1037.69 1438.68 1037.32 1438.03 1037.04C1437.4 1036.77 1436.72 1036.63 1436 1036.63H1433.58C1432.85 1036.63 1432.16 1036.77 1431.51 1037.04C1430.88 1037.32 1430.33 1037.69 1429.86 1038.17C1429.39 1038.64 1429.02 1039.2 1428.74 1039.85C1428.47 1040.48 1428.33 1041.15 1428.33 1041.88V1055.92C1428.33 1056.65 1428.47 1057.33 1428.74 1057.98C1429.02 1058.61 1429.39 1059.16 1429.86 1059.64C1430.33 1060.11 1430.88 1060.48 1431.51 1060.76C1432.16 1061.03 1432.85 1061.17 1433.58 1061.17H1436C1436.72 1061.17 1437.4 1061.03 1438.03 1060.76C1438.68 1060.48 1439.24 1060.11 1439.71 1059.64C1440.18 1059.16 1440.56 1058.61 1440.83 1057.98C1441.11 1057.33 1441.25 1056.65 1441.25 1055.92V1041.88ZM1462.51 1025.16C1461.9 1025.16 1461.33 1025.28 1460.8 1025.51C1460.29 1025.73 1459.83 1026.03 1459.44 1026.43C1459.05 1026.82 1458.73 1027.28 1458.5 1027.81C1458.28 1028.35 1458.17 1028.92 1458.17 1029.52V1033.8H1465.22V1037.25H1458.17V1064H1454.55V1037.25H1449.09V1033.8H1454.55V1029.7C1454.55 1028.6 1454.75 1027.57 1455.16 1026.61C1455.58 1025.62 1456.15 1024.77 1456.88 1024.04C1457.6 1023.31 1458.45 1022.74 1459.41 1022.33C1460.38 1021.92 1461.41 1021.71 1462.51 1021.71H1465.84V1025.16H1462.51ZM1494.39 1064C1493.29 1064 1492.25 1063.79 1491.26 1063.38C1490.3 1062.97 1489.45 1062.4 1488.73 1061.67C1488.02 1060.94 1487.45 1060.1 1487.02 1059.13C1486.6 1058.17 1486.4 1057.14 1486.4 1056.04V1037.25H1480.97V1033.8H1486.4V1026.55L1490.02 1025.96V1033.8H1497.69V1037.25H1490.02V1056.21C1490.02 1056.82 1490.13 1057.39 1490.35 1057.92C1490.58 1058.44 1490.9 1058.89 1491.29 1059.28C1491.68 1059.67 1492.15 1059.99 1492.68 1060.23C1493.21 1060.44 1493.78 1060.55 1494.39 1060.55H1497.69V1064H1494.39ZM1520.93 1064V1041.88C1520.93 1041.15 1520.79 1040.48 1520.52 1039.85C1520.24 1039.2 1519.87 1038.64 1519.4 1038.17C1518.92 1037.69 1518.36 1037.32 1517.72 1037.04C1517.09 1036.77 1516.41 1036.63 1515.68 1036.63H1513.26C1512.54 1036.63 1511.85 1036.77 1511.2 1037.04C1510.57 1037.32 1510.02 1037.69 1509.55 1038.17C1509.07 1038.64 1508.7 1039.2 1508.43 1039.85C1508.15 1040.48 1508.01 1041.15 1508.01 1041.88V1064H1504.39V1021.71H1508.01V1036.34C1508.84 1035.35 1509.83 1034.59 1510.99 1034.04C1512.15 1033.49 1513.41 1033.21 1514.77 1033.21H1515.68C1516.9 1033.21 1518.05 1033.45 1519.13 1033.92C1520.21 1034.37 1521.16 1035 1521.96 1035.81C1522.77 1036.61 1523.4 1037.56 1523.85 1038.64C1524.32 1039.72 1524.56 1040.87 1524.56 1042.09V1064H1520.93ZM1551.98 1055.71C1551.98 1056.93 1551.75 1058.08 1551.28 1059.16C1550.82 1060.24 1550.2 1061.19 1549.39 1061.99C1548.58 1062.8 1547.64 1063.44 1546.56 1063.91C1545.48 1064.36 1544.33 1064.59 1543.11 1064.59H1540.69C1539.47 1064.59 1538.32 1064.36 1537.24 1063.91C1536.16 1063.44 1535.21 1062.8 1534.41 1061.99C1533.6 1061.19 1532.96 1060.24 1532.49 1059.16C1532.04 1058.08 1531.81 1056.93 1531.81 1055.71V1042.09C1531.81 1040.87 1532.04 1039.72 1532.49 1038.64C1532.96 1037.56 1533.6 1036.61 1534.41 1035.81C1535.21 1035 1536.16 1034.37 1537.24 1033.92C1538.32 1033.45 1539.47 1033.21 1540.69 1033.21H1543.11C1544.33 1033.21 1545.48 1033.45 1546.56 1033.92C1547.64 1034.37 1548.58 1035 1549.39 1035.81C1550.2 1036.61 1550.82 1037.56 1551.28 1038.64C1551.75 1039.72 1551.98 1040.87 1551.98 1042.09V1049.2H1535.44V1055.92C1535.44 1056.65 1535.58 1057.33 1535.85 1057.98C1536.13 1058.61 1536.5 1059.16 1536.97 1059.64C1537.45 1060.11 1538 1060.48 1538.63 1060.76C1539.27 1061.03 1539.96 1061.17 1540.69 1061.17H1543.11C1543.84 1061.17 1544.51 1061.03 1545.14 1060.76C1545.79 1060.48 1546.35 1060.11 1546.82 1059.64C1547.3 1059.16 1547.67 1058.61 1547.94 1057.98C1548.22 1057.33 1548.36 1056.65 1548.36 1055.92V1053.91L1551.98 1054.5V1055.71ZM1548.36 1041.88C1548.36 1041.15 1548.22 1040.48 1547.94 1039.85C1547.67 1039.2 1547.3 1038.64 1546.82 1038.17C1546.35 1037.69 1545.79 1037.32 1545.14 1037.04C1544.51 1036.77 1543.84 1036.63 1543.11 1036.63H1540.69C1539.96 1036.63 1539.27 1036.77 1538.63 1037.04C1538 1037.32 1537.45 1037.69 1536.97 1038.17C1536.5 1038.64 1536.13 1039.2 1535.85 1039.85C1535.58 1040.48 1535.44 1041.15 1535.44 1041.88V1046.36H1548.36V1041.88ZM1573.75 1064V1021.71H1577.55V1060.37H1593.74V1064H1573.75ZM1617.54 1064L1615.54 1060.93C1614.71 1062.05 1613.68 1062.95 1612.44 1063.62C1611.2 1064.27 1609.85 1064.59 1608.37 1064.59H1607.46C1606.24 1064.59 1605.09 1064.36 1604.01 1063.91C1602.93 1063.44 1601.98 1062.8 1601.18 1061.99C1600.37 1061.19 1599.73 1060.24 1599.26 1059.16C1598.81 1058.08 1598.58 1056.93 1598.58 1055.71V1033.8H1602.21V1055.92C1602.21 1056.65 1602.35 1057.33 1602.62 1057.98C1602.9 1058.61 1603.27 1059.16 1603.74 1059.64C1604.21 1060.11 1604.76 1060.48 1605.39 1060.76C1606.04 1061.03 1606.73 1061.17 1607.46 1061.17H1609.88C1610.6 1061.17 1611.28 1061.03 1611.91 1060.76C1612.56 1060.48 1613.12 1060.11 1613.59 1059.64C1614.06 1059.16 1614.44 1058.61 1614.71 1057.98C1614.99 1057.33 1615.13 1056.65 1615.13 1055.92V1033.8H1618.75V1064H1617.54ZM1637.01 1064C1635.91 1064 1634.86 1063.79 1633.88 1063.38C1632.92 1062.97 1632.07 1062.4 1631.35 1061.67C1630.64 1060.94 1630.07 1060.1 1629.64 1059.13C1629.22 1058.17 1629.02 1057.14 1629.02 1056.04V1037.25H1623.59V1033.8H1629.02V1026.55L1632.64 1025.96V1033.8H1640.31V1037.25H1632.64V1056.21C1632.64 1056.82 1632.75 1057.39 1632.97 1057.92C1633.2 1058.44 1633.52 1058.89 1633.91 1059.28C1634.3 1059.67 1634.77 1059.99 1635.3 1060.23C1635.83 1060.44 1636.4 1060.55 1637.01 1060.55H1640.31V1064H1637.01ZM1663.55 1064V1041.88C1663.55 1041.15 1663.41 1040.48 1663.14 1039.85C1662.86 1039.2 1662.49 1038.64 1662.02 1038.17C1661.54 1037.69 1660.98 1037.32 1660.34 1037.04C1659.71 1036.77 1659.03 1036.63 1658.3 1036.63H1655.88C1655.15 1036.63 1654.47 1036.77 1653.82 1037.04C1653.19 1037.32 1652.64 1037.69 1652.17 1038.17C1651.69 1038.64 1651.32 1039.2 1651.05 1039.85C1650.77 1040.48 1650.63 1041.15 1650.63 1041.88V1064H1647.01V1021.71H1650.63V1036.34C1651.46 1035.35 1652.45 1034.59 1653.61 1034.04C1654.77 1033.49 1656.03 1033.21 1657.39 1033.21H1658.3C1659.52 1033.21 1660.67 1033.45 1661.75 1033.92C1662.83 1034.37 1663.78 1035 1664.58 1035.81C1665.39 1036.61 1666.02 1037.56 1666.47 1038.64C1666.94 1039.72 1667.18 1040.87 1667.18 1042.09V1064H1663.55ZM1694.6 1055.71C1694.6 1056.93 1694.37 1058.08 1693.9 1059.16C1693.44 1060.24 1692.82 1061.19 1692.01 1061.99C1691.2 1062.8 1690.26 1063.44 1689.18 1063.91C1688.1 1064.36 1686.95 1064.59 1685.73 1064.59H1683.31C1682.09 1064.59 1680.94 1064.36 1679.86 1063.91C1678.78 1063.44 1677.83 1062.8 1677.03 1061.99C1676.22 1061.19 1675.58 1060.24 1675.11 1059.16C1674.66 1058.08 1674.43 1056.93 1674.43 1055.71V1042.09C1674.43 1040.87 1674.66 1039.72 1675.11 1038.64C1675.58 1037.56 1676.22 1036.61 1677.03 1035.81C1677.83 1035 1678.78 1034.37 1679.86 1033.92C1680.94 1033.45 1682.09 1033.21 1683.31 1033.21H1685.73C1686.95 1033.21 1688.1 1033.45 1689.18 1033.92C1690.26 1034.37 1691.2 1035 1692.01 1035.81C1692.82 1036.61 1693.44 1037.56 1693.9 1038.64C1694.37 1039.72 1694.6 1040.87 1694.6 1042.09V1049.2H1678.06V1055.92C1678.06 1056.65 1678.2 1057.33 1678.47 1057.98C1678.75 1058.61 1679.12 1059.16 1679.59 1059.64C1680.07 1060.11 1680.62 1060.48 1681.24 1060.76C1681.89 1061.03 1682.58 1061.17 1683.31 1061.17H1685.73C1686.45 1061.17 1687.13 1061.03 1687.76 1060.76C1688.41 1060.48 1688.97 1060.11 1689.44 1059.64C1689.92 1059.16 1690.29 1058.61 1690.56 1057.98C1690.84 1057.33 1690.98 1056.65 1690.98 1055.92V1053.91L1694.6 1054.5V1055.71ZM1690.98 1041.88C1690.98 1041.15 1690.84 1040.48 1690.56 1039.85C1690.29 1039.2 1689.92 1038.64 1689.44 1038.17C1688.97 1037.69 1688.41 1037.32 1687.76 1037.04C1687.13 1036.77 1686.45 1036.63 1685.73 1036.63H1683.31C1682.58 1036.63 1681.89 1036.77 1681.24 1037.04C1680.62 1037.32 1680.07 1037.69 1679.59 1038.17C1679.12 1038.64 1678.75 1039.2 1678.47 1039.85C1678.2 1040.48 1678.06 1041.15 1678.06 1041.88V1046.36H1690.98V1041.88ZM1710.74 1037.25C1710.01 1037.25 1709.32 1037.39 1708.67 1037.66C1708.04 1037.94 1707.49 1038.31 1707.02 1038.78C1706.55 1039.26 1706.17 1039.82 1705.9 1040.47C1705.62 1041.1 1705.49 1041.77 1705.49 1042.5V1064H1701.86V1033.8H1703.07L1705.04 1036.87C1705.87 1035.75 1706.9 1034.86 1708.14 1034.21C1709.4 1033.55 1710.77 1033.21 1712.24 1033.21H1714.36V1037.25H1710.74ZM1735.74 1064V1041.88C1735.74 1041.15 1735.61 1040.48 1735.33 1039.85C1735.06 1039.2 1734.68 1038.64 1734.21 1038.17C1733.74 1037.69 1733.18 1037.32 1732.53 1037.04C1731.9 1036.77 1731.22 1036.63 1730.5 1036.63H1728.08C1727.35 1036.63 1726.66 1036.77 1726.01 1037.04C1725.38 1037.32 1724.83 1037.69 1724.36 1038.17C1723.89 1038.64 1723.52 1039.2 1723.24 1039.85C1722.97 1040.48 1722.83 1041.15 1722.83 1041.88V1064H1719.2V1033.8H1720.41L1722.39 1036.87C1723.21 1035.75 1724.24 1034.86 1725.48 1034.21C1726.74 1033.55 1728.11 1033.21 1729.58 1033.21H1730.5C1731.71 1033.21 1732.86 1033.45 1733.95 1033.92C1735.03 1034.37 1735.97 1035 1736.78 1035.81C1737.58 1036.61 1738.21 1037.56 1738.66 1038.64C1739.14 1039.72 1739.37 1040.87 1739.37 1042.09V1064H1735.74ZM1784.94 1054.21C1784.94 1055.64 1784.66 1056.99 1784.11 1058.25C1783.58 1059.51 1782.84 1060.61 1781.9 1061.55C1780.95 1062.5 1779.85 1063.24 1778.6 1063.79C1777.34 1064.32 1775.99 1064.59 1774.56 1064.59H1771.55C1770.11 1064.59 1768.76 1064.32 1767.48 1063.79C1766.22 1063.24 1765.12 1062.5 1764.17 1061.55C1763.23 1060.61 1762.48 1059.51 1761.93 1058.25C1761.4 1056.99 1761.14 1055.64 1761.14 1054.21V1031.5C1761.14 1030.07 1761.4 1028.72 1761.93 1027.46C1762.48 1026.2 1763.23 1025.1 1764.17 1024.16C1765.12 1023.21 1766.22 1022.48 1767.48 1021.95C1768.76 1021.39 1770.11 1021.12 1771.55 1021.12H1774.56C1775.99 1021.12 1777.34 1021.39 1778.6 1021.95C1779.85 1022.48 1780.95 1023.21 1781.9 1024.16C1782.84 1025.1 1783.58 1026.2 1784.11 1027.46C1784.66 1028.72 1784.94 1030.07 1784.94 1031.5V1033.21L1781.13 1033.8V1031.5C1781.13 1030.56 1780.95 1029.68 1780.6 1028.88C1780.25 1028.05 1779.77 1027.33 1779.16 1026.72C1778.55 1026.11 1777.83 1025.63 1777 1025.28C1776.2 1024.92 1775.32 1024.75 1774.38 1024.75H1771.72C1770.78 1024.75 1769.9 1024.92 1769.07 1025.28C1768.26 1025.63 1767.55 1026.11 1766.92 1026.72C1766.31 1027.33 1765.83 1028.05 1765.47 1028.88C1765.12 1029.68 1764.94 1030.56 1764.94 1031.5V1054.21C1764.94 1055.15 1765.12 1056.04 1765.47 1056.86C1765.83 1057.67 1766.31 1058.39 1766.92 1059.02C1767.55 1059.63 1768.26 1060.11 1769.07 1060.46C1769.9 1060.81 1770.78 1060.99 1771.72 1060.99H1774.38C1775.32 1060.99 1776.2 1060.81 1777 1060.46C1777.83 1060.11 1778.55 1059.63 1779.16 1059.02C1779.77 1058.39 1780.25 1057.67 1780.6 1056.86C1780.95 1056.04 1781.13 1055.15 1781.13 1054.21V1051.91L1784.94 1052.53V1054.21ZM1812.39 1055.71C1812.39 1056.93 1812.16 1058.08 1811.68 1059.16C1811.23 1060.24 1810.6 1061.19 1809.8 1061.99C1808.99 1062.8 1808.05 1063.44 1806.97 1063.91C1805.88 1064.36 1804.73 1064.59 1803.52 1064.59H1801.1C1799.88 1064.59 1798.73 1064.36 1797.65 1063.91C1796.57 1063.44 1795.62 1062.8 1794.82 1061.99C1794.01 1061.19 1793.37 1060.24 1792.9 1059.16C1792.45 1058.08 1792.22 1056.93 1792.22 1055.71V1042.09C1792.22 1040.87 1792.45 1039.72 1792.9 1038.64C1793.37 1037.56 1794.01 1036.61 1794.82 1035.81C1795.62 1035 1796.57 1034.37 1797.65 1033.92C1798.73 1033.45 1799.88 1033.21 1801.1 1033.21H1803.52C1804.73 1033.21 1805.88 1033.45 1806.97 1033.92C1808.05 1034.37 1808.99 1035 1809.8 1035.81C1810.6 1036.61 1811.23 1037.56 1811.68 1038.64C1812.16 1039.72 1812.39 1040.87 1812.39 1042.09V1049.2H1795.85V1055.92C1795.85 1056.65 1795.99 1057.33 1796.26 1057.98C1796.54 1058.61 1796.91 1059.16 1797.38 1059.64C1797.85 1060.11 1798.4 1060.48 1799.03 1060.76C1799.68 1061.03 1800.37 1061.17 1801.1 1061.17H1803.52C1804.24 1061.17 1804.92 1061.03 1805.55 1060.76C1806.2 1060.48 1806.76 1060.11 1807.23 1059.64C1807.7 1059.16 1808.08 1058.61 1808.35 1057.98C1808.63 1057.33 1808.76 1056.65 1808.76 1055.92V1053.91L1812.39 1054.5V1055.71ZM1808.76 1041.88C1808.76 1041.15 1808.63 1040.48 1808.35 1039.85C1808.08 1039.2 1807.7 1038.64 1807.23 1038.17C1806.76 1037.69 1806.2 1037.32 1805.55 1037.04C1804.92 1036.77 1804.24 1036.63 1803.52 1036.63H1801.1C1800.37 1036.63 1799.68 1036.77 1799.03 1037.04C1798.4 1037.32 1797.85 1037.69 1797.38 1038.17C1796.91 1038.64 1796.54 1039.2 1796.26 1039.85C1795.99 1040.48 1795.85 1041.15 1795.85 1041.88V1046.36H1808.76V1041.88ZM1836.19 1064V1041.88C1836.19 1041.15 1836.05 1040.48 1835.78 1039.85C1835.5 1039.2 1835.13 1038.64 1834.66 1038.17C1834.19 1037.69 1833.63 1037.32 1832.98 1037.04C1832.35 1036.77 1831.67 1036.63 1830.94 1036.63H1828.52C1827.8 1036.63 1827.11 1036.77 1826.46 1037.04C1825.83 1037.32 1825.28 1037.69 1824.81 1038.17C1824.34 1038.64 1823.96 1039.2 1823.69 1039.85C1823.41 1040.48 1823.27 1041.15 1823.27 1041.88V1064H1819.65V1033.8H1820.86L1822.83 1036.87C1823.66 1035.75 1824.69 1034.86 1825.93 1034.21C1827.19 1033.55 1828.55 1033.21 1830.03 1033.21H1830.94C1832.16 1033.21 1833.31 1033.45 1834.39 1033.92C1835.47 1034.37 1836.42 1035 1837.22 1035.81C1838.03 1036.61 1838.66 1037.56 1839.11 1038.64C1839.58 1039.72 1839.82 1040.87 1839.82 1042.09V1064H1836.19ZM1858.07 1064C1856.97 1064 1855.93 1063.79 1854.95 1063.38C1853.98 1062.97 1853.14 1062.4 1852.41 1061.67C1851.7 1060.94 1851.13 1060.1 1850.7 1059.13C1850.29 1058.17 1850.08 1057.14 1850.08 1056.04V1037.25H1844.66V1033.8H1850.08V1026.55L1853.71 1025.96V1033.8H1861.38V1037.25H1853.71V1056.21C1853.71 1056.82 1853.82 1057.39 1854.03 1057.92C1854.27 1058.44 1854.58 1058.89 1854.98 1059.28C1855.37 1059.67 1855.83 1059.99 1856.36 1060.23C1856.89 1060.44 1857.46 1060.55 1858.07 1060.55H1861.38V1064H1858.07ZM1888.24 1055.71C1888.24 1056.93 1888.01 1058.08 1887.54 1059.16C1887.08 1060.24 1886.45 1061.19 1885.65 1061.99C1884.84 1062.8 1883.9 1063.44 1882.82 1063.91C1881.74 1064.36 1880.59 1064.59 1879.37 1064.59H1876.95C1875.73 1064.59 1874.58 1064.36 1873.5 1063.91C1872.42 1063.44 1871.47 1062.8 1870.67 1061.99C1869.86 1061.19 1869.22 1060.24 1868.75 1059.16C1868.3 1058.08 1868.07 1056.93 1868.07 1055.71V1042.09C1868.07 1040.87 1868.3 1039.72 1868.75 1038.64C1869.22 1037.56 1869.86 1036.61 1870.67 1035.81C1871.47 1035 1872.42 1034.37 1873.5 1033.92C1874.58 1033.45 1875.73 1033.21 1876.95 1033.21H1879.37C1880.59 1033.21 1881.74 1033.45 1882.82 1033.92C1883.9 1034.37 1884.84 1035 1885.65 1035.81C1886.45 1036.61 1887.08 1037.56 1887.54 1038.64C1888.01 1039.72 1888.24 1040.87 1888.24 1042.09V1049.2H1871.7V1055.92C1871.7 1056.65 1871.84 1057.33 1872.11 1057.98C1872.39 1058.61 1872.76 1059.16 1873.23 1059.64C1873.7 1060.11 1874.26 1060.48 1874.88 1060.76C1875.53 1061.03 1876.22 1061.17 1876.95 1061.17H1879.37C1880.09 1061.17 1880.77 1061.03 1881.4 1060.76C1882.05 1060.48 1882.61 1060.11 1883.08 1059.64C1883.55 1059.16 1883.93 1058.61 1884.2 1057.98C1884.48 1057.33 1884.62 1056.65 1884.62 1055.92V1053.91L1888.24 1054.5V1055.71ZM1884.62 1041.88C1884.62 1041.15 1884.48 1040.48 1884.2 1039.85C1883.93 1039.2 1883.55 1038.64 1883.08 1038.17C1882.61 1037.69 1882.05 1037.32 1881.4 1037.04C1880.77 1036.77 1880.09 1036.63 1879.37 1036.63H1876.95C1876.22 1036.63 1875.53 1036.77 1874.88 1037.04C1874.26 1037.32 1873.7 1037.69 1873.23 1038.17C1872.76 1038.64 1872.39 1039.2 1872.11 1039.85C1871.84 1040.48 1871.7 1041.15 1871.7 1041.88V1046.36H1884.62V1041.88ZM1904.38 1037.25C1903.65 1037.25 1902.96 1037.39 1902.31 1037.66C1901.68 1037.94 1901.13 1038.31 1900.66 1038.78C1900.19 1039.26 1899.81 1039.82 1899.54 1040.47C1899.26 1041.1 1899.13 1041.77 1899.13 1042.5V1064H1895.5V1033.8H1896.71L1898.68 1036.87C1899.51 1035.75 1900.54 1034.86 1901.78 1034.21C1903.04 1033.55 1904.41 1033.21 1905.88 1033.21H1908V1037.25H1904.38ZM1937.14 1025.16C1936.53 1025.16 1935.96 1025.28 1935.43 1025.51C1934.92 1025.73 1934.47 1026.03 1934.07 1026.43C1933.68 1026.82 1933.37 1027.28 1933.13 1027.81C1932.91 1028.35 1932.81 1028.92 1932.81 1029.52V1033.8H1939.85V1037.25H1932.81V1064H1929.18V1037.25H1923.72V1033.8H1929.18V1029.7C1929.18 1028.6 1929.38 1027.57 1929.8 1026.61C1930.21 1025.62 1930.78 1024.77 1931.51 1024.04C1932.24 1023.31 1933.08 1022.74 1934.04 1022.33C1935.01 1021.92 1936.04 1021.71 1937.14 1021.71H1940.47V1025.16H1937.14ZM1964.27 1055.71C1964.27 1056.93 1964.04 1058.08 1963.56 1059.16C1963.11 1060.24 1962.48 1061.19 1961.68 1061.99C1960.87 1062.8 1959.93 1063.44 1958.85 1063.91C1957.76 1064.36 1956.61 1064.59 1955.4 1064.59H1952.98C1951.76 1064.59 1950.61 1064.36 1949.53 1063.91C1948.45 1063.44 1947.5 1062.8 1946.7 1061.99C1945.89 1061.19 1945.25 1060.24 1944.78 1059.16C1944.33 1058.08 1944.1 1056.93 1944.1 1055.71V1042.09C1944.1 1040.87 1944.33 1039.72 1944.78 1038.64C1945.25 1037.56 1945.89 1036.61 1946.7 1035.81C1947.5 1035 1948.45 1034.37 1949.53 1033.92C1950.61 1033.45 1951.76 1033.21 1952.98 1033.21H1955.4C1956.61 1033.21 1957.76 1033.45 1958.85 1033.92C1959.93 1034.37 1960.87 1035 1961.68 1035.81C1962.48 1036.61 1963.11 1037.56 1963.56 1038.64C1964.04 1039.72 1964.27 1040.87 1964.27 1042.09V1055.71ZM1960.64 1041.88C1960.64 1041.15 1960.51 1040.48 1960.23 1039.85C1959.96 1039.2 1959.58 1038.64 1959.11 1038.17C1958.64 1037.69 1958.08 1037.32 1957.43 1037.04C1956.8 1036.77 1956.12 1036.63 1955.4 1036.63H1952.98C1952.25 1036.63 1951.56 1036.77 1950.91 1037.04C1950.28 1037.32 1949.73 1037.69 1949.26 1038.17C1948.79 1038.64 1948.42 1039.2 1948.14 1039.85C1947.87 1040.48 1947.73 1041.15 1947.73 1041.88V1055.92C1947.73 1056.65 1947.87 1057.33 1948.14 1057.98C1948.42 1058.61 1948.79 1059.16 1949.26 1059.64C1949.73 1060.11 1950.28 1060.48 1950.91 1060.76C1951.56 1061.03 1952.25 1061.17 1952.98 1061.17H1955.4C1956.12 1061.17 1956.8 1061.03 1957.43 1060.76C1958.08 1060.48 1958.64 1060.11 1959.11 1059.64C1959.58 1059.16 1959.96 1058.61 1960.23 1057.98C1960.51 1057.33 1960.64 1056.65 1960.64 1055.92V1041.88ZM1980.4 1037.25C1979.68 1037.25 1978.99 1037.39 1978.34 1037.66C1977.71 1037.94 1977.16 1038.31 1976.69 1038.78C1976.22 1039.26 1975.84 1039.82 1975.57 1040.47C1975.29 1041.1 1975.15 1041.77 1975.15 1042.5V1064H1971.53V1033.8H1972.74L1974.71 1036.87C1975.54 1035.75 1976.57 1034.86 1977.81 1034.21C1979.07 1033.55 1980.43 1033.21 1981.91 1033.21H1984.03V1037.25H1980.4ZM2023.87 1064L2012.4 1045.95H2007.18V1064H2003.38V1021.71H2016.8C2018.23 1021.71 2019.58 1021.98 2020.84 1022.54C2022.09 1023.07 2023.2 1023.8 2024.14 1024.75C2025.08 1025.69 2025.82 1026.8 2026.35 1028.08C2026.9 1029.34 2027.18 1030.68 2027.18 1032.12V1035.54C2027.18 1036.98 2026.9 1038.33 2026.35 1039.61C2025.82 1040.87 2025.08 1041.97 2024.14 1042.91C2023.2 1043.86 2022.09 1044.6 2020.84 1045.16C2019.58 1045.69 2018.23 1045.95 2016.8 1045.95L2028.27 1064H2023.87ZM2023.37 1032.12C2023.37 1031.18 2023.2 1030.3 2022.84 1029.5C2022.49 1028.67 2022.01 1027.95 2021.4 1027.34C2020.79 1026.71 2020.07 1026.22 2019.24 1025.87C2018.44 1025.51 2017.56 1025.34 2016.62 1025.34H2007.18V1042.32H2016.62C2017.56 1042.32 2018.44 1042.15 2019.24 1041.79C2020.07 1041.44 2020.79 1040.96 2021.4 1040.35C2022.01 1039.72 2022.49 1039 2022.84 1038.2C2023.2 1037.37 2023.37 1036.48 2023.37 1035.54V1032.12ZM2054.52 1055.71C2054.52 1056.93 2054.28 1058.08 2053.81 1059.16C2053.36 1060.24 2052.73 1061.19 2051.92 1061.99C2051.11 1062.8 2050.17 1063.44 2049.09 1063.91C2048.01 1064.36 2046.86 1064.59 2045.64 1064.59H2043.22C2042 1064.59 2040.85 1064.36 2039.77 1063.91C2038.69 1063.44 2037.74 1062.8 2036.94 1061.99C2036.13 1061.19 2035.49 1060.24 2035.02 1059.16C2034.57 1058.08 2034.34 1056.93 2034.34 1055.71V1042.09C2034.34 1040.87 2034.57 1039.72 2035.02 1038.64C2035.49 1037.56 2036.13 1036.61 2036.94 1035.81C2037.74 1035 2038.69 1034.37 2039.77 1033.92C2040.85 1033.45 2042 1033.21 2043.22 1033.21H2045.64C2046.86 1033.21 2048.01 1033.45 2049.09 1033.92C2050.17 1034.37 2051.11 1035 2051.92 1035.81C2052.73 1036.61 2053.36 1037.56 2053.81 1038.64C2054.28 1039.72 2054.52 1040.87 2054.52 1042.09V1049.2H2037.97V1055.92C2037.97 1056.65 2038.11 1057.33 2038.38 1057.98C2038.66 1058.61 2039.03 1059.16 2039.5 1059.64C2039.98 1060.11 2040.53 1060.48 2041.16 1060.76C2041.8 1061.03 2042.49 1061.17 2043.22 1061.17H2045.64C2046.37 1061.17 2047.04 1061.03 2047.67 1060.76C2048.32 1060.48 2048.88 1060.11 2049.35 1059.64C2049.83 1059.16 2050.2 1058.61 2050.48 1057.98C2050.75 1057.33 2050.89 1056.65 2050.89 1055.92V1053.91L2054.52 1054.5V1055.71ZM2050.89 1041.88C2050.89 1041.15 2050.75 1040.48 2050.48 1039.85C2050.2 1039.2 2049.83 1038.64 2049.35 1038.17C2048.88 1037.69 2048.32 1037.32 2047.67 1037.04C2047.04 1036.77 2046.37 1036.63 2045.64 1036.63H2043.22C2042.49 1036.63 2041.8 1036.77 2041.16 1037.04C2040.53 1037.32 2039.98 1037.69 2039.5 1038.17C2039.03 1038.64 2038.66 1039.2 2038.38 1039.85C2038.11 1040.48 2037.97 1041.15 2037.97 1041.88V1046.36H2050.89V1041.88ZM2062.98 1064V1021.71H2066.61V1064H2062.98ZM2076.01 1026.55V1021.71H2080.23V1026.55H2076.01ZM2076.31 1064V1033.8H2079.94V1064H2076.31ZM2108.9 1067.8C2108.9 1069.02 2108.66 1070.14 2108.19 1071.17C2107.74 1072.19 2107.11 1073.06 2106.3 1073.79C2105.5 1074.52 2104.55 1075.08 2103.47 1075.47C2102.39 1075.88 2101.24 1076.09 2100.02 1076.09H2098.52C2097.3 1076.09 2096.15 1075.88 2095.07 1075.47C2093.98 1075.08 2093.04 1074.52 2092.23 1073.79C2091.43 1073.06 2090.79 1072.19 2090.32 1071.17C2089.87 1070.14 2089.64 1069.02 2089.64 1067.8V1067.69C2089.64 1066.51 2089.86 1065.43 2090.29 1064.44C2090.72 1063.46 2091.31 1062.6 2092.06 1061.88C2091.11 1061.31 2090.36 1060.54 2089.79 1059.58C2089.24 1058.59 2088.96 1057.51 2088.96 1056.33C2088.96 1055.27 2089.19 1054.29 2089.64 1053.38C2090.09 1052.46 2090.71 1051.71 2091.5 1051.14C2090.55 1050.32 2089.81 1049.32 2089.26 1048.16C2088.71 1047 2088.43 1045.74 2088.43 1044.36V1042.09C2088.43 1040.87 2088.66 1039.72 2089.11 1038.64C2089.58 1037.56 2090.22 1036.61 2091.03 1035.81C2091.83 1035 2092.78 1034.37 2093.86 1033.92C2094.94 1033.45 2096.09 1033.21 2097.31 1033.21H2098.81C2100.29 1033.21 2101.64 1033.55 2102.88 1034.21C2104.14 1034.86 2105.18 1035.75 2106.01 1036.87L2107.98 1033.8H2109.19V1044.36C2109.19 1045.58 2108.96 1046.73 2108.48 1047.81C2108.03 1048.89 2107.4 1049.83 2106.6 1050.64C2105.79 1051.45 2104.85 1052.09 2103.77 1052.56C2102.68 1053.01 2101.53 1053.24 2100.32 1053.24H2095.07C2094.65 1053.24 2094.26 1053.32 2093.89 1053.5C2093.51 1053.66 2093.18 1053.87 2092.88 1054.15C2092.61 1054.43 2092.39 1054.76 2092.23 1055.15C2092.08 1055.53 2092 1055.92 2092 1056.33C2092 1056.75 2092.08 1057.14 2092.23 1057.51C2092.39 1057.89 2092.61 1058.22 2092.88 1058.51C2093.18 1058.79 2093.51 1059.01 2093.89 1059.16C2094.26 1059.32 2094.65 1059.4 2095.07 1059.4H2100.02C2101.24 1059.4 2102.39 1059.61 2103.47 1060.02C2104.55 1060.41 2105.5 1060.97 2106.3 1061.7C2107.11 1062.43 2107.74 1063.3 2108.19 1064.32C2108.66 1065.35 2108.9 1066.47 2108.9 1067.69V1067.8ZM2105.59 1041.88C2105.59 1041.15 2105.46 1040.48 2105.18 1039.85C2104.91 1039.2 2104.52 1038.64 2104.03 1038.17C2103.56 1037.69 2103 1037.32 2102.35 1037.04C2101.72 1036.77 2101.04 1036.63 2100.32 1036.63H2097.31C2096.58 1036.63 2095.89 1036.77 2095.24 1037.04C2094.61 1037.32 2094.06 1037.69 2093.59 1038.17C2093.12 1038.64 2092.75 1039.2 2092.47 1039.85C2092.2 1040.48 2092.06 1041.15 2092.06 1041.88V1044.57C2092.06 1045.29 2092.2 1045.98 2092.47 1046.63C2092.75 1047.26 2093.12 1047.81 2093.59 1048.28C2094.06 1048.75 2094.61 1049.13 2095.24 1049.4C2095.89 1049.68 2096.58 1049.81 2097.31 1049.81H2100.32C2101.04 1049.81 2101.72 1049.68 2102.35 1049.4C2103 1049.13 2103.56 1048.75 2104.03 1048.28C2104.52 1047.81 2104.91 1047.26 2105.18 1046.63C2105.46 1045.98 2105.59 1045.29 2105.59 1044.57V1041.88ZM2105.45 1067.51C2105.45 1066.78 2105.31 1066.12 2105.03 1065.53C2104.76 1064.96 2104.39 1064.48 2103.91 1064.09C2103.44 1063.7 2102.88 1063.39 2102.23 1063.17C2101.6 1062.96 2100.92 1062.85 2100.2 1062.85H2098.34C2097.61 1062.85 2096.92 1062.96 2096.28 1063.17C2095.65 1063.39 2095.1 1063.7 2094.62 1064.09C2094.15 1064.48 2093.78 1064.96 2093.5 1065.53C2093.23 1066.12 2093.09 1066.78 2093.09 1067.51V1067.98C2093.09 1068.71 2093.23 1069.36 2093.5 1069.93C2093.78 1070.5 2094.15 1070.98 2094.62 1071.37C2095.1 1071.79 2095.65 1072.1 2096.28 1072.32C2096.92 1072.53 2097.61 1072.64 2098.34 1072.64H2100.2C2100.92 1072.64 2101.6 1072.53 2102.23 1072.32C2102.88 1072.1 2103.44 1071.79 2103.91 1071.37C2104.39 1070.98 2104.76 1070.5 2105.03 1069.93C2105.31 1069.36 2105.45 1068.71 2105.45 1067.98V1067.51ZM2116.77 1026.55V1021.71H2120.99V1026.55H2116.77ZM2117.07 1064V1033.8H2120.69V1064H2117.07ZM2149.36 1055.71C2149.36 1056.93 2149.12 1058.08 2148.65 1059.16C2148.2 1060.24 2147.57 1061.19 2146.76 1061.99C2145.96 1062.8 2145.01 1063.44 2143.93 1063.91C2142.85 1064.36 2141.7 1064.59 2140.48 1064.59H2138.06C2136.85 1064.59 2135.7 1064.36 2134.61 1063.91C2133.53 1063.44 2132.59 1062.8 2131.78 1061.99C2130.98 1061.19 2130.34 1060.24 2129.87 1059.16C2129.41 1058.08 2129.19 1056.93 2129.19 1055.71V1042.09C2129.19 1040.87 2129.41 1039.72 2129.87 1038.64C2130.34 1037.56 2130.98 1036.61 2131.78 1035.81C2132.59 1035 2133.53 1034.37 2134.61 1033.92C2135.7 1033.45 2136.85 1033.21 2138.06 1033.21H2140.48C2141.7 1033.21 2142.85 1033.45 2143.93 1033.92C2145.01 1034.37 2145.96 1035 2146.76 1035.81C2147.57 1036.61 2148.2 1037.56 2148.65 1038.64C2149.12 1039.72 2149.36 1040.87 2149.36 1042.09V1055.71ZM2145.73 1041.88C2145.73 1041.15 2145.59 1040.48 2145.32 1039.85C2145.04 1039.2 2144.67 1038.64 2144.2 1038.17C2143.73 1037.69 2143.17 1037.32 2142.52 1037.04C2141.89 1036.77 2141.21 1036.63 2140.48 1036.63H2138.06C2137.34 1036.63 2136.65 1036.77 2136 1037.04C2135.37 1037.32 2134.82 1037.69 2134.35 1038.17C2133.88 1038.64 2133.5 1039.2 2133.23 1039.85C2132.95 1040.48 2132.81 1041.15 2132.81 1041.88V1055.92C2132.81 1056.65 2132.95 1057.33 2133.23 1057.98C2133.5 1058.61 2133.88 1059.16 2134.35 1059.64C2134.82 1060.11 2135.37 1060.48 2136 1060.76C2136.65 1061.03 2137.34 1061.17 2138.06 1061.17H2140.48C2141.21 1061.17 2141.89 1061.03 2142.52 1060.76C2143.17 1060.48 2143.73 1060.11 2144.2 1059.64C2144.67 1059.16 2145.04 1058.61 2145.32 1057.98C2145.59 1057.33 2145.73 1056.65 2145.73 1055.92V1041.88ZM2175.58 1064L2173.57 1060.93C2172.75 1062.05 2171.71 1062.95 2170.48 1063.62C2169.24 1064.27 2167.88 1064.59 2166.41 1064.59H2165.49C2164.27 1064.59 2163.12 1064.36 2162.04 1063.91C2160.96 1063.44 2160.02 1062.8 2159.21 1061.99C2158.4 1061.19 2157.76 1060.24 2157.29 1059.16C2156.84 1058.08 2156.61 1056.93 2156.61 1055.71V1033.8H2160.24V1055.92C2160.24 1056.65 2160.38 1057.33 2160.65 1057.98C2160.93 1058.61 2161.3 1059.16 2161.78 1059.64C2162.25 1060.11 2162.8 1060.48 2163.43 1060.76C2164.08 1061.03 2164.76 1061.17 2165.49 1061.17H2167.91C2168.64 1061.17 2169.32 1061.03 2169.94 1060.76C2170.59 1060.48 2171.15 1060.11 2171.63 1059.64C2172.1 1059.16 2172.47 1058.61 2172.75 1057.98C2173.02 1057.33 2173.16 1056.65 2173.16 1055.92V1033.8H2176.79V1064H2175.58ZM2204.8 1056.33C2204.8 1057.55 2204.56 1058.67 2204.07 1059.69C2203.57 1060.7 2202.91 1061.56 2202.06 1062.29C2201.21 1063.02 2200.23 1063.59 2199.11 1064C2198.01 1064.39 2196.85 1064.59 2195.63 1064.59H2193.21C2191.99 1064.59 2190.82 1064.36 2189.7 1063.91C2188.6 1063.44 2187.63 1062.8 2186.78 1061.99C2185.96 1061.19 2185.29 1060.24 2184.78 1059.16C2184.29 1058.08 2184.04 1056.93 2184.04 1055.71V1054.5L2187.67 1053.91V1055.92C2187.67 1056.65 2187.82 1057.33 2188.11 1057.98C2188.43 1058.61 2188.84 1059.16 2189.35 1059.64C2189.86 1060.11 2190.45 1060.48 2191.12 1060.76C2191.79 1061.03 2192.49 1061.17 2193.21 1061.17H2195.63C2196.36 1061.17 2197.06 1061.06 2197.73 1060.84C2198.39 1060.63 2198.98 1060.32 2199.49 1059.93C2200.03 1059.52 2200.44 1059.03 2200.73 1058.46C2201.05 1057.89 2201.21 1057.24 2201.21 1056.51C2201.21 1055.43 2200.97 1054.54 2200.5 1053.86C2200.03 1053.17 2199.4 1052.6 2198.61 1052.14C2197.84 1051.67 2196.96 1051.29 2195.96 1050.99C2194.97 1050.68 2193.96 1050.38 2192.92 1050.08C2191.88 1049.77 2190.85 1049.41 2189.85 1049.02C2188.87 1048.63 2187.98 1048.11 2187.2 1047.48C2186.43 1046.84 2185.81 1046.03 2185.34 1045.07C2184.87 1044.1 2184.63 1042.9 2184.63 1041.47C2184.63 1040.25 2184.87 1039.14 2185.34 1038.14C2185.81 1037.11 2186.45 1036.24 2187.26 1035.51C2188.06 1034.78 2189 1034.22 2190.06 1033.83C2191.14 1033.42 2192.29 1033.21 2193.51 1033.21H2195.63C2196.85 1033.21 2198 1033.45 2199.08 1033.92C2200.16 1034.37 2201.11 1035 2201.91 1035.81C2202.72 1036.61 2203.35 1037.56 2203.8 1038.64C2204.27 1039.72 2204.51 1040.87 2204.51 1042.09V1042.21L2200.88 1042.8V1041.88C2200.88 1041.15 2200.74 1040.48 2200.47 1039.85C2200.19 1039.2 2199.82 1038.64 2199.35 1038.17C2198.88 1037.69 2198.31 1037.32 2197.67 1037.04C2197.04 1036.77 2196.36 1036.63 2195.63 1036.63H2193.51C2192.78 1036.63 2192.09 1036.74 2191.44 1036.96C2190.81 1037.17 2190.26 1037.49 2189.79 1037.9C2189.32 1038.29 2188.95 1038.78 2188.67 1039.35C2188.4 1039.92 2188.26 1040.56 2188.26 1041.29C2188.26 1042.33 2188.49 1043.19 2188.97 1043.86C2189.44 1044.51 2190.06 1045.06 2190.82 1045.51C2191.61 1045.96 2192.5 1046.34 2193.48 1046.66C2194.48 1046.95 2195.49 1047.27 2196.52 1047.6C2197.56 1047.92 2198.57 1048.28 2199.55 1048.69C2200.56 1049.11 2201.44 1049.64 2202.21 1050.29C2202.99 1050.94 2203.62 1051.75 2204.1 1052.73C2204.57 1053.7 2204.8 1054.9 2204.8 1056.33ZM2226.27 1064V1021.71H2230.08V1060.37H2246.27V1064H2226.27ZM2252.02 1026.55V1021.71H2256.24V1026.55H2252.02ZM2252.31 1064V1033.8H2255.94V1064H2252.31ZM2284.61 1055.71C2284.61 1056.93 2284.37 1058.08 2283.9 1059.16C2283.45 1060.24 2282.82 1061.19 2282.01 1061.99C2281.2 1062.8 2280.26 1063.44 2279.18 1063.91C2278.1 1064.36 2276.95 1064.59 2275.73 1064.59H2273.31C2272.09 1064.59 2270.94 1064.36 2269.86 1063.91C2268.78 1063.44 2267.84 1062.8 2267.03 1061.99C2266.22 1061.19 2265.58 1060.24 2265.11 1059.16C2264.66 1058.08 2264.43 1056.93 2264.43 1055.71V1021.71H2268.06V1036.34C2268.89 1035.35 2269.88 1034.59 2271.04 1034.04C2272.2 1033.49 2273.46 1033.21 2274.82 1033.21H2275.73C2276.95 1033.21 2278.1 1033.45 2279.18 1033.92C2280.26 1034.37 2281.2 1035 2282.01 1035.81C2282.82 1036.61 2283.45 1037.56 2283.9 1038.64C2284.37 1039.72 2284.61 1040.87 2284.61 1042.09V1055.71ZM2280.98 1041.88C2280.98 1041.15 2280.84 1040.48 2280.57 1039.85C2280.29 1039.2 2279.92 1038.64 2279.45 1038.17C2278.97 1037.69 2278.41 1037.32 2277.76 1037.04C2277.14 1036.77 2276.46 1036.63 2275.73 1036.63H2273.31C2272.58 1036.63 2271.9 1036.77 2271.25 1037.04C2270.62 1037.32 2270.07 1037.69 2269.6 1038.17C2269.12 1038.64 2268.75 1039.2 2268.47 1039.85C2268.2 1040.48 2268.06 1041.15 2268.06 1041.88V1055.92C2268.06 1056.65 2268.2 1057.33 2268.47 1057.98C2268.75 1058.61 2269.12 1059.16 2269.6 1059.64C2270.07 1060.11 2270.62 1060.48 2271.25 1060.76C2271.9 1061.03 2272.58 1061.17 2273.31 1061.17H2275.73C2276.46 1061.17 2277.14 1061.03 2277.76 1060.76C2278.41 1060.48 2278.97 1060.11 2279.45 1059.64C2279.92 1059.16 2280.29 1058.61 2280.57 1057.98C2280.84 1057.33 2280.98 1056.65 2280.98 1055.92V1041.88ZM2312.03 1055.71C2312.03 1056.93 2311.8 1058.08 2311.33 1059.16C2310.87 1060.24 2310.24 1061.19 2309.44 1061.99C2308.63 1062.8 2307.69 1063.44 2306.61 1063.91C2305.53 1064.36 2304.38 1064.59 2303.16 1064.59H2300.74C2299.52 1064.59 2298.37 1064.36 2297.29 1063.91C2296.21 1063.44 2295.26 1062.8 2294.46 1061.99C2293.65 1061.19 2293.01 1060.24 2292.54 1059.16C2292.09 1058.08 2291.86 1056.93 2291.86 1055.71V1042.09C2291.86 1040.87 2292.09 1039.72 2292.54 1038.64C2293.01 1037.56 2293.65 1036.61 2294.46 1035.81C2295.26 1035 2296.21 1034.37 2297.29 1033.92C2298.37 1033.45 2299.52 1033.21 2300.74 1033.21H2303.16C2304.38 1033.21 2305.53 1033.45 2306.61 1033.92C2307.69 1034.37 2308.63 1035 2309.44 1035.81C2310.24 1036.61 2310.87 1037.56 2311.33 1038.64C2311.8 1039.72 2312.03 1040.87 2312.03 1042.09V1049.2H2295.49V1055.92C2295.49 1056.65 2295.63 1057.33 2295.9 1057.98C2296.18 1058.61 2296.55 1059.16 2297.02 1059.64C2297.49 1060.11 2298.04 1060.48 2298.67 1060.76C2299.32 1061.03 2300.01 1061.17 2300.74 1061.17H2303.16C2303.88 1061.17 2304.56 1061.03 2305.19 1060.76C2305.84 1060.48 2306.4 1060.11 2306.87 1059.64C2307.34 1059.16 2307.72 1058.61 2307.99 1057.98C2308.27 1057.33 2308.41 1056.65 2308.41 1055.92V1053.91L2312.03 1054.5V1055.71ZM2308.41 1041.88C2308.41 1041.15 2308.27 1040.48 2307.99 1039.85C2307.72 1039.2 2307.34 1038.64 2306.87 1038.17C2306.4 1037.69 2305.84 1037.32 2305.19 1037.04C2304.56 1036.77 2303.88 1036.63 2303.16 1036.63H2300.74C2300.01 1036.63 2299.32 1036.77 2298.67 1037.04C2298.04 1037.32 2297.49 1037.69 2297.02 1038.17C2296.55 1038.64 2296.18 1039.2 2295.9 1039.85C2295.63 1040.48 2295.49 1041.15 2295.49 1041.88V1046.36H2308.41V1041.88ZM2328.16 1037.25C2327.44 1037.25 2326.75 1037.39 2326.1 1037.66C2325.47 1037.94 2324.92 1038.31 2324.45 1038.78C2323.98 1039.26 2323.6 1039.82 2323.33 1040.47C2323.05 1041.1 2322.92 1041.77 2322.92 1042.5V1064H2319.29V1033.8H2320.5L2322.47 1036.87C2323.3 1035.75 2324.33 1034.86 2325.57 1034.21C2326.83 1033.55 2328.19 1033.21 2329.67 1033.21H2331.79V1037.25H2328.16ZM2347.63 1064C2346.53 1064 2345.49 1063.79 2344.5 1063.38C2343.54 1062.97 2342.69 1062.4 2341.97 1061.67C2341.26 1060.94 2340.69 1060.1 2340.26 1059.13C2339.84 1058.17 2339.64 1057.14 2339.64 1056.04V1037.25H2334.21V1033.8H2339.64V1026.55L2343.26 1025.96V1033.8H2350.93V1037.25H2343.26V1056.21C2343.26 1056.82 2343.37 1057.39 2343.59 1057.92C2343.82 1058.44 2344.14 1058.89 2344.53 1059.28C2344.93 1059.67 2345.39 1059.99 2345.92 1060.23C2346.45 1060.44 2347.02 1060.55 2347.63 1060.55H2350.93V1064H2347.63ZM2362.52 1076.09H2359.01L2364.38 1061.4L2354.59 1033.8H2358.22L2366.09 1056.69L2366.21 1058.25L2366.33 1056.69L2374.17 1033.8H2377.8L2362.52 1076.09Z" fill="white"/>
</svg>
