<svg xmlns="http://www.w3.org/2000/svg" width="1518" height="1518" viewBox="0 0 1518 1518" version="1.1"><path d="M 0 759.001 L 0 1518.001 759.250 1517.751 L 1518.500 1517.500 1518.751 758.750 L 1519.001 0 759.501 0 L 0 0 0 759.001 M 0.497 759.500 C 0.497 1176.950, 0.611 1347.575, 0.750 1138.668 C 0.889 929.760, 0.889 588.210, 0.750 379.668 C 0.611 171.125, 0.497 342.050, 0.497 759.500 M 3 758.500 L 3 1514 758.500 1514 L 1514 1514 1514 758.500 L 1514 3 758.500 3 L 3 3 3 758.500 M 381 758.500 L 381 1136 528.151 1136 L 675.302 1136 665.889 1126.250 C 634.899 1094.152, 611.346 1058.278, 596.547 1020.636 C 579.940 978.396, 575.734 932.730, 584.586 890.790 C 595.188 840.556, 625.882 791.864, 673 750.531 C 706.129 721.470, 790.996 660.906, 943 557.850 C 1009.743 512.600, 1040.488 492, 1041.279 492 C 1042.387 492, 1042.144 498.213, 1040.458 513 C 1026.810 632.711, 979.778 720.470, 891 791.883 C 866.464 811.620, 844.549 826.725, 798 855.983 C 742.260 891.018, 721.447 905.914, 701.881 924.779 C 681.659 944.275, 670.131 960.493, 661.885 981.045 C 655.211 997.682, 652.838 1011.051, 652.755 1032.500 C 652.674 1053.377, 654.176 1064.793, 659.990 1087.500 C 663.380 1100.740, 669.481 1119.363, 674.431 1131.586 L 676.086 1135.673 737.708 1136.336 C 771.600 1136.701, 875.081 1137, 967.665 1137 L 1136 1137 1136 759 L 1136 381 1024.114 381 L 912.227 381 911.532 385.750 C 908.949 403.402, 901.601 433.822, 895.168 453.500 C 876.781 509.744, 848.492 556.641, 807.517 598.810 C 773.660 633.654, 741.880 657.621, 668 704.027 C 633.089 725.955, 619.713 734.879, 603.500 747.057 C 558.892 780.563, 536.679 812.065, 529.398 852.148 C 527.040 865.130, 527.036 890.938, 529.390 905.500 C 532.788 926.519, 538.375 947.086, 546.480 968.413 C 548.970 974.965, 550.849 980.484, 550.656 980.678 C 549.532 981.801, 523.094 952.081, 511.647 936.827 C 474.658 887.531, 455 833.124, 455 780.041 C 455 710.185, 488.208 646.168, 553 591.118 C 586.754 562.439, 670.019 503.098, 805 411.523 C 828.375 395.665, 847.928 382.310, 848.450 381.845 C 848.973 381.380, 744.010 381, 615.200 381 L 381 381 381 758.500 M 1002.634 705.294 C 992.008 724.121, 973.293 751.873, 960.687 767.500 C 922.086 815.349, 880.834 849.359, 814.500 888.024 C 752.977 923.884, 746.729 928.114, 728.962 945.928 C 707.296 967.652, 694.505 990.081, 688.339 1017.162 C 685.944 1027.679, 685.982 1051.123, 688.409 1060.500 C 692.281 1075.463, 701.767 1091.578, 711.300 1099.390 C 726.458 1111.810, 743.432 1116.743, 767.434 1115.703 C 788.931 1114.772, 808.265 1108.986, 836.500 1095.032 C 867.801 1079.564, 888.456 1064.650, 914.033 1039.049 C 942.531 1010.526, 960.339 984.741, 978.641 945.500 C 1008.626 881.212, 1021.348 796.648, 1013.469 714 C 1011.042 688.546, 1011.762 689.124, 1002.634 705.294" stroke="none" fill="#f2f4f5" fill-rule="evenodd"/><path d="M 880.355 360.339 C 793.356 419.568, 774.053 432.747, 739 456.846 C 646.935 520.141, 584.271 565.310, 555.500 589.117 C 541.577 600.638, 517.077 625.530, 507.354 638.034 C 488.900 661.767, 473.972 688.750, 466.068 712.663 C 449.846 761.734, 451.862 814.151, 471.953 865.681 C 486.705 903.518, 512.139 942.044, 541.481 971 L 550.094 979.500 543.115 966 C 522.363 925.856, 513 888.709, 513 846.524 C 513 758.432, 556.381 667.832, 647.650 565.310 C 662.775 548.321, 715.619 496.104, 736.043 477.967 C 783.056 436.218, 841.584 389.758, 895.250 351.585 C 902.813 346.206, 909 341.624, 909 341.402 C 909 340.807, 910.537 339.791, 880.355 360.339 M 1136.495 758.500 C 1136.495 966.400, 1136.610 1051.301, 1136.750 947.169 C 1136.890 843.036, 1136.890 672.936, 1136.750 569.169 C 1136.610 465.401, 1136.495 550.600, 1136.495 758.500 M 1018 507.348 C 1010.575 512.447, 984.925 529.838, 961 545.995 C 817.054 643.203, 715.594 714.966, 679.500 745.102 C 643.609 775.069, 614.570 812.267, 598.420 848.963 C 563.431 928.466, 579.717 1020.570, 642.739 1099.602 C 651.773 1110.931, 674.020 1135.314, 674.701 1134.632 C 674.951 1134.382, 673.101 1130.614, 670.589 1126.259 C 654.648 1098.623, 643.392 1064.090, 639.960 1032.291 C 638.428 1018.098, 639.226 983.084, 641.387 969.688 C 649.683 918.258, 671.214 866.894, 707.487 812 C 727.119 782.289, 755.489 746.326, 784.005 715 C 802.820 694.331, 847.039 650.673, 871 629.108 C 913.991 590.417, 958.920 553.582, 1009.500 515.560 C 1021.050 506.878, 1030.928 499.375, 1031.450 498.887 C 1033.822 496.672, 1030.544 498.734, 1018 507.348 M 1002 706.831 C 972.131 760.068, 930.990 807.142, 881.925 844.222 C 858.776 861.717, 839.966 873.764, 798 897.971 C 744.243 928.979, 726.766 943.250, 708.318 971.200 C 693.766 993.249, 686.844 1015.038, 686.782 1039 C 686.742 1054.402, 689.198 1065.716, 695.246 1078 C 700.780 1089.238, 712.998 1101.809, 723.824 1107.402 C 727.851 1109.484, 731.352 1110.982, 731.601 1110.732 C 731.851 1110.482, 731.565 1108.987, 730.965 1107.409 C 728.720 1101.503, 725.942 1087.465, 725.139 1077.967 C 721.773 1038.161, 737.383 1003.191, 776.384 963.172 C 788.180 951.067, 808.687 932.607, 840.500 905.455 C 876.988 874.313, 893.830 858.951, 914.064 838.358 C 951.963 799.787, 976.743 765.721, 996.028 725.680 C 1002.644 711.945, 1009.382 696.007, 1008.790 695.496 C 1008.630 695.359, 1005.575 700.459, 1002 706.831 M 474.671 1136.750 C 526.464 1136.893, 611.514 1136.893, 663.671 1136.750 C 715.827 1136.607, 673.450 1136.490, 569.500 1136.490 C 465.550 1136.490, 422.877 1136.607, 474.671 1136.750" stroke="none" fill="#b0833f" fill-rule="evenodd"/><path d="M 894.500 352.131 C 835.361 394.612, 783.791 435.566, 736.043 477.967 C 715.619 496.104, 662.775 548.321, 647.650 565.310 C 556.381 667.832, 513 758.432, 513 846.524 C 513 888.104, 522.305 925.534, 542.309 964.417 C 545.714 971.036, 548.666 976.912, 548.868 977.475 C 549.070 978.039, 546.145 975.576, 542.368 972.001 L 535.500 965.502 542.946 973.222 C 547.041 977.468, 550.641 980.668, 550.946 980.334 C 551.251 980, 550.935 979.524, 550.244 979.278 C 549.553 979.031, 549.190 978.502, 549.437 978.102 C 549.684 977.702, 548.102 972.678, 545.920 966.937 C 538.378 947.089, 532.705 926.005, 529.390 905.500 C 527.036 890.938, 527.040 865.130, 529.398 852.148 C 536.679 812.065, 558.892 780.563, 603.500 747.057 C 619.713 734.879, 633.089 725.955, 668 704.027 C 741.880 657.621, 773.660 633.654, 807.517 598.810 C 860.096 544.699, 892.845 480.978, 908.410 402.500 C 913.854 375.048, 918.415 336.957, 916.250 337.023 C 915.837 337.035, 906.050 343.834, 894.500 352.131 M 1036.834 494.520 C 1034.818 495.841, 1032.002 498.089, 1030.576 499.515 C 1029.150 500.941, 1027.526 501.825, 1026.967 501.480 C 1026.408 501.134, 1026.074 501.447, 1026.225 502.176 C 1026.376 502.904, 1025.730 503.440, 1024.789 503.368 C 1023.848 503.295, 1023.173 503.745, 1023.289 504.368 C 1023.405 504.990, 1022.717 505.438, 1021.761 505.363 C 1020.804 505.288, 1020.229 505.561, 1020.482 505.972 C 1020.736 506.382, 1011.855 513.643, 1000.746 522.109 C 823.340 657.302, 712.583 778.662, 664.446 890.606 C 654.425 913.911, 645.381 944.926, 641.387 969.688 C 639.226 983.084, 638.428 1018.098, 639.960 1032.291 C 643.272 1062.975, 653.325 1094.714, 668.619 1122.771 C 671.131 1127.378, 673.340 1130.994, 673.529 1130.805 C 673.717 1130.616, 671.608 1124.170, 668.842 1116.481 C 662.896 1099.957, 656.834 1076.848, 654.417 1061.500 C 651.720 1044.373, 652.111 1017.861, 655.280 1002.945 C 664.682 958.693, 693.790 923.987, 756 882.855 C 763.975 877.582, 782.875 865.490, 798 855.983 C 844.549 826.725, 866.464 811.620, 891 791.883 C 979.778 720.470, 1026.810 632.711, 1040.458 513 C 1042.156 498.109, 1042.388 491.970, 1041.250 492.059 C 1040.838 492.091, 1038.850 493.199, 1036.834 494.520 M 1009.556 693.500 C 1000.870 718.330, 987.182 745.255, 970.665 770 C 942.364 812.396, 909.674 846.415, 840.500 905.455 C 783.745 953.894, 763.225 974.306, 747.433 998.027 C 726.425 1029.583, 719.989 1062.141, 727.981 1096.419 C 731.013 1109.420, 732.063 1111.406, 736.616 1112.747 C 745.564 1115.383, 754.670 1116.257, 767.434 1115.703 C 788.931 1114.772, 808.265 1108.986, 836.500 1095.032 C 867.801 1079.564, 888.456 1064.650, 914.033 1039.049 C 942.531 1010.526, 960.339 984.741, 978.641 945.500 C 1003.879 891.389, 1017.681 818.863, 1015.654 751 C 1015.035 730.271, 1012.583 700.013, 1011.076 694.500 C 1010.350 691.848, 1010.174 691.732, 1009.556 693.500" stroke="none" fill="#e7bc29" fill-rule="evenodd"/><path d="M 3.249 758.751 L 3.499 1514.500 3.750 759.250 L 4.001 4 381.001 4 L 758 4 758 192.500 L 758 381 803.869 381 L 849.738 381 879.619 360.862 C 913.858 337.787, 917.049 335.716, 917.566 336.233 C 918.016 336.683, 915.339 362.975, 913.975 371.500 C 913.447 374.800, 913.012 378.288, 913.008 379.250 C 913 380.906, 918.997 381, 1025.001 381 L 1137.003 381 1136.751 758.750 L 1136.500 1136.500 947.250 1136.753 L 758 1137.005 758 1325.503 L 758 1514 1136 1514 L 1514 1514 1514 758.501 L 1514 3.001 758.500 3.001 L 3 3.001 3.249 758.751" stroke="none" fill="#1c8eae" fill-rule="evenodd"/><path d="M 4 759 L 4 1514 381 1514 L 758 1514 758 1325.500 L 758 1137 569.500 1137 L 381 1137 381 759 L 381 381 569.500 381 L 758 381 758 192.500 L 758 4 381 4 L 4 4 4 759" stroke="none" fill="#186d97" fill-rule="evenodd"/></svg>