<svg xmlns="http://www.w3.org/2000/svg" width="923" height="1179" viewBox="0 0 923 1179" version="1.1"><path d="M 0 589.501 L 0 1179.002 461.750 1178.751 L 923.500 1178.500 923.751 589.250 L 924.002 0 462.001 0 L 0 0 0 589.501 M 0.497 590 C 0.497 914.225, 0.611 1046.863, 0.750 884.750 C 0.889 722.638, 0.889 457.363, 0.750 295.250 C 0.611 133.138, 0.497 265.775, 0.497 590 M 463.584 74.757 C 461.430 83.965, 458.431 97.125, 456.919 104 C 453.094 121.395, 448.296 141.038, 447.736 141.598 C 447.478 141.856, 442.594 139.425, 436.883 136.196 C 431.173 132.968, 422.225 128.033, 417 125.229 C 411.775 122.426, 403.473 117.867, 398.550 115.099 C 393.628 112.331, 389.424 110.242, 389.210 110.457 C 388.995 110.672, 393.769 119.994, 399.819 131.174 C 413.148 155.802, 419.589 168.744, 418.874 169.459 C 418.580 169.753, 407.351 172.457, 393.920 175.469 C 350.742 185.150, 326.582 190.971, 327.238 191.535 C 327.382 191.658, 345.275 196.168, 367 201.555 C 388.725 206.942, 406.859 211.653, 407.298 212.023 C 408.117 212.714, 399.581 237.481, 389.041 265 C 385.775 273.525, 381.330 285.500, 379.161 291.611 C 376.993 297.723, 374.704 303.685, 374.074 304.861 C 371.683 309.330, 374.885 306.600, 385.935 294.750 C 392.217 288.012, 402.987 276.509, 409.867 269.186 C 416.747 261.864, 423.079 255.067, 423.938 254.082 C 425.419 252.384, 441.190 235.211, 449.239 226.532 L 452.978 222.500 459.705 229.500 C 473.080 243.419, 485.704 256.816, 496 268.022 C 510.436 283.732, 533.269 308, 533.614 308 C 533.770 308, 533.185 306.313, 532.314 304.250 C 531.442 302.188, 527.365 291.275, 523.253 280 C 505.687 231.836, 498.947 212.720, 499.379 212.288 C 499.889 211.778, 511.493 208.851, 532 204.059 C 539.425 202.324, 553.375 198.950, 563 196.561 C 572.625 194.172, 581.791 191.921, 583.368 191.560 C 584.945 191.198, 586.051 190.717, 585.824 190.491 C 585.299 189.966, 554.337 181.402, 533.500 176.019 C 524.700 173.745, 517.208 171.574, 516.850 171.193 C 516.493 170.812, 519.561 164.200, 523.668 156.500 C 542.936 120.377, 547.002 112.506, 546.760 111.791 C 546.543 111.149, 516.959 126.885, 495.837 138.877 C 492.723 140.645, 489.976 141.734, 489.733 141.296 C 489.491 140.858, 484.671 121.938, 479.024 99.250 C 473.376 76.563, 468.473 58.003, 468.128 58.007 C 467.782 58.010, 465.738 65.548, 463.584 74.757 M 242.500 205.598 C 186.580 217.809, 123.177 233.049, 73.834 246.140 L 66.169 248.174 65.742 254.337 C 63.828 281.988, 64.442 534.692, 66.474 555.500 C 66.688 557.700, 67.149 566.475, 67.498 575 C 67.847 583.525, 68.297 591.850, 68.499 593.500 C 68.702 595.150, 69.151 601.450, 69.497 607.500 C 70.986 633.481, 75.199 672.469, 79.600 701 C 90.294 770.314, 111.507 831.207, 143.754 885.151 C 151.579 898.239, 170.399 925.633, 179.372 936.993 C 241.264 1015.351, 328.112 1084.145, 436.172 1140.411 L 452.844 1149.092 467.172 1141.917 C 536.505 1107.197, 606.303 1059.686, 657.947 1012.057 C 727.553 947.864, 774.495 879.882, 802.315 802.982 C 814.233 770.038, 823.612 729.835, 829.485 686.514 C 832.231 666.259, 836.524 624.186, 837.496 608 C 837.843 602.225, 838.290 596.150, 838.489 594.500 C 838.689 592.850, 839.152 583.400, 839.518 573.500 C 839.883 563.600, 840.330 554.150, 840.510 552.500 C 841.566 542.807, 842.500 477.595, 842.500 413.500 C 842.500 337.585, 841.491 249.158, 840.615 248.282 C 840.345 248.011, 827.833 244.661, 812.812 240.837 C 797.790 237.013, 779.517 232.329, 772.205 230.429 C 764.893 228.529, 749.143 224.754, 737.205 222.041 C 725.267 219.329, 704.925 214.653, 692 211.652 C 652.866 202.565, 653.548 202.667, 644.389 204.528 C 630.066 207.439, 531.843 229.823, 531.385 230.281 C 531.119 230.548, 533.589 237.122, 540.842 255.451 L 543.593 262.403 569.047 267.601 C 583.046 270.460, 606.200 275.305, 620.500 278.367 C 634.800 281.430, 651.900 285.088, 658.500 286.498 C 665.100 287.907, 674.325 289.928, 679 290.989 C 691.143 293.744, 728.763 302.398, 747.250 306.688 L 763 310.343 763.160 343.421 C 763.477 408.848, 763.432 468.921, 763.050 491.500 C 762.513 523.234, 760.473 575.424, 759.493 582.500 C 759.264 584.150, 758.816 590.900, 758.497 597.500 C 756.668 635.333, 749.588 692.188, 742.952 722.321 C 719.374 829.387, 657.599 918.155, 552 996.710 C 538.441 1006.796, 497.105 1034.486, 496.565 1033.844 C 496.407 1033.655, 495.541 1024.275, 494.642 1013 C 492.908 991.264, 490.380 959.148, 489.485 947.500 C 489.189 943.650, 488.750 938.475, 488.509 936 C 486.843 918.883, 485.018 876.715, 485.902 875.756 C 486.279 875.347, 493.993 875.473, 503.044 876.037 C 533.144 877.910, 558.755 881.435, 583.027 887.044 C 590.064 888.670, 596.086 890, 596.411 890 C 596.735 890, 597 869.750, 597 845 C 597 813.203, 596.680 800, 595.911 800 C 595.311 800, 589.033 801.337, 581.959 802.972 C 553.693 809.504, 512.256 814.926, 490.107 814.990 L 486.713 815 487.376 806.250 C 487.741 801.438, 488.267 795.475, 488.545 793 C 489.012 788.837, 491.187 763.429, 497.533 688 C 498.898 671.775, 500.206 656.925, 500.441 655 C 500.836 651.756, 501.368 645.830, 502.508 632 C 502.757 628.975, 503.419 621.325, 503.979 615 C 504.538 608.675, 505.453 597.425, 506.011 590 C 506.569 582.575, 507.254 574.250, 507.533 571.500 C 507.812 568.750, 510.052 542.200, 512.512 512.500 C 514.972 482.800, 517.204 456.475, 517.472 454 C 517.741 451.525, 518.428 443.875, 519 437 C 519.572 430.125, 520.230 422.250, 520.461 419.500 C 520.693 416.750, 521.645 406.527, 522.578 396.782 L 524.273 379.064 514.798 362.782 C 509.586 353.827, 502.032 340.650, 498.011 333.500 C 493.990 326.350, 487.910 315.550, 484.499 309.500 C 477.550 297.174, 462.994 270.887, 457.656 261.025 C 455.729 257.464, 453.780 254.433, 453.326 254.288 C 452.872 254.144, 448.675 261.101, 444 269.748 C 429.589 296.403, 427.079 300.937, 416.731 319 C 411.217 328.625, 402.789 343.475, 398.003 352 C 393.217 360.525, 387.805 370.149, 385.978 373.387 L 382.654 379.274 385.916 416.387 C 387.710 436.799, 389.355 455.075, 389.572 457 C 389.789 458.925, 390.671 469.500, 391.533 480.500 C 392.394 491.500, 393.303 502.525, 393.552 505 C 393.802 507.475, 394.677 518.050, 395.498 528.500 C 397.337 551.911, 397.943 559.221, 398.522 565 C 398.770 567.475, 399.664 578.500, 400.507 589.500 C 401.351 600.500, 402.476 614, 403.008 619.500 C 403.541 625, 405.788 650.650, 408.003 676.500 C 410.218 702.350, 412.904 733.175, 413.972 745 C 415.040 756.825, 416.185 769.875, 416.516 774 C 416.848 778.125, 417.284 783.075, 417.486 785 C 417.689 786.925, 418.120 792.325, 418.446 797 C 418.772 801.675, 419.286 807.556, 419.588 810.068 L 420.138 814.636 415.819 814.398 C 413.443 814.267, 405.722 813.889, 398.660 813.559 C 380.566 812.713, 358.129 809.636, 332.267 804.455 C 320.039 802.005, 309.802 800, 309.517 800 C 309.233 800, 309 820.250, 309 845 C 309 869.750, 309.230 890, 309.511 890 C 309.791 890, 313.954 889.126, 318.761 888.057 C 338.110 883.755, 356.397 880.641, 375 878.480 C 378.025 878.129, 381.625 877.687, 383 877.499 C 385.339 877.179, 390.537 876.816, 412.250 875.454 L 421 874.905 420.996 884.703 C 420.994 890.091, 420.548 900.800, 420.006 908.500 C 419.463 916.200, 418.800 925.650, 418.531 929.500 C 418.263 933.350, 417.580 942.575, 417.013 950 C 416.447 957.425, 414.852 978.575, 413.468 997 C 412.084 1015.425, 410.851 1031.261, 410.726 1032.190 C 410.481 1034.025, 411.425 1034.585, 379.334 1013.573 C 353.377 996.578, 321.937 971.818, 298.420 949.850 C 276.830 929.683, 250.227 900.028, 235.310 879.500 C 230.628 873.058, 213.420 846.815, 210.060 840.995 C 187.108 801.230, 171.469 759.007, 162.097 711.500 C 157.699 689.204, 152.342 648.976, 150.513 624.500 C 150.185 620.100, 149.721 614.925, 149.483 613 C 149.246 611.075, 148.789 604.550, 148.468 598.500 C 148.148 592.450, 147.705 585.925, 147.485 584 C 146.643 576.650, 144.809 526.044, 144.168 492.500 C 143.537 459.459, 143.457 423.423, 143.836 344.329 L 144 310.159 147.250 309.473 C 149.037 309.096, 157.700 307.084, 166.500 305.002 C 209.403 294.852, 203.678 296.112, 314 272.544 C 320.325 271.193, 333.375 268.458, 343 266.468 C 352.625 264.477, 361.201 262.655, 362.058 262.418 C 363.026 262.150, 365.631 256.411, 368.946 247.244 C 371.878 239.135, 374.477 231.965, 374.722 231.311 C 375.222 229.975, 373.355 229.402, 354.500 225.110 C 347.350 223.482, 328.675 219.171, 313 215.529 C 278.945 207.617, 257.270 202.964, 255.092 203.098 C 254.216 203.152, 248.550 204.277, 242.500 205.598 M 452.116 365.645 C 451.427 367.158, 448.824 373.594, 446.332 379.948 L 441.802 391.500 442.416 411 C 442.753 421.725, 443.240 435.675, 443.496 442 C 443.753 448.325, 444.201 461.825, 444.491 472 C 444.780 482.175, 445.235 497.925, 445.501 507 C 445.767 516.075, 446.220 531.825, 446.507 542 C 446.794 552.175, 447.242 567.925, 447.501 577 C 447.760 586.075, 448.210 601.825, 448.499 612 C 449.066 631.885, 449.519 647.008, 451.005 695.500 C 451.527 712.550, 452.035 733.155, 452.134 741.288 C 452.486 770.142, 453.649 756.231, 454.900 708.195 C 455.597 681.413, 456.323 657.250, 456.512 654.500 C 456.701 651.750, 457.132 637.350, 457.470 622.500 C 457.808 607.650, 458.269 593.475, 458.493 591 C 458.718 588.525, 459.183 573.675, 459.526 558 C 459.869 542.325, 460.307 527.025, 460.498 524 C 460.689 520.975, 461.158 505.900, 461.539 490.500 C 461.921 475.100, 462.356 461.825, 462.507 461 C 462.657 460.175, 463.083 446.225, 463.453 430 C 463.823 413.775, 464.323 398.595, 464.564 396.267 C 464.920 392.824, 463.917 389.316, 459.186 377.464 C 453.568 363.394, 453.326 362.989, 452.116 365.645" stroke="none" fill="#faf7f0" fill-rule="evenodd"/><path d="M 247.500 205.031 C 237.998 206.961, 199.974 215.548, 164 223.888 C 132.801 231.120, 67.664 247.954, 66.531 249.078 C 64.589 251.002, 65.451 553.250, 67.435 566.022 C 67.646 567.385, 68.115 575.025, 68.477 583 C 71.230 643.667, 79.093 705.812, 89.609 750 C 100.280 794.843, 117.714 839.152, 139.793 877.543 C 194.718 973.049, 292.269 1061.913, 416.209 1129.344 C 436.722 1140.504, 451.532 1148, 453.070 1148 C 456.595 1148, 506.182 1121.402, 531 1106.200 C 647.129 1035.064, 731.551 949.704, 779.439 855 C 805.060 804.332, 821.161 748.978, 829.470 683 C 830.336 676.125, 831.266 668.980, 831.537 667.122 C 832.292 661.947, 835.787 624.160, 836.912 609 C 838.745 584.312, 840.277 550.332, 841.577 505.500 C 842.979 457.172, 841.815 250.543, 840.131 248.768 C 839.359 247.955, 761.454 228.017, 739.500 223.015 C 731.800 221.261, 718.075 218.087, 709 215.964 C 693.187 212.263, 686.668 210.791, 664.500 205.915 C 659 204.705, 653.375 203.749, 652 203.791 C 648.581 203.893, 637.776 206.147, 609.500 212.656 C 596.300 215.695, 582.800 218.767, 579.500 219.483 C 576.200 220.198, 564.377 222.858, 553.226 225.392 C 542.076 227.926, 532.739 230, 532.476 230 C 532.214 230, 532 230.426, 532 230.948 C 532 232.375, 543.053 260.367, 544.013 261.374 C 544.472 261.854, 558.719 265.088, 575.674 268.561 C 649.597 283.700, 761.028 308.694, 762.887 310.553 C 764.117 311.784, 763.539 513.692, 762.226 541 C 760.945 567.675, 758.382 610.217, 757.499 619.500 C 753.692 659.495, 752.613 668.462, 748.355 695.500 C 734.259 785.001, 695.898 860.745, 629.881 929.420 C 606.138 954.121, 574.110 981.485, 542.500 1004.078 C 525.426 1016.281, 497.196 1034.529, 496.487 1033.820 C 495.853 1033.187, 495.233 1026.727, 492.486 992.177 C 487.794 933.163, 486.046 908.484, 485.362 891.601 L 484.678 874.703 499.089 875.404 C 529.545 876.887, 561.510 881.389, 591.250 888.385 L 597 889.737 597 844.801 C 597 802.473, 596.898 799.895, 595.250 800.386 C 588.681 802.341, 558.908 808.372, 548 809.958 C 531.138 812.409, 514.686 814.042, 500.613 814.662 L 485.725 815.318 486.366 810.909 C 486.718 808.484, 488.573 787.825, 490.488 765 C 492.403 742.175, 494.184 721.475, 494.447 719 C 494.709 716.525, 495.173 711.350, 495.479 707.500 C 495.784 703.650, 497.155 687.675, 498.526 672 C 499.897 656.325, 502.128 630.225, 503.485 614 C 504.842 597.775, 506.199 581.575, 506.501 578 C 506.804 574.425, 507.276 568.575, 507.551 565 C 507.826 561.425, 508.249 556.700, 508.490 554.500 C 508.731 552.300, 509.181 546.900, 509.491 542.500 C 509.800 538.100, 510.261 532.700, 510.514 530.500 C 510.767 528.300, 511.664 517.500, 512.508 506.500 C 513.352 495.500, 514.262 484.250, 514.530 481.500 C 514.798 478.750, 515.891 466.600, 516.959 454.500 C 519.698 423.456, 522.087 396.853, 522.975 387.500 L 523.735 379.500 515.990 366 C 511.731 358.575, 504.311 345.525, 499.501 337 C 494.691 328.475, 488.824 318.125, 486.462 314 C 480.294 303.226, 468.863 282.564, 460.738 267.500 C 456.881 260.350, 453.623 254.374, 453.499 254.220 C 453.375 254.066, 449.759 260.366, 445.465 268.220 C 441.170 276.074, 431.829 292.850, 424.706 305.500 C 380.869 383.358, 382.847 379.638, 383.407 383.170 C 383.696 385.002, 384.193 390.100, 384.510 394.500 C 384.827 398.900, 385.513 407.225, 386.035 413 C 386.557 418.775, 387.229 426.425, 387.528 430 C 387.828 433.575, 388.503 441, 389.028 446.500 C 389.553 452, 391.123 470.225, 392.516 487 C 393.909 503.775, 397.514 547.200, 400.526 583.500 C 403.539 619.800, 406.226 651.750, 406.498 654.500 C 406.770 657.250, 407.898 670.075, 409.006 683 C 410.114 695.925, 411.248 708.975, 411.526 712 C 412.119 718.464, 415.433 756.254, 417.532 780.500 C 418.341 789.850, 419.300 801.509, 419.663 806.408 L 420.322 815.316 407.411 814.673 C 381.501 813.383, 361.938 810.829, 333 804.959 C 322.275 802.783, 312.498 800.728, 311.273 800.391 L 309.046 799.779 309.409 843.942 C 309.608 868.232, 310.019 888.353, 310.322 888.655 C 310.625 888.958, 316.414 888.053, 323.186 886.645 C 344.603 882.192, 362.576 879.344, 381 877.484 C 384.025 877.179, 387.850 876.735, 389.500 876.499 C 391.150 876.263, 399.174 875.764, 407.331 875.389 L 422.162 874.708 421.531 886.604 C 420.456 906.846, 418.009 945.267, 417.492 950 C 417.222 952.475, 416.538 961.250, 415.972 969.500 C 415.405 977.750, 414.723 986.975, 414.455 990 C 414.187 993.025, 413.310 1004.002, 412.507 1014.394 C 411.703 1024.785, 410.856 1033.478, 410.623 1033.711 C 410.390 1033.943, 402.617 1029.287, 393.350 1023.363 C 295.469 960.794, 225.545 884.382, 188.954 800 C 176.794 771.958, 167.109 740.284, 160.976 708.500 C 156.539 685.502, 150.869 638.965, 148.549 606.500 C 146.825 582.363, 146.015 567.513, 145.467 550 C 145.132 539.275, 144.625 529.150, 144.341 527.500 C 143.718 523.884, 143.165 342.052, 143.720 323.282 L 144.110 310.064 147.805 309.032 C 153.850 307.344, 228.122 290.354, 246.500 286.455 C 255.850 284.471, 268.675 281.734, 275 280.371 C 289.147 277.323, 319.590 270.943, 339 266.958 C 346.975 265.321, 355.711 263.423, 358.413 262.741 L 363.326 261.500 368.437 247.500 C 371.248 239.800, 373.902 232.937, 374.334 232.248 C 375.333 230.657, 372.471 229.549, 360.608 226.933 C 355.599 225.828, 337.100 221.580, 319.500 217.494 C 301.900 213.407, 281.200 208.685, 273.500 207.002 C 265.800 205.318, 258.825 203.774, 258 203.571 C 257.175 203.368, 252.450 204.025, 247.500 205.031 M 446.651 377.984 C 441.526 391.084, 440.873 393.523, 441.372 397.716 C 441.686 400.347, 442.201 413.300, 442.519 426.500 C 442.836 439.700, 443.280 453.425, 443.505 457 C 443.730 460.575, 444.169 474.300, 444.479 487.500 C 444.790 500.700, 445.249 516.900, 445.498 523.500 C 445.747 530.100, 446.199 546.300, 446.501 559.500 C 446.803 572.700, 447.254 587.775, 447.503 593 C 447.752 598.225, 448.202 614.200, 448.503 628.500 C 448.805 642.800, 449.256 657.425, 449.507 661 C 449.758 664.575, 450.249 681.225, 450.597 698 C 450.946 714.775, 451.387 728.767, 451.577 729.092 C 451.767 729.418, 452.004 737.518, 452.104 747.092 C 452.338 769.726, 453.735 774.414, 454.013 753.500 C 454.130 744.700, 454.345 735.925, 454.490 734 C 454.635 732.075, 455.045 719.025, 455.401 705 C 455.757 690.975, 456.253 675, 456.503 669.500 C 456.752 664, 457.204 649.150, 457.506 636.500 C 457.808 623.850, 458.256 609.675, 458.501 605 C 458.747 600.325, 459.193 585.925, 459.492 573 C 459.792 560.075, 460.246 544.775, 460.501 539 C 460.756 533.225, 461.214 517.925, 461.518 505 C 461.822 492.075, 462.259 478.800, 462.489 475.500 C 463.132 466.281, 464.465 417.146, 464.484 402 L 464.500 388.500 459.115 375.750 C 456.153 368.738, 453.453 363.008, 453.115 363.018 C 452.777 363.029, 449.868 369.763, 446.651 377.984" stroke="none" fill="#044f77" fill-rule="evenodd"/><path d="M 463.584 74.757 C 461.430 83.965, 458.431 97.125, 456.919 104 C 453.094 121.395, 448.296 141.038, 447.736 141.598 C 447.478 141.856, 442.594 139.425, 436.883 136.196 C 431.173 132.968, 422.225 128.033, 417 125.229 C 411.775 122.426, 403.473 117.867, 398.550 115.099 C 393.628 112.331, 389.424 110.242, 389.210 110.457 C 388.995 110.672, 393.769 119.994, 399.819 131.174 C 413.148 155.802, 419.589 168.744, 418.874 169.459 C 418.580 169.753, 407.351 172.457, 393.920 175.469 C 350.742 185.150, 326.582 190.971, 327.238 191.535 C 327.382 191.658, 345.275 196.168, 367 201.555 C 388.725 206.942, 406.859 211.653, 407.298 212.023 C 408.117 212.714, 399.581 237.481, 389.041 265 C 385.775 273.525, 381.330 285.500, 379.161 291.611 C 376.993 297.723, 374.704 303.685, 374.074 304.861 C 371.683 309.330, 374.885 306.600, 385.935 294.750 C 392.217 288.012, 402.987 276.509, 409.867 269.186 C 416.747 261.864, 423.079 255.067, 423.938 254.082 C 425.419 252.384, 441.190 235.211, 449.239 226.532 L 452.978 222.500 459.705 229.500 C 473.080 243.419, 485.704 256.816, 496 268.022 C 510.436 283.732, 533.269 308, 533.614 308 C 533.770 308, 533.185 306.313, 532.314 304.250 C 531.442 302.188, 527.365 291.275, 523.253 280 C 505.687 231.836, 498.947 212.720, 499.379 212.288 C 499.889 211.778, 511.493 208.851, 532 204.059 C 539.425 202.324, 553.375 198.950, 563 196.561 C 572.625 194.172, 581.791 191.921, 583.368 191.560 C 584.945 191.198, 586.051 190.717, 585.824 190.491 C 585.299 189.966, 554.337 181.402, 533.500 176.019 C 524.700 173.745, 517.208 171.574, 516.850 171.193 C 516.493 170.812, 519.561 164.200, 523.668 156.500 C 542.936 120.377, 547.002 112.506, 546.760 111.791 C 546.543 111.149, 516.959 126.885, 495.837 138.877 C 492.723 140.645, 489.976 141.734, 489.733 141.296 C 489.491 140.858, 484.671 121.938, 479.024 99.250 C 473.376 76.563, 468.473 58.003, 468.128 58.007 C 467.782 58.010, 465.738 65.548, 463.584 74.757 M 65.385 274 C 65.385 280.875, 65.545 283.688, 65.740 280.250 C 65.936 276.813, 65.936 271.188, 65.740 267.750 C 65.545 264.313, 65.385 267.125, 65.385 274 M 841.370 290 C 841.370 295.775, 841.535 298.137, 841.737 295.250 C 841.939 292.363, 841.939 287.637, 841.737 284.750 C 841.535 281.863, 841.370 284.225, 841.370 290 M 143.411 361 C 143.411 370.625, 143.561 374.563, 143.745 369.750 C 143.928 364.938, 143.928 357.063, 143.745 352.250 C 143.561 347.438, 143.411 351.375, 143.411 361 M 763.397 363 C 763.397 370.975, 763.553 374.238, 763.743 370.250 C 763.932 366.262, 763.932 359.738, 763.743 355.750 C 763.553 351.762, 763.397 355.025, 763.397 363 M 842.417 369.500 C 842.418 379.950, 842.566 384.089, 842.746 378.698 C 842.926 373.307, 842.925 364.757, 842.744 359.698 C 842.563 354.639, 842.416 359.050, 842.417 369.500 M 64.460 411 C 64.460 435.475, 64.590 445.488, 64.749 433.250 C 64.908 421.013, 64.908 400.988, 64.749 388.750 C 64.590 376.513, 64.460 386.525, 64.460 411 M 464.336 405 C 464.336 409.125, 464.513 410.813, 464.728 408.750 C 464.944 406.688, 464.944 403.313, 464.728 401.250 C 464.513 399.188, 464.336 400.875, 464.336 405 M 442.320 418 C 442.320 421.575, 442.502 423.038, 442.723 421.250 C 442.945 419.462, 442.945 416.538, 442.723 414.750 C 442.502 412.962, 442.320 414.425, 442.320 418 M 842.413 456.500 C 842.414 466.400, 842.564 470.315, 842.746 465.199 C 842.928 460.084, 842.927 451.984, 842.744 447.199 C 842.561 442.415, 842.412 446.600, 842.413 456.500 M 443.310 449.500 C 443.315 452.800, 443.502 454.029, 443.725 452.232 C 443.947 450.435, 443.943 447.735, 443.715 446.232 C 443.486 444.729, 443.304 446.200, 443.310 449.500 M 143.402 474 C 143.402 482.525, 143.556 486.012, 143.743 481.750 C 143.931 477.488, 143.931 470.512, 143.743 466.250 C 143.556 461.988, 143.402 465.475, 143.402 474 M 462.320 468 C 462.320 471.575, 462.502 473.038, 462.723 471.250 C 462.945 469.462, 462.945 466.538, 462.723 464.750 C 462.502 462.962, 462.320 464.425, 462.320 468 M 763.382 479.500 C 763.384 486.100, 763.546 488.670, 763.741 485.211 C 763.937 481.752, 763.936 476.352, 763.738 473.211 C 763.540 470.070, 763.380 472.900, 763.382 479.500 M 444.328 479.500 C 444.333 483.350, 444.513 484.802, 444.730 482.728 C 444.946 480.653, 444.943 477.503, 444.722 475.728 C 444.501 473.952, 444.324 475.650, 444.328 479.500 M 461.320 498 C 461.320 501.575, 461.502 503.038, 461.723 501.250 C 461.945 499.462, 461.945 496.538, 461.723 494.750 C 461.502 492.962, 461.320 494.425, 461.320 498 M 65.360 513 C 65.360 518.225, 65.529 520.362, 65.735 517.750 C 65.941 515.138, 65.941 510.863, 65.735 508.250 C 65.529 505.637, 65.360 507.775, 65.360 513 M 445.336 514 C 445.336 518.125, 445.513 519.813, 445.728 517.750 C 445.944 515.688, 445.944 512.313, 445.728 510.250 C 445.513 508.188, 445.336 509.875, 445.336 514 M 144.355 517.500 C 144.352 522.450, 144.521 524.601, 144.731 522.280 C 144.940 519.959, 144.943 515.909, 144.736 513.280 C 144.530 510.651, 144.358 512.550, 144.355 517.500 M 841.310 514.500 C 841.315 517.800, 841.502 519.029, 841.725 517.232 C 841.947 515.435, 841.943 512.735, 841.715 511.232 C 841.486 509.729, 841.304 511.200, 841.310 514.500 M 762.328 522.500 C 762.333 526.350, 762.513 527.802, 762.730 525.728 C 762.946 523.653, 762.943 520.503, 762.722 518.728 C 762.501 516.952, 762.324 518.650, 762.328 522.500 M 460.310 532.500 C 460.315 535.800, 460.502 537.029, 460.725 535.232 C 460.947 533.435, 460.943 530.735, 460.715 529.232 C 460.486 527.729, 460.304 529.200, 460.310 532.500 M 840.300 546 C 840.300 549.025, 840.487 550.263, 840.716 548.750 C 840.945 547.237, 840.945 544.763, 840.716 543.250 C 840.487 541.737, 840.300 542.975, 840.300 546 M 66.300 548 C 66.300 551.025, 66.487 552.263, 66.716 550.750 C 66.945 549.237, 66.945 546.763, 66.716 545.250 C 66.487 543.737, 66.300 544.975, 66.300 548 M 145.310 548.500 C 145.315 551.800, 145.502 553.029, 145.725 551.232 C 145.947 549.435, 145.943 546.735, 145.715 545.232 C 145.486 543.729, 145.304 545.200, 145.310 548.500 M 446.336 550 C 446.336 554.125, 446.513 555.813, 446.728 553.750 C 446.944 551.688, 446.944 548.313, 446.728 546.250 C 446.513 544.188, 446.336 545.875, 446.336 550 M 761.310 549.500 C 761.315 552.800, 761.502 554.029, 761.725 552.232 C 761.947 550.435, 761.943 547.735, 761.715 546.232 C 761.486 544.729, 761.304 546.200, 761.310 549.500 M 459.336 565 C 459.336 569.125, 459.513 570.813, 459.728 568.750 C 459.944 566.688, 459.944 563.313, 459.728 561.250 C 459.513 559.188, 459.336 560.875, 459.336 565 M 839.300 570 C 839.300 573.025, 839.487 574.263, 839.716 572.750 C 839.945 571.237, 839.945 568.763, 839.716 567.250 C 839.487 565.737, 839.300 566.975, 839.300 570 M 67.300 572 C 67.300 575.025, 67.487 576.263, 67.716 574.750 C 67.945 573.237, 67.945 570.763, 67.716 569.250 C 67.487 567.737, 67.300 568.975, 67.300 572 M 447.328 585.500 C 447.333 589.350, 447.513 590.802, 447.730 588.728 C 447.946 586.653, 447.943 583.503, 447.722 581.728 C 447.501 579.952, 447.324 581.650, 447.328 585.500 M 458.320 598 C 458.320 601.575, 458.502 603.038, 458.723 601.250 C 458.945 599.462, 458.945 596.538, 458.723 594.750 C 458.502 592.962, 458.320 594.425, 458.320 598 M 448.320 620 C 448.320 623.575, 448.502 625.038, 448.723 623.250 C 448.945 621.462, 448.945 618.538, 448.723 616.750 C 448.502 614.962, 448.320 616.425, 448.320 620 M 457.328 629.500 C 457.333 633.350, 457.513 634.802, 457.730 632.728 C 457.946 630.653, 457.943 627.503, 457.722 625.728 C 457.501 623.952, 457.324 625.650, 457.328 629.500 M 449.320 655 C 449.320 658.575, 449.502 660.038, 449.723 658.250 C 449.945 656.462, 449.945 653.538, 449.723 651.750 C 449.502 649.962, 449.320 651.425, 449.320 655 M 456.310 662.500 C 456.315 665.800, 456.502 667.029, 456.725 665.232 C 456.947 663.435, 456.943 660.735, 456.715 659.232 C 456.486 657.729, 456.304 659.200, 456.310 662.500 M 450.336 687 C 450.336 691.125, 450.513 692.813, 450.728 690.750 C 450.944 688.688, 450.944 685.313, 450.728 683.250 C 450.513 681.188, 450.336 682.875, 450.336 687 M 455.343 695.500 C 455.346 699.900, 455.522 701.576, 455.733 699.224 C 455.945 696.872, 455.942 693.272, 455.727 691.224 C 455.512 689.176, 455.339 691.100, 455.343 695.500 M 451.349 721 C 451.349 725.675, 451.522 727.587, 451.732 725.250 C 451.943 722.913, 451.943 719.087, 451.732 716.750 C 451.522 714.413, 451.349 716.325, 451.349 721 M 454.300 727 C 454.300 730.025, 454.487 731.263, 454.716 729.750 C 454.945 728.237, 454.945 725.763, 454.716 724.250 C 454.487 722.737, 454.300 723.975, 454.300 727 M 452.338 761.999 C 453.150 770.307, 454.122 771.042, 453.886 763.169 C 453.783 759.739, 453.254 756.657, 452.711 756.321 C 452.077 755.930, 451.944 757.963, 452.338 761.999 M 406.768 814.725 C 408.565 814.947, 411.265 814.943, 412.768 814.715 C 414.271 814.486, 412.800 814.304, 409.500 814.310 C 406.200 814.315, 404.971 814.502, 406.768 814.725 M 421.300 880 C 421.300 883.025, 421.487 884.263, 421.716 882.750 C 421.945 881.237, 421.945 878.763, 421.716 877.250 C 421.487 875.737, 421.300 876.975, 421.300 880 M 309.180 884.250 C 309.027 889.133, 309.264 889.998, 310.750 889.985 C 311.920 889.974, 312.107 889.720, 311.314 889.215 C 310.662 888.801, 309.956 886.220, 309.744 883.481 L 309.360 878.500 309.180 884.250 M 485.343 888.500 C 485.346 892.900, 485.522 894.576, 485.733 892.224 C 485.945 889.872, 485.942 886.272, 485.727 884.224 C 485.512 882.176, 485.339 884.100, 485.343 888.500 M 277 929.500 C 280.543 933.075, 283.667 936, 283.942 936 C 284.217 936, 281.543 933.075, 278 929.500 C 274.457 925.925, 271.333 923, 271.058 923 C 270.783 923, 273.457 925.925, 277 929.500 M 612.966 945.750 L 607.500 951.500 613.250 946.034 C 618.592 940.956, 619.458 940, 618.716 940 C 618.560 940, 615.972 942.587, 612.966 945.750 M 295 947.500 C 297.987 950.525, 300.657 953, 300.932 953 C 301.207 953, 298.987 950.525, 296 947.500 C 293.013 944.475, 290.343 942, 290.068 942 C 289.793 942, 292.013 944.475, 295 947.500 M 241.500 1005 C 244.766 1008.300, 247.662 1011, 247.937 1011 C 248.212 1011, 245.766 1008.300, 242.500 1005 C 239.234 1001.700, 236.338 999, 236.063 999 C 235.788 999, 238.234 1001.700, 241.500 1005" stroke="none" fill="#b98f47" fill-rule="evenodd"/></svg>